<svg width="70" height="56" viewBox="0 0 70 56" fill="none" xmlns="http://www.w3.org/2000/svg">
<g clip-path="url(#clip0_612_117)">
<path d="M62.7636 39.0688C62.0101 42.1841 58.5562 44.6392 56.1773 46.4931C52.6133 49.2614 46.9752 53.4603 42.5731 54.5693C35.5805 56.3302 31.8472 56.381 24.6937 55.1873C18.6493 54.1799 11.225 50.091 7.59321 44.8C5.3075 41.4646 4.04612 36.7238 4.55406 32.7027C5.40062 25.9302 11.8006 27.0307 17.5149 26.7937C23.898 26.5312 30.4165 25.854 36.7488 25.0074C41.0154 24.4318 45.7816 23.5683 50.0906 24.381C53.9509 25.109 58.3869 27.9111 60.571 31.2381C61.6461 32.872 62.8059 37.418 62.0355 39.2127C61.7731 39.0434 61.8408 38.8741 61.7138 38.5947L62.7805 39.0773L62.7636 39.0688Z" fill="#FFE499"/>
<path d="M14.8149 35.5556C12.2329 34.5312 10.4043 38.781 13.2741 38.9249C14.3154 38.9757 15.6784 38.6455 15.8985 37.4688C16.0339 36.7408 15.4667 35.3693 14.5778 35.5725L14.8233 35.5556H14.8149Z" fill="#E8BF13"/>
<path d="M21.1133 34.5566C20.3175 33.8286 18.7344 33.8201 18.6244 35.1069C18.5059 36.4953 20.8932 38.29 22.1545 37.9767C24.2794 37.4519 22.3577 34.5058 20.9524 34.3365L21.1133 34.5566Z" fill="#E8BF13"/>
<path d="M47.6185 35.8857C46.628 35.4878 43.9867 35.7333 43.2333 36.6222C42.2513 37.7905 43.7158 38.3746 45.011 38.3577C46.0354 38.3492 49.5147 36.2328 47.3222 35.945L47.6185 35.8942V35.8857Z" fill="#E8BF13"/>
<path d="M2.73408 25.2614C2.29386 25.9809 3.39439 27.0815 3.86 26.2942C4.24942 25.6339 3.01344 24.8889 2.62402 25.346L2.73408 25.2614Z" fill="#E8BF13"/>
<g style="mix-blend-mode:multiply" opacity="0.2">
<path d="M51.5465 41.49C49.4385 42.3534 46.9158 43.0053 45.2481 44.6392C43.4787 46.3661 42.3613 48.1609 40.2872 49.7185C38.1877 51.2931 36.156 52.4191 33.6417 53.181C31.8216 53.7312 29.519 53.5281 27.8936 54.2984C33.8364 58.0656 43.5973 53.9683 48.956 50.6836C51.8343 48.9228 55.0682 46.764 56.5496 43.6233C58.2851 39.9323 55.0597 37.8667 52.0544 40.6603L51.5465 41.49Z" fill="#E5AF17"/>
</g>
<path d="M41.4981 44.0804C42.0314 45.4434 44.1478 45.2233 45.2992 44.9693C47.678 44.4614 49.6589 43.2 52.1648 43.1661C53.2314 43.1492 56.2198 42.9037 56.2198 44.5291C56.2198 45.5873 54.6706 46.1122 55.3309 47.4582C55.7965 48.4063 57.4304 48.9227 58.26 48.1185C59.115 47.2804 58.0484 46.6201 58.2769 45.9259C58.5817 44.9693 59.6314 45.782 60.2494 45.2571C60.9859 44.6222 60.1055 43.9026 60.2071 43.2C61.46 43.2169 61.3415 43.6656 62.2896 44.1989C63.2124 44.7238 64.4484 44.3852 65.3034 43.8434C65.7013 43.5894 66.1584 43.3439 66.2854 42.819C66.4209 42.2434 65.8791 41.9725 65.9044 41.5153C65.9637 40.4825 67.4113 40.8719 68.1986 40.1524C68.8674 39.5428 69.7563 38.019 68.8759 37.1809C68.114 36.4614 66.8272 37.7143 66.7341 36.419C66.6748 35.6148 67.9785 34.4042 68.241 33.5831C68.6388 32.3047 68.5627 31.1365 67.2843 30.4084C66.7679 30.1122 66.2007 29.7905 65.6336 30.1629C65.1764 30.4677 65.3373 31.2042 64.9478 31.4836C63.6187 32.4233 64.0589 30.654 64.1267 30.0275C64.3214 28.0381 62.2473 25.2021 59.9108 25.8963C57.0748 26.7344 58.4293 31.0603 57.0918 33.0582C55.8812 34.8698 53.8325 36.4698 51.733 37.1809C50.7425 37.5196 49.6843 37.5365 48.8886 38.2645C48.0843 39.001 47.5679 40.0169 46.7214 40.7619C45.2822 42.0148 43.2336 43.6656 41.2695 43.9958C41.405 43.9704 41.532 43.9196 41.6589 43.8772L41.515 44.0804H41.4981Z" fill="#8BBD5C"/>
<path d="M41.6163 44.0973C43.8597 47.0941 49.0745 44.1735 52.1729 43.8518C53.0533 43.7587 54.3401 43.7672 55.0597 44.3598C55.9824 45.1217 55.4152 45.765 55.1951 46.6539C54.7888 48.2709 56.9052 50.7936 58.1073 48.5418C58.4628 47.8814 58.065 46.7217 58.539 46.1968C59.1486 45.5195 60.012 46.4423 60.5454 45.4687C60.8671 44.8762 59.8004 43.4624 60.5369 43.2169C61.1041 43.0307 62.1538 44.9608 62.7718 44.0042C63.1105 43.4878 60.0036 40.9481 59.4956 43.2677C59.3433 43.9703 59.5634 44.7492 58.5136 45.1132C57.2861 45.5365 57.32 44.6476 57.8195 43.8687C57.4046 43.7502 56.9729 43.7672 56.5665 43.7672C56.5835 42.8021 57.3115 42.2518 56.0586 41.6423C54.8819 41.0751 54.8142 41.9301 54.0015 42.3957C53.0533 42.946 52.4269 42.1841 51.3179 42.3449C50.3612 42.4804 49.684 43.0137 48.8205 43.2508C48.448 43.3523 46.3147 43.6317 46.1284 43.183C45.9083 42.6412 47.6438 42.0656 47.339 41.109C46.7464 39.2804 44.266 42.1418 43.4872 42.5904C43.0046 42.8613 41.7517 43.183 41.5062 43.7248C41.1507 44.4952 42.1581 44.9693 42.9284 44.7492L41.6078 44.1058L41.6163 44.0973Z" fill="#AAC962"/>
<path d="M46.171 42.0402C46.7128 40.7365 48.5075 38.5016 49.9467 38.0529C52.0038 37.4095 53.8832 37.291 55.5678 35.8095C57.007 34.5397 58.3446 32.745 58.5731 30.8063C58.7594 29.1894 58.1245 26.8952 60.5795 26.7682C61.3668 26.7259 62.5012 27.1746 62.1372 28.1397C59.2589 27.2592 60.5795 30.4592 60.5202 31.8645C60.4186 34.2857 56.8546 34.9376 56.9731 37.0286C57.5996 36.91 59.2843 35.9534 59.8176 36.8846C60.3509 37.8243 58.48 38.1799 58.1245 38.7894C58.6917 39.2889 60.1901 39.3312 59.7329 40.4825C59.3181 41.5323 58.4038 40.7788 57.7689 40.364C56.8462 39.746 56.0758 39.2296 54.916 39.6106C53.8155 39.9746 53.9932 40.8719 53.2737 41.3883C52.5372 41.9132 51.8007 41.3545 50.9541 41.6931C48.8716 42.5227 51.0472 42.3534 51.5044 42.7936C52.588 43.8434 50.3869 43.7926 49.8366 43.6233C48.8631 43.327 48.6768 42.7598 47.6356 43.1323C47.0345 43.3439 45.0705 44.9608 44.4186 44.0635C43.7668 43.1746 45.9509 42.6413 46.2641 42.1672L46.1626 42.0402H46.171Z" fill="#74A75D"/>
<path d="M66.48 30.9418C65.9552 30.4423 65.6673 31.9661 65.4218 32.3725C64.9816 33.0921 64.4144 33.1936 63.7541 33.6339C63.0007 34.1249 59.8769 36.0635 60.8758 36.9439C61.5531 36.5968 62.8229 35.8772 63.6271 35.8603C64.9816 35.8349 64.7784 36.7407 65.9467 35.5471C67.3012 34.1672 68.2239 32.0762 66.1075 31.018C65.9298 31.1111 66.0144 31.1873 65.9467 31.3227L66.4716 30.9418H66.48Z" fill="#74A75D"/>
<path d="M50.6582 37.2571C50.836 38.7302 48.1947 41.0836 46.8741 41.8878C45.2402 42.8868 42.5059 42.5735 41.1768 44.0042C42.6498 45.782 44.3852 44.9524 45.6805 43.6487C46.5524 42.7598 47.0604 42.963 48.0932 42.5228C48.9821 42.1503 49.2106 41.3291 49.6932 40.6349C50.582 39.3482 50.8022 39.7799 52.0551 39.8392C53.181 39.89 54.0868 39.3228 54.7217 38.4085C55.3397 37.5196 55.5852 36.6815 54.2477 36.9524C53.3757 37.1302 52.8932 37.6466 51.9365 37.6381C51.6995 37.6381 50.4381 37.4349 50.6328 37.4773L50.6667 37.2571H50.6582Z" fill="#527F56"/>
<path d="M36.9438 48.2455C22.6285 51.073 9.54913 44.6391 7.72903 33.8794C5.90046 23.1111 16.0253 12.0974 30.3407 9.26137C44.6475 6.43386 57.7354 12.8677 59.5555 23.6275C61.3841 34.3958 51.2592 45.4095 36.9438 48.237V48.2455Z" fill="#B22D1F"/>
<path d="M26.7174 10.6159C25.3798 9.64232 22.1544 11.818 20.8338 12.5206C18.4296 13.7989 16.3724 15.4159 14.2729 17.1344C12.5883 18.5143 11.4624 20.0127 10.2433 21.7566C9.50681 22.8148 7.75442 23.8899 7.4158 25.109C7.17876 25.9386 7.77982 26.2772 7.74596 26.9884C7.70363 27.8095 7.15337 28.3175 6.91633 29.0624C6.55231 30.2053 6.95019 31.4836 7.00945 32.6518C7.1195 34.7005 7.58511 37.8836 9.02427 39.4074C10.0232 40.4656 10.6073 40.9312 11.3354 42.3026C12.1227 43.7672 12.893 43.7333 14.1629 44.5883C15.4327 45.4434 16.1777 46.1799 17.7946 46.637C19.3015 47.0603 19.7248 47.9915 21.0878 48.5841C24.2793 49.9809 27.928 49.8963 31.3311 49.363C35.0222 48.7873 38.6454 47.7376 42.2941 46.8402C49.0243 45.1894 54.2222 40.3555 57.2867 34.2942C56.0507 35.31 55.1364 36.6984 53.892 37.7397C52.0973 39.2381 50.1079 40.5503 48.0846 41.7016C45.6634 43.0899 42.5396 44.7661 39.7798 45.0116C38.5692 45.1217 37.5364 45.037 36.3936 45.5619C35.3523 46.0444 34.5142 46.9503 33.3375 47.2042C31.2973 47.6529 30.4507 46.654 28.9523 45.8582C27.183 44.91 24.8973 45.6296 22.9671 45.5788C21.2401 45.5365 19.7587 44.9354 18.455 43.8518C17.4391 43.0053 15.8729 41.3037 15.6782 39.9153C15.5936 39.3227 16.0169 39.0603 15.7968 38.4254C15.5766 37.7735 14.5269 37.037 14.0359 36.563C13.1132 35.6825 12.3682 34.9799 11.7925 33.7862C10.9544 32.0169 12.2666 31.5936 12.0804 29.909C11.9195 28.4275 11.0645 27.4878 11.2507 25.8878C11.4031 24.618 11.8348 23.0603 12.5206 21.9259C14.0528 19.3862 17.1851 16.745 19.6232 15.0603C21.0285 14.0952 22.4423 13.3587 23.9153 12.5545C24.8126 12.0635 26.7597 11.2508 27.2338 10.582L26.7174 10.6159Z" fill="#9B1E15"/>
<path opacity="0.4" d="M58.3195 29.2825C57.8963 30.5693 57.4052 31.8222 56.3724 32.8296C55.001 34.1756 53.2148 34.2857 51.6063 35.1492C50.328 35.8349 49.6846 37.0793 48.5841 38.0021C47.2804 39.0941 46.146 39.6783 44.5968 40.237C41.6254 41.3206 38.9502 42.8867 35.8349 43.6825C32.5587 44.5206 29.2063 44.2582 25.9978 43.4878C24.6179 43.1576 23.001 42.9291 21.782 42.2264C20.9269 41.727 21.037 41.2021 20.5799 40.6688C19.4793 39.3735 17.8285 39.3143 16.6179 38.3322C15.5513 37.4688 14.3746 35.9788 13.6381 34.9121C12.8508 33.7777 11.3862 31.5936 11.2084 30.2391C11.1068 29.4603 11.547 28.5799 11.6148 27.7841C11.691 26.8952 11.691 26.1502 11.9111 25.2698C12.1904 24.1777 13.8751 21.8836 13.2148 20.9608C9.53223 23.4497 7.22959 30.0698 8.49943 34.1841C9.30366 36.783 11.0814 37.8836 12.7153 39.7291C14.2052 41.4137 15.0772 43.2084 17.1428 44.4783C21.4349 47.1195 28.3767 48.3217 33.5068 47.6106C37.9174 47.001 41.6338 45.1979 45.6719 43.5894C49.4899 42.074 53.1301 39.2635 55.4158 35.9195C56.2201 34.7428 57.1682 33.5492 57.8116 32.2793C58.3873 31.1365 58.3788 29.6973 58.9291 28.6476L58.3111 29.2825H58.3195Z" fill="#9B1E15"/>
<path d="M3.37765 24.6434C3.17448 24.4402 1.61681 24.2709 0.99035 24.3641C0.0168054 24.508 -0.245628 24.3556 0.245377 25.7439C0.736382 27.1154 2.12474 27.9111 3.21681 28.7238C4.8676 29.9514 6.23056 31.2043 7.0348 33.126C8.05067 35.5302 8.11839 41.617 11.2507 42.5397C12.3512 42.8614 13.6803 41.8709 14.62 41.4561C16.0337 40.8381 17.4221 40.5334 18.9628 40.3471C23.4665 39.8223 27.1068 40.491 31.5173 41.3207C35.9194 42.1503 40.8126 41.9048 45.0623 40.5164C48.7787 39.2974 51.9448 37.1471 55.0856 34.8529C57.4644 33.109 60.2835 31.6953 62.5015 29.8159C63.365 29.0794 67.1068 26.0826 65.93 24.635C65.3967 23.9746 62.9332 24.2032 62.1713 24.1778C60.6729 24.127 59.1914 24.2879 57.803 24.9143C53.4602 26.9037 49.0665 28.436 44.3427 29.4519C34.0401 31.6783 22.73 32.5418 12.6983 28.5207C9.52368 27.2508 6.56072 26.2519 3.64855 24.7535C3.2422 24.5418 3.4877 24.5249 3.08982 24.5164L3.36072 24.6603L3.37765 24.6434Z" fill="#CC6E27"/>
<path d="M3.95328 24.1693C3.7501 23.9661 2.20936 23.8138 1.58291 23.9069C0.617828 24.0508 0.346929 23.9069 0.829468 25.2783C1.30354 26.6328 2.67497 27.4117 3.75857 28.199C5.39243 29.4011 6.73 30.6286 7.52576 32.5249C8.51624 34.8952 8.54164 40.9228 11.64 41.8032C12.7321 42.1164 14.0612 41.1175 15.0009 40.7027C16.4147 40.0762 17.7945 39.763 19.3268 39.5767C23.8051 39.0265 27.4199 39.6529 31.8051 40.4487C36.1734 41.236 41.0411 40.9566 45.2824 39.5429C48.9903 38.3154 52.148 36.1566 55.2887 33.8624C57.6676 32.1185 60.4781 30.6963 62.6961 28.8169C63.5681 28.0804 67.3014 25.0921 66.1416 23.6614C65.6168 23.0095 63.1702 23.255 62.4083 23.2381C60.9184 23.1958 59.4369 23.3651 58.0654 24C53.7311 26.0064 49.3543 27.5556 44.6475 28.5968C34.3871 30.8741 23.1448 31.8222 13.1977 27.9196C10.057 26.6836 7.11942 25.727 4.22418 24.2624C3.82629 24.0593 4.06333 24.0339 3.67391 24.0339L3.94481 24.1693H3.95328Z" fill="#FFDD33"/>
<path d="M48.7197 3.97884C39.9493 -2.75131 26.9631 0.0423376 18.0657 5.08784C10.7768 9.21906 0.0847776 17.3884 5.50277 26.7513C7.55144 30.29 9.29536 31.7799 13.3165 32.3132C16.6096 32.7534 20.1059 32.6519 23.3398 33.2783C26.9631 33.9725 29.9176 36.0381 33.7525 36.2243C37.6297 36.4106 42.2604 35.4116 45.8499 33.9894C54.0192 30.7386 65.7186 22.7725 60.2414 12.6053C58.5567 9.47302 55.2213 7.06033 52.3938 5.01165C51.1493 4.1143 49.7102 3.25927 48.288 2.72593C47.1197 2.28572 44.089 1.93863 43.6827 1.20213L48.7197 3.98731V3.97884Z" fill="#FFE499"/>
<path d="M48.263 2.62432C46.6291 2.57353 44.9106 1.11744 43.1667 0.880407C41.008 0.575645 38.8323 0.313211 36.6482 0.304745C31.6958 0.270883 26.2439 2.0148 21.7064 3.92803C14.5614 6.94178 4.06405 13.6211 5.23231 22.5439C5.5286 24.8127 6.67993 26.5989 8.17834 28.2582C10.6249 30.9672 13.7148 31.492 17.2789 31.5005C19.226 31.5005 21.2154 30.9926 23.1371 31.382C24.9995 31.7629 26.6588 32.9058 28.4535 33.5069C32.6524 34.9291 38.0281 36.0042 41.6429 32.7026C38.7646 32.5333 35.9371 33.092 32.9741 32.4571C29.4778 31.7122 26.0069 30.6963 22.9424 28.7915C16.136 24.5502 16.2799 15.509 21.4609 9.88781C25.8122 5.17247 32.0852 2.14178 38.4937 1.65078C39.645 1.55766 47.8905 2.58199 47.8905 2.58199L48.2715 2.63279L48.263 2.62432Z" fill="#E5AF17"/>
<g style="mix-blend-mode:multiply" opacity="0.2">
<path d="M45.0285 2.15873C47.4073 3.83492 49.9385 5.68043 51.0137 8.57566C52.2666 11.9365 51.4623 16.7958 49.3713 19.6233C47.0771 22.7217 43.31 25.2021 39.5512 26.0148C38.002 26.3534 36.1819 26.6074 34.6412 26.0571C33.1174 25.5153 31.8983 24.1862 30.3152 23.763C27.0814 22.8995 23.6782 24.3302 21.748 20.6561C19.9025 17.1513 22.5015 13.0963 24.8549 10.6328C27.3523 8.0254 29.9935 5.89207 33.2697 4.36826C35.42 3.36085 37.8581 2.98836 39.983 2.02328C38.9417 0.0169346 32.4824 0.685717 30.6539 0.888892C27.3015 1.26138 23.7967 2.47196 20.9438 4.24127C14.9332 7.98307 8.38932 11.7333 5.39249 18.5482C4.41895 20.7577 3.51313 23.1619 4.64752 25.4815C5.60413 27.4286 8.10995 29.0116 10.057 29.782C12.3682 30.7048 14.8316 30.9333 17.2867 31.1873C19.6994 31.4413 22.62 30.8995 24.8888 31.8476C26.802 32.6434 28.2327 34.2773 30.3322 34.7767C32.7787 35.3524 36.3004 35.1069 38.7724 34.7259C41.4475 34.3196 44.1311 33.7101 46.6708 32.8212C48.948 32.0254 50.7428 30.7217 52.6983 29.3503C57.947 25.6931 63.0179 19.691 59.4962 13.2064C56.711 8.07619 51.1322 3.56402 45.5449 1.93863L45.0285 2.15873Z" fill="#E5AF17"/>
</g>
<path d="M42.4464 3.92807C40.0083 3.40321 36.639 4.57992 35.0898 6.54395C33.2273 8.91432 34.5818 11.0223 36.1734 13.0032C39.2464 16.8212 43.7416 18.6582 47.966 15.7461C53.3586 12.0297 45.0707 2.42119 40.2115 3.22543L42.4379 3.92807H42.4464Z" fill="#FFCF48"/>
<path d="M24.7113 11.3185C24.051 11.818 23.2129 11.818 22.8404 11.327C22.4679 10.836 22.7134 10.0318 23.3738 9.54077C24.0341 9.0413 24.8722 9.0413 25.2447 9.5323C25.6171 10.0233 25.3801 10.8275 24.7198 11.3185H24.7113Z" fill="#D87F09"/>
<path d="M33.4898 9.3037C33.1596 9.5492 32.584 9.33756 32.1945 8.82963C31.8136 8.32169 31.7713 7.7037 32.1014 7.4582C32.4316 7.2127 33.0157 7.42434 33.3882 7.93227C33.7692 8.44021 33.8115 9.0582 33.4898 9.3037Z" fill="#D87F09"/>
<path d="M43.149 13.1132C42.3956 13.6804 41.3374 13.5281 40.7786 12.7831C40.2199 12.0381 40.3723 10.9799 41.1257 10.4127C41.8707 9.85398 42.9374 9.9979 43.4961 10.7429C44.0548 11.4878 43.9024 12.546 43.149 13.1132Z" fill="#D87F09"/>
<path d="M32.8636 16.618C32.2287 17.0921 31.4076 17.0497 31.0181 16.5333C30.6287 16.0169 30.8234 15.2127 31.4499 14.7386C32.0763 14.2645 32.906 14.2984 33.2954 14.8233C33.6848 15.3397 33.4901 16.1439 32.8636 16.618Z" fill="#D87F09"/>
<path d="M23.6272 18.2349C23.0261 18.6836 22.2219 18.6244 21.824 18.0995C21.4261 17.5746 21.5954 16.7873 22.1965 16.3302C22.7975 15.8815 23.6018 15.9408 23.9996 16.4656C24.3975 16.9905 24.2282 17.7778 23.6272 18.2349Z" fill="#D87F09"/>
<path d="M28.2672 5.8582C27.6661 6.30688 27.0481 6.50159 26.8873 6.28148C26.7265 6.06984 27.082 5.52804 27.6831 5.0709C28.2841 4.62222 28.9021 4.42751 29.063 4.64762C29.2238 4.86772 28.8683 5.40106 28.2757 5.8582H28.2672Z" fill="#D87F09"/>
<path d="M15.941 13.8836C15.3399 14.3323 14.5357 14.273 14.1462 13.7566C13.7484 13.2317 13.9177 12.4444 14.5187 11.9957C15.1198 11.5471 15.924 11.6063 16.3134 12.1227C16.7113 12.6476 16.542 13.4349 15.941 13.8836Z" fill="#D87F09"/>
<path d="M52.6981 15.6021C52.3002 15.8984 51.5722 15.6021 51.0642 14.9334C50.5648 14.2646 50.4801 13.4773 50.878 13.181C51.2759 12.8847 52.0039 13.181 52.5118 13.8498C53.0113 14.5185 53.096 15.2974 52.6981 15.6021Z" fill="#D87F09"/>
<path d="M48.0593 9.43073C47.6614 9.72702 46.8826 9.37147 46.3239 8.62649C45.7651 7.88152 45.6297 7.03496 46.036 6.73866C46.4339 6.44237 47.2127 6.79792 47.7715 7.5429C48.3302 8.28787 48.4572 9.13443 48.0678 9.43073H48.0593Z" fill="#D87F09"/>
<path d="M41.0495 5.83282C40.6093 6.16298 40.0167 6.11218 39.7204 5.73123C39.4241 5.34181 39.5427 4.75769 39.9913 4.42753C40.4315 4.09737 41.0241 4.14816 41.3204 4.53758C41.6167 4.927 41.4982 5.51113 41.058 5.84129L41.0495 5.83282Z" fill="#D87F09"/>
<path d="M44.5043 21.7481C43.9202 22.1884 43.2429 22.273 42.989 21.9429C42.735 21.6042 43.0059 20.9778 43.59 20.546C44.1741 20.1058 44.8514 20.0212 45.1054 20.3513C45.3593 20.6815 45.0884 21.3079 44.5043 21.7481Z" fill="#D87F09"/>
<path d="M51.8943 22.4846C51.3017 22.9333 50.6499 23.0772 50.4467 22.8063C50.2435 22.5354 50.5652 21.9598 51.1578 21.5111C51.7504 21.0624 52.4023 20.9185 52.6054 21.1894C52.8086 21.4603 52.4869 22.0444 51.8943 22.4846Z" fill="#D87F09"/>
<path d="M7.99121 13.4942C5.22296 15.9492 4.13089 21.7058 5.39227 25.1174C6.61132 28.419 9.23565 30.5778 12.6134 31.4328C16.0928 32.3047 19.7245 31.6021 23.17 32.5418C26.6071 33.4815 29.714 35.1407 33.1679 35.8603C34.497 36.1397 35.6145 36.1397 36.9097 35.9111C34.8695 35.8264 32.6431 35.9111 30.5859 35.3778C28.9013 34.946 27.496 34.2349 25.769 33.9471C22.9415 33.473 20.0547 33.2952 17.2187 33.1936C14.3997 33.092 11.3775 33.0751 9.06634 31.4074C7.12772 30.0021 5.77322 28.419 4.82507 26.2264C3.75841 23.7545 2.73407 21.2148 3.85153 18.5989C4.842 16.2709 8.13513 14.6116 8.65153 12.3174L7.99968 13.4857L7.99121 13.4942Z" fill="#D87F09"/>
<path d="M61.6293 25.363C60.6389 26.1249 59.5383 27.5471 61.6717 27.1662C63.5087 26.836 62.9838 24.7281 61.8748 25.6931L61.6293 25.363Z" fill="#E8BF13"/>
<g style="mix-blend-mode:multiply">
<path d="M4.91016 24.982C5.80751 26.2603 6.24772 28.3429 7.06042 29.8243C7.94084 31.4328 8.97365 32.9312 10.6752 33.7354C14.908 35.7164 19.5303 34.5651 23.9324 35.6402C26.4551 36.2582 28.8763 37.4095 31.4244 38.036C33.8117 38.6286 36.453 38.3577 38.8149 37.7566C42.5398 36.8085 46.2139 35.0391 49.5578 33.2106C52.0805 31.8307 54.6795 30.1545 56.7959 28.1905C58.3874 26.7175 58.8784 25.3291 59.8435 23.5175C59.107 25.3714 56.7705 26.819 55.2297 27.9788C53.2657 29.4518 51.2424 30.6201 49.0244 31.6614C45.2742 33.4222 41.4308 34.472 37.3758 35.0899C34.4043 35.5386 30.9758 35.4032 28.0975 34.5566C24.7197 33.5577 21.9599 32.9397 18.4636 32.8212C15.526 32.728 11.9027 32.7365 9.38 31.1873C8.24561 30.4931 7.24666 29.2148 6.51862 28.0212C6.07841 27.3016 5.08793 25.1513 5.18952 24.4402L4.91862 24.982H4.91016Z" fill="#E8BF13"/>
</g>
<g style="mix-blend-mode:multiply" opacity="0.2">
<path d="M11.716 42.1757C11.7667 46.4847 16.7615 49.5323 19.9784 51.4201C23.2969 53.3757 26.8101 55.4498 30.6705 55.9492C19.0726 53.5704 1.82812 48.0931 5.08738 32.8296C5.60378 30.4169 6.89055 29.6635 8.80378 31.6699C10.1752 33.1005 12.6556 39.4667 11.4281 40.5841L11.716 42.1757Z" fill="#E5AF17"/>
</g>
<g style="mix-blend-mode:multiply">
<path d="M46.9836 45.3672C48.2535 45.2402 50.209 44.3513 51.4196 44.9947C52.4355 45.5365 51.9191 46.5524 53.3328 46.908C51.0641 50.3619 46.5096 50.963 43.3604 52.8847C46.3233 53.7651 53.6715 50.1588 55.3307 47.4328C56.3974 45.672 55.3223 43.7841 53.4344 43.6402C51.2588 43.4794 49.0916 44.7154 47.1275 45.2656L46.9836 45.3757V45.3672Z" fill="#E8BF13"/>
</g>
<g style="mix-blend-mode:multiply">
<path d="M5.76445 31.2466C5.33271 36.6137 5.68826 40.855 8.65969 45.3587C10.1496 47.6106 12.2322 49.4984 14.3316 51.073C16.3549 52.5884 21.6036 55.6106 24.1264 54.7979C22.8311 52.7153 19.0385 52.3682 17.0745 50.8783C16.3549 50.3365 14.9158 49.2021 14.7295 48.2286C14.2893 45.9936 16.0078 47.873 16.9983 48.2286C18.175 48.6603 18.9539 48.7026 20.0121 49.3037C21.1295 49.9386 21.9084 50.3365 23.2121 50.5227C25.3454 50.836 28.1899 51.0984 29.8068 49.3799C28.5623 48.4487 25.4724 48.7958 23.8301 48.4148C21.9084 47.9577 20.3846 46.9841 18.7084 45.9767C16.3634 44.563 13.7983 44.0889 11.6311 42.6836C9.57398 41.346 7.8216 39.9407 7.38985 37.2571C7.04276 35.1153 7.0089 33.1175 6.15387 31.2042C5.97609 31.2804 5.88297 31.4074 5.72213 31.4921L5.75599 31.2381L5.76445 31.2466Z" fill="#E8BF13"/>
</g>
<g style="mix-blend-mode:multiply">
<path d="M25.7437 2.6582C23.1278 2.31111 19.0728 6.21376 17.2696 7.83069C14.4421 10.3704 11.1236 12.8931 9.52356 16.4233C7.43255 21.037 10.1754 25.981 14.9415 26.8952C17.2103 27.327 19.1236 27.928 20.9013 29.3757C23.1701 31.2212 25.0241 31.145 27.6823 32.0423C29.9934 32.8212 31.5849 34.4042 34.1246 34.6243C36.2156 34.8021 38.9331 34.819 40.9056 34.0656C37.9172 37.1217 30.2474 34.2265 26.9881 33.1852C22.696 31.8138 18.5733 31.4667 14.205 31.018C7.67806 30.3492 4.16483 20.9439 6.85689 15.509C8.63467 11.928 12.2156 9.6254 15.3648 7.25503C17.2611 5.8328 19.0135 4.75767 21.2654 4.0127C23.7881 3.1746 26.8273 3.31005 28.8759 1.41376L25.7267 2.64974L25.7437 2.6582Z" fill="#E8BF13"/>
</g>
</g>
<defs>
<clipPath id="clip0_612_117">
<rect width="69.2487" height="56" fill="white"/>
</clipPath>
</defs>
</svg>
