<svg width="77" height="64" viewBox="0 0 77 64" fill="none" xmlns="http://www.w3.org/2000/svg">
<g clip-path="url(#clip0_612_530)">
<path d="M50.3419 35.9028C50.3419 31.3093 40.1427 27.592 27.5617 27.592C17.4391 27.592 8.86461 29.9994 5.90438 33.3339C5.77678 33.4189 5.64068 33.47 5.51308 33.504C5.47906 33.6486 5.45354 33.8017 5.42802 33.9548C5.01971 34.5843 4.79004 35.2308 4.79004 35.9028C4.79004 36.3196 4.8751 36.7279 5.03672 37.1277C5.0027 37.6466 4.98569 38.174 4.98569 38.7099C4.98569 52.1756 15.0913 63.0893 27.5617 63.0893C40.0321 63.0893 50.1377 52.1756 50.1377 38.7099C50.1377 38.1825 50.1207 37.6551 50.0867 37.1277C50.2483 36.7279 50.3419 36.3111 50.3419 35.8943V35.9028Z" fill="#83A7A5"/>
<path d="M48.7761 34.9415C48.5465 35.0096 48.2828 35.0011 48.002 34.9075C43.0428 33.2828 38.1516 30.85 32.9967 30.195C32.2142 30.212 31.4316 30.1269 30.6915 30.0248C29.8494 29.9057 29.373 29.1997 29.2794 28.4597C22.5764 29.0296 15.8648 32.6703 9.10225 30.8329C9.09374 30.85 9.07673 30.8585 9.06822 30.8755C8.68543 31.3263 8.23459 31.4454 7.82629 31.3518C7.14577 31.8112 6.47377 32.262 5.78475 32.7129C5.64014 32.8064 5.49553 32.866 5.35092 32.9C5.01067 34.5843 4.83203 36.3196 4.83203 38.1059C4.83203 51.5716 14.9376 62.4853 27.408 62.4853C39.8784 62.4853 49.984 51.5716 49.984 38.1059C49.984 37.1022 49.9245 36.1239 49.8139 35.1542C49.4566 35.2393 49.0824 35.1797 48.7676 34.933L48.7761 34.9415Z" fill="#EEF7F7"/>
<path d="M50.1883 35.3073C50.1883 39.9008 39.9891 43.6181 27.4081 43.6181C14.8271 43.6181 4.62793 39.9008 4.62793 35.3073C4.62793 30.7139 14.8271 26.9966 27.4081 26.9966C39.9891 26.9966 50.1883 30.7224 50.1883 35.3073Z" fill="#B7CACA"/>
<g style="mix-blend-mode:multiply" opacity="0.32">
<path d="M48.495 34.865C48.495 38.7099 39.104 41.8318 27.5097 41.8318C15.9155 41.8318 6.52441 38.7099 6.52441 34.865C6.52441 31.0201 15.9155 27.8983 27.5097 27.8983C39.104 27.8983 48.495 31.0201 48.495 34.865Z" fill="#90C1BE"/>
</g>
<path d="M45.263 36.2601C45.7309 36.745 46.3178 37.2468 46.1987 38.0464C45.3566 38.6164 45.2375 38.6844 44.6846 38.8971C45.314 38.2506 45.5352 37.2553 45.1609 36.3622L45.2545 36.2516L45.263 36.2601Z" fill="#E07F00"/>
<path opacity="0.29" d="M46.1902 40.224C45.7139 42.1975 44.8462 44.137 43.8595 45.8723C42.3964 48.4242 40.8992 50.8911 38.8577 52.8816C36.0421 55.6291 33.303 58.4533 29.8324 60.112C28.7946 60.6054 27.7483 60.9712 26.6425 61.0392C25.8769 61.0902 23.963 60.6819 23.4951 61.0392C24.6945 60.8946 25.9109 61.7963 27.1614 61.7963C28.3523 61.7963 29.6367 61.8984 30.8872 61.7963C33.6433 61.5666 36.3568 60.6479 38.7216 58.8701C43.8169 55.0337 47.7639 50.168 48.9378 43.1758C49.1334 42.0359 49.3206 40.8705 49.4652 39.7221C49.5843 38.7949 49.8905 37.2808 49.6098 36.3876C49.1675 37.2553 48.8612 38.2165 48.1977 38.897C47.7129 39.3904 46.6496 40.3091 46.0286 40.3942L46.1817 40.224H46.1902Z" fill="#B7CACA"/>
<path opacity="0.29" d="M18.0593 42.5803C18.0082 43.7883 18.7398 45.0727 19.2331 46.102C19.9477 47.5906 20.8323 49.1133 21.7 50.4828C23.01 52.5584 24.6347 54.5233 26.3445 56.1651C27.7736 57.5346 29.4068 58.5128 30.989 59.5761C31.5674 59.9589 32.1118 60.2396 32.7668 60.3587C33.3027 60.4523 33.9747 60.3843 34.4001 60.6735C33.3963 61.4135 31.9757 61.3965 30.8274 61.7878C30.1724 62.009 29.628 61.8303 28.9645 61.8729C28.3265 61.9154 27.7566 62.1961 27.1016 62.1366C24.3795 61.8729 22.406 63.1403 12.3259 55.2889C11.2626 54.4553 10.6672 52.8731 9.91862 51.6822C9.08499 50.3637 8.3024 49.0963 7.64741 47.6332C6.87333 45.9064 6.33742 44.12 6.05671 42.2231C5.88658 41.0577 5.27412 38.6164 5.84405 37.5275C6.08223 37.0767 5.79301 37.1618 6.28639 37.2723C6.65216 37.3574 7.17105 38.0294 7.47728 38.2761C8.41299 39.0417 9.3572 39.5521 10.4035 40.071C12.0282 40.8706 13.7465 41.5681 15.4563 41.9849C16.1793 42.155 17.4893 41.9849 18.0593 42.4017C18.0507 42.2656 17.9912 42.1805 17.9232 42.07L18.0678 42.5718L18.0593 42.5803Z" fill="#B7CACA"/>
<path opacity="0.29" d="M11.646 41.3214C11.9097 42.2146 12.0373 43.2949 12.2585 44.2476C12.6413 45.8213 13.2878 47.2419 13.8066 48.756C14.6828 51.3249 16.0694 53.3069 17.4644 55.4931C19.0721 57.994 21.0711 60.2737 23.555 61.6262C18.264 60.4693 12.7944 56.9902 9.77461 51.8438C8.1669 49.1133 6.76334 46.3742 5.9127 43.1673C5.52141 41.6957 5.30875 40.2581 5.36829 38.7014C5.46186 36.5663 6.87393 37.8933 7.88619 38.7014C9.23871 39.7817 10.8975 40.2156 12.216 41.3044C12.2074 41.2193 12.1734 41.1428 12.1564 41.0577L11.6375 41.3129L11.646 41.3214Z" fill="#B7CACA"/>
<path opacity="0.16" d="M34.6215 43.1758C34.613 45.4045 34.3323 47.6076 33.5157 49.6577C32.7671 51.5546 31.304 53.426 30.0706 54.9742C28.9052 56.4458 27.3741 57.5686 25.6728 58.0705C24.8222 58.3172 24.1501 58.2662 23.2825 58.2576C22.5594 58.2576 21.964 58.4703 21.292 58.5213C22.0831 59.8398 24.2777 60.9882 25.6473 61.1243C27.6548 61.32 29.8154 61.5751 31.7974 61.0392C36.5355 59.7633 40.1422 57.2624 42.9663 52.72C44.9483 49.5386 47.245 43.8393 46.2328 39.9008C44.8377 41.4065 42.5665 41.466 40.8057 41.8913C38.6195 42.4272 36.7737 43.2523 34.5365 43.2523L34.613 43.1673L34.6215 43.1758Z" fill="#B7CACA"/>
<path opacity="0.56" d="M17.9913 43.2608C17.1236 43.1247 18.5953 45.8043 18.7909 46.102C19.8797 47.7182 20.96 49.4705 22.5507 50.4998C25.494 52.4137 29.8407 52.5243 32.9626 51.0952C35.9568 49.7172 38.3556 47.9053 40.0654 44.7495C41.3329 42.4102 39.521 42.793 38.0664 43.1673C36.2205 43.6436 34.3576 43.8223 32.4692 44.0094C30.4957 44.1965 28.4712 44.6304 26.4722 44.5198C24.6518 44.4177 22.7634 44.4687 20.9685 44.1625C19.9733 43.9924 18.3996 43.414 17.7616 43.3374L17.9828 43.2523L17.9913 43.2608Z" fill="white"/>
<path opacity="0.56" d="M47.9767 39.3819C47.0751 39.2543 46.973 41.6021 46.939 42.3251C46.8454 44.0094 46.4116 45.7617 45.8331 47.3184C45.3142 48.7475 44.7868 50.1935 44.0978 51.5291C43.4598 52.7795 42.5497 53.7747 41.8691 54.9316C42.5837 54.5999 43.3152 53.6471 43.8596 53.0347C44.5316 52.2691 45.2887 51.4695 45.8161 50.5678C46.7008 49.0707 47.5259 47.2758 48.0363 45.5576C48.4276 44.2391 48.7508 42.7675 48.8529 41.4064C48.8869 40.9726 49.04 37.6466 48.1299 38.9651L47.9767 39.3904V39.3819Z" fill="white"/>
<g style="mix-blend-mode:multiply" opacity="0.32">
<path d="M32.98 28.179C34.5707 28.4682 36.391 30.4332 37.7351 31.4455C38.8494 32.2876 39.7171 33.7592 40.959 34.159C42.8559 34.7715 45.8502 35.7497 46.1904 38.2761C47.1346 38.0039 48.1129 36.5408 48.4191 35.503C48.8019 34.2015 48.283 32.8405 47.3133 32.0239C45.5269 30.5183 43.1536 30.0589 41.1206 29.3274C39.7341 28.8255 38.4326 28.8935 36.995 28.6809C35.6255 28.4767 34.1113 28.2811 32.8184 28.0004L32.963 28.1705L32.98 28.179Z" fill="#689C9A"/>
</g>
<g style="mix-blend-mode:multiply" opacity="0.32">
<path d="M43.5791 30.5352C45.2038 31.2583 46.5989 34.5247 45.2549 36.1835C46.0119 36.6088 46.2246 37.2553 46.2841 38.174C46.9987 37.451 47.6622 37.1617 48.079 36.0304C48.4363 35.0777 48.4703 34.1249 48.0024 33.2148C47.1433 31.556 45.0677 30.4417 43.5791 30.3651V30.5352Z" fill="#689C9A"/>
</g>
<g style="mix-blend-mode:multiply" opacity="0.32">
<path d="M8.66037 37.9529C7.94583 36.1155 11.9013 35.3074 12.4627 34.4993C12.7519 34.0824 12.8455 33.3084 13.1177 32.815C13.4069 32.2876 13.7812 31.7772 14.1045 31.2838C14.5808 30.5608 15.1848 29.4039 16.0184 29.1998C15.1678 29.0552 13.5771 29.5911 12.6839 29.9313C11.6121 30.3396 10.5148 30.85 9.45997 31.2838C7.55453 32.0664 5.07917 34.5588 7.01863 36.779C7.44395 37.2638 8.20102 37.7062 8.58381 37.9614H8.65186L8.66037 37.9529Z" fill="#689C9A"/>
</g>
<path d="M14.7077 37.4425C14.7077 37.7657 14.478 38.0294 14.1888 38.0294C13.8996 38.0294 13.6699 37.7657 13.6699 37.4425C13.6699 37.1192 13.8996 36.8555 14.1888 36.8555C14.478 36.8555 14.7077 37.1192 14.7077 37.4425Z" fill="#F2B147"/>
<path d="M16.0522 36.5578C16.0522 36.6258 16.0012 36.6854 15.9416 36.6854C15.8821 36.6854 15.8311 36.6258 15.8311 36.5578C15.8311 36.4897 15.8821 36.4302 15.9416 36.4302C16.0012 36.4302 16.0522 36.4897 16.0522 36.5578Z" fill="#F2B147"/>
<path d="M20.7474 38.88C20.7474 39.1607 20.5432 39.3819 20.2965 39.3819C20.0499 39.3819 19.8457 39.1522 19.8457 38.88C19.8457 38.6078 20.0499 38.3696 20.2965 38.3696C20.5432 38.3696 20.7474 38.5993 20.7474 38.88Z" fill="#F2B147"/>
<path d="M23.8781 38.157C23.8781 38.2251 23.691 38.2846 23.4698 38.2846C23.2487 38.2846 23.0615 38.2336 23.0615 38.157C23.0615 38.0805 23.2487 38.0294 23.4698 38.0294C23.691 38.0294 23.8781 38.089 23.8781 38.157Z" fill="#F2B147"/>
<path d="M26.1916 38.2846C26.1916 38.3356 26.0045 38.3697 25.7833 38.3697C25.5621 38.3697 25.375 38.3356 25.375 38.2846C25.375 38.2421 25.5621 38.1995 25.7833 38.1995C26.0045 38.1995 26.1916 38.2336 26.1916 38.2846Z" fill="#F2B147"/>
<path d="M31.8653 38.5398C31.8653 38.5823 31.7462 38.6248 31.6016 38.6248C31.457 38.6248 31.3379 38.5908 31.3379 38.5398C31.3379 38.4887 31.457 38.4547 31.6016 38.4547C31.7462 38.4547 31.8653 38.4887 31.8653 38.5398Z" fill="#F2B147"/>
<path d="M32.9113 37.3574C32.9113 37.3999 32.7667 37.4425 32.571 37.4425C32.3754 37.4425 32.2393 37.3999 32.2393 37.3574C32.2393 37.3149 32.3924 37.2723 32.571 37.2723C32.7496 37.2723 32.9113 37.3064 32.9113 37.3574Z" fill="#F2B147"/>
<path d="M34.9189 38.3697C34.9189 38.4632 34.6978 38.5398 34.4341 38.5398C34.1704 38.5398 33.9492 38.4632 33.9492 38.3697C33.9492 38.2761 34.1619 38.1995 34.4341 38.1995C34.7063 38.1995 34.9189 38.2761 34.9189 38.3697Z" fill="#F2B147"/>
<path d="M37.8283 38.1995C37.8283 38.242 37.6497 38.2846 37.42 38.2846C37.1904 38.2846 37.0117 38.2505 37.0117 38.1995C37.0117 38.1485 37.1989 38.1144 37.42 38.1144C37.6412 38.1144 37.8283 38.1485 37.8283 38.1995Z" fill="#F2B147"/>
<path d="M42.4558 37.2808C42.4558 37.3744 42.2261 37.451 41.9369 37.451C41.6476 37.451 41.418 37.3744 41.418 37.2808C41.418 37.1873 41.6476 37.1107 41.9369 37.1107C42.2261 37.1107 42.4558 37.1873 42.4558 37.2808Z" fill="#F2B147"/>
<path d="M42.9749 38.4972C42.9749 38.4972 42.6772 38.4547 42.3114 38.4547C41.9456 38.4547 41.6309 38.4717 41.6309 38.4972C41.6309 38.5228 41.9371 38.5398 42.3114 38.5398C42.6857 38.5398 42.9749 38.5228 42.9749 38.4972Z" fill="#F2B147"/>
<path d="M36.0418 35.8007C36.0418 35.8687 35.7866 35.9283 35.4804 35.9283C35.1741 35.9283 34.9189 35.8687 34.9189 35.8007C34.9189 35.7326 35.1741 35.6731 35.4804 35.6731C35.7866 35.6731 36.0418 35.7326 36.0418 35.8007Z" fill="#F2B147"/>
<path d="M20.7471 35.4179C20.7471 35.554 20.4154 35.6731 19.9986 35.6731C19.5818 35.6731 19.25 35.5625 19.25 35.4179C19.25 35.2733 19.5818 35.1627 19.9986 35.1627C20.4154 35.1627 20.7471 35.2733 20.7471 35.4179Z" fill="#F2B147"/>
<path d="M24.1071 34.9586C24.1071 35.0777 23.8774 35.1712 23.5882 35.1712C23.299 35.1712 23.0693 35.0777 23.0693 34.9586C23.0693 34.8395 23.299 34.7459 23.5882 34.7459C23.8774 34.7459 24.1071 34.8395 24.1071 34.9586Z" fill="#F2B147"/>
<path d="M7.79222 37.0086C8.45572 35.7071 10.208 34.8735 11.4755 34.2866C14.0274 33.1042 16.8175 31.7517 19.6161 31.3689C22.5849 30.9606 25.5026 30.9265 28.2246 29.4294C29.5006 28.7234 30.768 27.2092 28.4713 26.9285C27.6292 26.8265 27.1783 27.1582 26.4383 27.4219C25.426 27.7792 24.5328 27.8472 23.461 27.8472C21.1983 27.8472 17.8553 28.0599 16.8345 25.4229C15.3034 21.4674 21.7597 18.941 24.5328 18.4561C28.1055 17.8352 32.7245 18.4136 34.4768 22.0884C35.2424 23.6876 35.8974 25.3889 37.3775 26.4692C38.3557 27.1837 39.4956 27.3879 40.5844 27.8642C42.9832 28.919 44.4974 30.8585 45.8329 33.1042C47.2024 35.4094 47.2024 36.9406 44.7441 38.2335C42.3197 39.5095 39.2659 40.2155 36.5949 40.811C33.5666 41.4915 29.9599 41.8233 26.8551 41.8062C24.082 41.7892 21.9894 41.6701 19.2589 41.2533C17.2258 40.9471 14.6569 40.5898 12.8195 39.7392C11.5521 39.1522 7.99638 38.3611 7.68164 36.7619L7.79222 36.9916V37.0086Z" fill="#FCF1C3"/>
<path d="M17.0557 22.8029C16.0945 23.6451 15.9244 25.0401 16.4688 26.214C17.0387 27.4389 18.5954 27.3538 19.0973 28.4171C19.5992 29.489 18.068 30.0249 17.3024 30.6288C16.4773 31.2753 15.7117 32.0324 14.9717 32.7809C16.4858 31.5645 18.8166 31.5815 20.6199 31.3093C22.6785 30.9946 24.8987 30.6799 26.8806 29.9908C27.7568 29.6931 32.1121 27.7366 29.7813 26.4862C27.8419 25.4399 24.9497 27.6346 23.0017 27.7281C20.4838 27.8472 16.1286 26.1715 17.396 22.8029H17.0643H17.0557Z" fill="#EDDEA2"/>
<path d="M16.4947 31.1648C15.7972 31.7942 14.7169 32.4577 14.1895 33.2318C15.8822 33.0532 17.558 32.0494 19.3103 31.8793C21.7431 31.6411 23.9208 31.8963 26.3196 31.1648C27.7997 30.7139 31.1938 29.7272 31.2278 27.7282C31.2533 26.4352 29.8327 25.9503 28.7779 26.1545C29.6201 26.4097 29.7392 27.3879 29.2458 28.1025C28.6163 29.0041 27.1107 29.2763 26.1154 29.455C24.848 29.6846 23.5465 29.7357 22.2705 29.9909C21.1307 30.2205 19.6591 31.1818 18.5192 31.0287C18.4342 30.212 19.3358 29.9994 19.3784 29.2338C18.4427 29.1743 16.4266 30.782 16.2735 31.7347L16.4947 31.1648Z" fill="#D6C580"/>
<path d="M33.0137 20.285C34.9021 21.8927 33.2859 24.5042 33.8218 26.4437C34.2471 27.9833 35.5401 28.145 36.3737 29.3018C37.2159 30.4842 37.0798 32.5087 36.6119 33.8017C35.1829 37.8082 31.0062 38.8205 28.2246 41.2193C29.7047 41.8913 32.2822 41.534 33.7708 41.1087C35.4976 40.6068 37.3775 40.4963 39.1553 40.105C41.6477 39.5691 47.8064 39.6881 47.0748 35.4009C46.4368 31.6751 42.694 28.919 39.5977 27.7281C37.6837 26.9966 36.4418 26.163 35.353 24.2916C34.681 23.1262 33.8984 20.8635 32.8946 20.0554L33.0052 20.285H33.0137Z" fill="#EDDEA2"/>
<path d="M76.4904 13.1737L76.1161 15.5555L19.6846 6.51315L19.8377 5.53491L76.4904 13.1737Z" fill="#E5BB07"/>
<path d="M32.9116 7.29574L32.716 8.60573L19.7607 6.53016L19.8373 5.53491L32.9116 7.29574Z" fill="#D11007"/>
<path d="M19.8806 6.12183C20.3314 6.23241 20.7567 6.41955 21.2076 6.50461C21.7945 6.6237 22.373 6.7513 22.9599 6.83636C24.3039 7.03201 25.6479 7.24467 26.9919 7.44032C28.2764 7.62746 29.5864 7.71252 30.8879 7.6785C31.2792 7.66999 31.6619 7.63597 32.0447 7.56792C32.2234 7.53389 32.5551 7.49136 32.7082 7.38077C32.7338 7.73804 32.7933 8.03577 32.5806 8.50362C32.1723 8.48661 31.764 8.35051 31.3642 8.29096C30.8964 8.22291 30.42 8.15486 29.9522 8.08681C28.9994 7.9507 28.0552 7.75506 27.111 7.61045C26.3369 7.49136 25.5799 7.31272 24.8058 7.19363C24.0657 7.07454 23.3172 6.95545 22.5686 6.84487C21.9391 6.7513 21.3182 6.64922 20.6887 6.58968C20.4675 6.57267 20.2464 6.55565 20.0337 6.53864C19.8976 6.52163 19.838 6.53864 19.821 6.40254C19.8125 6.29195 19.8806 6.19838 19.9741 6.18137C19.9571 6.17286 19.9401 6.15585 19.9231 6.14735L19.8891 6.12183H19.8806Z" fill="#F91515"/>
<path d="M76.8217 0.0908203L77.0004 2.48963L19.8969 5.68804L19.8203 4.70129L76.8217 0.0908203Z" fill="#E5BB07"/>
<path d="M32.9882 3.62946L33.0818 4.94795L19.9819 5.68801L19.8203 4.70126L32.9882 3.62946Z" fill="#D11007"/>
<path d="M20.0076 5.26269C20.467 5.26269 20.9263 5.36477 21.3942 5.35626C21.9896 5.34776 22.5851 5.35626 23.1805 5.30522C24.533 5.21165 25.8941 5.1351 27.2551 5.04153C28.5566 4.95646 29.8495 4.76081 31.1085 4.44608C31.4828 4.35251 31.8486 4.24192 32.2143 4.08881C32.3845 4.02076 32.6992 3.91017 32.8183 3.76556C32.9204 4.10582 33.048 4.38653 32.9459 4.88841C32.5461 4.95646 32.1123 4.90542 31.7039 4.93945C31.2276 4.97347 30.7512 5.0075 30.2834 5.04153C29.3221 5.10958 28.3609 5.12659 27.4082 5.18613C26.6256 5.23717 25.843 5.22016 25.0604 5.2712C24.3119 5.31373 23.5548 5.35626 22.7977 5.4073C22.1683 5.44983 21.5303 5.48386 20.9093 5.56042C20.6881 5.58593 20.4755 5.61996 20.2543 5.64548C20.1182 5.66249 20.0587 5.68801 20.0161 5.56042C19.9736 5.44983 20.0246 5.34776 20.1182 5.31373C20.1012 5.30522 20.0757 5.29672 20.0587 5.28821L20.0161 5.2712L20.0076 5.26269Z" fill="#F91515"/>
<path d="M9.2388 38.2676C8.62633 35.9113 16.9286 35.7497 18.2811 35.7497C22.7385 35.7497 27.5191 35.5626 31.1513 32.5428C32.725 31.2328 33.7202 28.3917 32.5464 26.4692C31.3555 24.5212 28.5058 24.7594 26.6344 25.2103C24.2866 25.7802 20.2801 26.9626 18.6639 24.3851C19.6677 25.7377 22.3046 25.6866 23.7762 25.4569C25.6306 25.1677 27.4 24.7169 29.3309 24.7424C31.3214 24.7679 32.6825 26.248 33.2184 28.2045C33.8393 30.4927 32.2827 32.2706 30.5644 33.3594C27.1278 35.52 23.4785 36.2005 19.5145 36.2005C17.4985 36.2005 15.8398 36.2005 13.9599 36.9151C13.0497 37.2553 12.4542 37.6466 11.7312 38.4037C10.8465 39.3394 11.0592 39.0502 10.0044 38.2846C9.70665 38.0719 9.49399 37.8763 9.13672 37.7997L9.2473 38.2591L9.2388 38.2676Z" fill="#D6C580"/>
<g style="mix-blend-mode:multiply">
<path d="M10.9146 34.5417C10.3021 35.3584 11.6462 37.0511 12.0885 37.8678C12.7009 38.9991 13.2539 39.5775 14.1726 40.3686C13.3815 40.122 12.5478 39.586 11.8418 39.2458C10.9231 38.8035 9.97039 38.4887 9.07722 38.0379C8.16703 37.587 7.58009 36.8895 8.57534 36.1495C8.93261 35.8858 11.1188 34.848 10.8295 34.6268L10.9146 34.5417Z" fill="#EDDEA2"/>
</g>
<path d="M12.3434 39.0077C12.6156 38.2251 14.8272 37.4935 15.6098 37.2894C16.9368 36.9321 18.2638 36.8896 19.6249 37.0087C22.7297 37.2894 25.809 36.9916 28.7522 35.9113C31.84 34.78 34.426 33.2488 34.7833 29.6421C35.0214 27.2688 34.4515 24.5893 32.1208 23.6111C30.8193 23.0581 29.6624 22.5733 28.2503 22.5137C26.9659 22.4627 25.9791 22.9476 24.7372 23.1347C23.7675 23.2793 22.3129 23.6451 21.6409 22.7689C21.0284 21.9778 21.4622 21.0166 22.2874 20.5317C23.4697 19.8342 24.3459 20.7104 25.4688 20.7104C25.7665 20.7104 26.5321 20.6508 25.9962 20.2085C25.6729 19.9448 25.2476 20.2085 24.9073 20.1915C23.4697 20.1404 21.9216 19.6981 20.8923 21.1357C19.5993 22.939 22.1172 24.1385 23.5888 24.0619C25.2476 23.9683 26.8383 23.2878 28.5055 23.2027C29.824 23.1347 31.738 23.5685 32.7758 24.4107C34.3154 25.6611 34.2304 28.4087 33.9411 30.229C33.2776 34.4312 28.5651 35.6221 25.137 36.2771C23.4868 36.5918 21.9811 36.8725 20.2969 36.6854C18.8338 36.5238 17.5153 36.3281 16.0266 36.7705C14.4274 37.2468 13.4322 38.2761 12.0967 39.0927L12.3519 39.0077H12.3434Z" fill="#D6C580"/>
<path d="M15.0145 39.9518C15.3888 39.4244 16.333 39.3479 16.9369 39.1778C18.1278 38.846 19.3102 38.4377 20.5351 38.3186C22.8319 38.0889 24.8904 38.6163 27.1531 38.7524C30.292 38.9396 35.6255 37.7402 37.0291 34.3631C38.6453 30.4842 35.9317 25.2528 32.9205 23.0241C31.3808 21.8842 29.7986 22.0203 28.0633 21.6716C27.6635 21.595 27.2637 21.7396 27.2212 21.2207C27.1957 20.8635 27.7486 20.4637 28.0633 20.3786C28.8544 20.1574 29.7476 20.7954 30.4621 21.0421C29.9602 20.7274 29.016 20.2595 28.3951 20.2765C27.9612 20.285 26.6512 20.6848 26.5492 21.2207C26.3535 22.233 30.6578 22.5562 31.4063 22.7859C35.0216 23.9002 37.4969 29.7186 36.5952 33.2318C35.5915 37.1617 30.4536 38.242 26.966 38.3867C25.5369 38.4462 24.2695 37.7061 22.8659 37.57C21.2157 37.3999 19.7696 37.7657 18.1959 38.1315C17.4813 38.2931 14.5807 39.1012 14.8273 40.0454L14.9975 39.9603L15.0145 39.9518Z" fill="#D6C580"/>
<path d="M19.9563 40.811C22.7379 38.9226 27.0081 40.4282 30.0789 39.9348C33.0647 39.45 37.2753 38.242 39.0617 35.469C41.0182 32.4407 38.7469 29.0636 36.7054 27.0051C37.5731 26.7499 38.5598 27.9238 39.2063 28.3576C40.5333 29.2593 43.0512 29.8632 43.2298 31.8537C42.5833 31.0116 41.7412 30.5097 40.8735 29.9653C40.1675 29.523 39.5125 28.6553 38.7129 28.4512C38.9596 29.4634 39.6826 30.3566 39.8698 31.4709C40.0569 32.5853 40.2186 33.8783 39.7847 34.9501C39.0106 36.864 37.0542 38.0379 35.3274 38.9481C33.49 39.9093 31.7121 40.19 29.7131 40.3857C28.7519 40.4792 25.4514 40.2751 25.0516 41.3384C25.3579 41.4575 25.7492 41.449 25.9618 41.6531C25.0346 42.0529 23.5885 41.6021 22.6868 41.4319C21.9893 41.2958 19.8627 41.3809 19.5225 41.0662L19.9393 40.811H19.9563Z" fill="#D6C580"/>
<path d="M32.6821 40.9896C34.4089 40.3516 36.1187 40.4622 37.786 39.467C39.1215 38.6674 40.7377 37.7231 41.6224 36.3706C42.1157 35.6221 42.3539 34.5162 42.2263 33.5975C42.1327 32.9 41.7329 32.3726 41.818 31.6326C42.2774 31.6326 42.3964 32.2195 42.7282 32.5002C43.1195 32.832 43.6044 32.8745 43.9871 33.2743C44.9484 34.261 45.161 35.5115 45.161 36.8385C45.161 35.5285 45.144 34.4227 44.2679 33.4104C43.7745 32.8405 42.1072 31.3689 41.3246 31.556C41.2566 32.9766 41.6479 34.3291 40.9759 35.6646C40.3804 36.864 39.1045 37.7146 38.0242 38.4122C37.0459 39.0416 36.0762 39.6966 35.0299 40.1985C34.545 40.4282 32.5375 40.9556 32.5205 41.2533L32.6906 40.9981L32.6821 40.9896Z" fill="#D6C580"/>
<path d="M22.3803 6.61523C22.2187 6.59822 22.0656 6.58121 21.921 6.54718C21.0958 7.56795 20.2962 9.82215 20.8662 10.8344C22.2867 10.5027 21.334 7.66152 22.3803 6.61523Z" fill="#FCF1C3"/>
<path d="M25.9111 7.14266C25.6729 7.13415 25.4262 7.09162 25.1795 7.02357C25.0349 6.98104 24.8988 6.95552 24.7542 6.93851H24.7712C24.7117 6.93 24.6521 6.91299 24.5926 6.90448C24.8818 7.44889 24.9158 8.22297 24.8223 8.87797C24.3799 11.8382 23.0274 14.5688 21.139 16.8485C19.8375 18.4222 18.2298 18.9921 17.4557 21.0591C17.1835 21.7907 16.8092 23.8152 17.9576 24.0619L17.4557 23.3729C18.1618 23.56 18.0512 24.4872 19.1145 24.3086C19.0889 23.6621 18.519 23.1687 18.3744 22.5137C18.1958 21.7141 18.4169 21.1782 18.7742 20.4722C19.7695 18.5157 21.6919 16.925 23.0614 15.2323C24.7712 13.1142 26.3619 10.3411 25.9962 7.4574C25.9791 7.33831 25.9451 7.23623 25.9196 7.13415L25.9111 7.14266Z" fill="#FCF1C3"/>
<path d="M23.0278 5.85817C23.2744 5.22019 24.3292 6.34304 24.4653 6.67479C24.712 7.26173 24.644 8.01029 24.644 8.66529C24.644 9.44788 24.6014 10.0944 24.4058 10.8429C24.2016 11.634 23.6657 12.323 23.4786 13.0631C24.4313 12.5697 24.7205 10.5962 24.9927 9.63502C25.0608 9.38833 25.1969 8.52918 25.6392 8.73334C26.005 8.90347 25.7583 9.89021 25.7073 10.1539C25.1373 12.91 23.1383 15.1387 21.301 17.1292C20.3993 18.1074 19.5061 19.0346 18.9617 20.2935C18.4343 21.5185 18.2216 23.6366 19.4466 24.5297C19.3785 23.7812 18.8851 23.1432 18.8426 22.3606C18.8001 21.578 18.9362 20.889 19.2849 20.2C19.8634 19.0601 20.731 18.201 21.5732 17.2653C22.5939 16.1424 23.7763 15.2407 24.644 13.9903C25.5201 12.7228 26.3197 11.4043 26.5409 9.8817C26.711 8.75886 26.7025 7.18517 25.8604 6.33453C24.9502 5.39883 23.9379 5.31376 22.8661 5.91772C22.9087 5.87518 22.9257 5.82415 22.9087 5.7646L23.0192 5.87518L23.0278 5.85817Z" fill="#D6C580"/>
<path d="M20.0163 23.8917C19.2167 22.0714 20.8499 19.9107 22.0153 18.7539C23.2658 17.5034 24.6693 16.5422 25.7581 15.1472C27.3659 13.0971 28.3611 10.4771 27.8422 7.84866C27.57 6.47912 26.5748 5.49238 25.1542 5.63699C26.0474 6.52166 26.4387 7.19366 26.5577 8.52917C26.6683 9.77961 26.1664 10.8174 25.6135 11.9232C25.0606 13.0376 24.3801 14.0328 23.538 14.9175C22.6448 15.8447 21.641 16.6443 20.918 17.7161C20.1099 18.907 19.4039 19.9278 19.0721 21.3823C18.9105 22.0714 18.9445 22.8114 19.1316 23.5004C19.2167 23.7897 19.3443 24.2745 19.591 24.4787C19.9227 24.7509 20.4501 24.4872 20.0248 24.249V23.9088L20.0163 23.8917Z" fill="#FCF1C3"/>
<path d="M22.3042 6.82793C21.7683 7.50844 21.6747 8.83544 21.6322 9.70309C21.5386 12.0253 19.361 12.6293 17.9999 14.0584C17.2088 14.892 16.6474 15.9638 16.6644 17.1377C16.6729 17.8267 16.9707 18.6348 17.7703 18.6263C18.5699 18.6263 18.085 18.201 17.7703 17.8948C17.43 17.5545 17.2599 17.3333 17.2854 16.7889C17.396 14.4156 20.1606 13.4884 21.4706 11.9828C22.1766 11.1747 22.049 10.256 22.3042 9.28628C22.5168 8.49518 22.7976 7.75512 23.2909 7.11714C22.9507 7.01507 22.6274 6.77689 22.2617 6.82793C22.2617 6.90448 22.2276 6.89598 22.1936 6.93L22.3042 6.81091V6.82793Z" fill="#FCF1C3"/>
<path d="M23.7507 7.11712C23.1808 7.86569 22.8915 8.86944 22.7044 9.91573C22.4747 11.2002 21.8963 12.0593 21.2413 13.1397C20.7649 13.9308 19.2763 16.6698 20.7735 17.2483C20.5523 17.3929 20.0504 17.9968 19.8463 17.9968C19.5826 17.9968 19.0977 17.2993 18.9956 17.0781C18.5193 16.0744 18.834 14.7814 19.472 13.9223C20.127 13.0376 21.0627 12.4762 21.5986 11.4639C22.0919 10.5282 22.2366 9.41385 22.6023 8.42711C22.7895 7.93374 23.0872 7.42335 23.1552 6.88745C23.4104 6.91297 23.6316 7.01505 23.8698 7.11712C23.8613 7.24472 23.7847 7.18518 23.7082 7.2192L23.7677 7.10862L23.7507 7.11712Z" fill="#D6C580"/>
<path d="M6.72041 33.6911C8.44721 33.6145 9.81674 34.8905 10.5993 36.3876C10.6844 36.5493 10.7695 36.7279 10.8375 36.9065C11.1267 36.8215 11.433 36.7619 11.7562 36.7619C11.8498 36.7619 11.9519 36.7619 12.0454 36.7789C11.501 34.6864 9.53603 32.9 7.6391 32.1344C4.77245 30.9776 1.02112 33.1042 0.23853 36.1324C-0.595098 39.3394 0.876511 42.3506 3.32636 44.3326C3.59856 44.5538 3.93882 44.7324 4.32161 44.8685C4.22803 44.4687 4.13446 44.0774 4.00687 43.6776C3.88778 43.2948 3.85375 42.9035 3.87927 42.5208C2.95207 41.8828 2.25455 40.9045 2.0504 39.6031C1.88027 38.5568 2.4502 36.5663 3.00311 35.6901C3.7772 34.4652 5.36789 33.7506 6.72041 33.6911Z" fill="#9DA035"/>
<path d="M7.26464 33.589C8.99144 33.5125 10.361 34.7884 11.1436 36.2856C11.2286 36.4472 11.3052 36.6173 11.3817 36.7959C11.5008 36.7789 11.6284 36.7619 11.756 36.7619C12.0537 36.7619 12.3515 36.813 12.6407 36.898C12.1813 34.7119 10.1483 32.8235 8.19184 32.0409C5.33369 30.884 1.57385 33.0106 0.791265 36.0389C-0.0423634 39.2458 1.42924 42.2571 3.87909 44.2391C3.98967 44.3241 4.10876 44.4007 4.22785 44.4772C4.1598 44.2135 4.09175 43.9498 4.00669 43.6946C3.83656 43.1502 3.82805 42.5888 3.95565 42.0529C3.27514 41.4319 2.77326 40.5813 2.60313 39.518C2.433 38.4717 3.00293 36.4812 3.55585 35.605C4.32993 34.3801 5.92063 33.6656 7.27315 33.606L7.26464 33.589Z" fill="#9DCC09"/>
<g style="mix-blend-mode:multiply">
<path d="M30.3848 34.4822C30.8526 35.2563 30.4273 36.4302 31.4991 36.5408C32.2221 36.6173 33.7533 35.537 34.3743 35.1457C35.2504 34.5928 36.0245 33.6231 36.9942 33.2573C37.8364 32.9341 39.1038 33.2233 38.6275 34.3802C38.3297 35.0947 36.8666 35.6391 36.3903 36.4132C35.9054 37.1958 35.5567 38.0975 35.7438 39.0757C36.1436 41.1428 39.3335 40.9556 40.9072 40.3091C43.3145 39.3224 44.1566 37.5616 43.6633 34.9246C43.306 32.9766 41.5792 31.4369 39.6482 31.1732C37.7683 30.9181 36.0075 31.573 34.3147 32.2961C33.0983 32.815 31.2609 33.3679 30.6059 34.3802L30.3848 34.4907V34.4822Z" fill="#D6C580"/>
</g>
<path d="M36.9349 39.484C36.9349 39.484 36.9178 39.3989 36.8923 39.4415C37.3857 40.6409 38.5426 40.9131 39.6994 40.5218C40.2268 40.3432 40.7542 40.1985 41.2136 39.8668C41.707 39.5095 41.6899 39.2799 41.6899 38.7184C41.6984 39.6031 42.7107 38.7354 42.9149 38.4888C43.2891 38.0549 43.6719 37.5616 43.8421 37.0001C44.0377 36.3707 44.1653 35.9198 43.8931 35.2903C43.706 34.8565 43.8165 34.9501 43.9697 34.5673C44.0973 34.2526 43.9441 33.9804 43.9186 33.6571C43.8846 33.1382 43.8761 32.7639 43.6124 32.3046C43.4508 32.0154 43.0169 31.3093 42.6341 31.471C42.4895 30.8585 42.3619 30.5268 41.792 30.1185C41.2476 29.7272 40.7883 29.8207 40.1418 29.7697C39.5633 29.7272 38.9764 29.6506 38.3809 29.5911C37.8961 29.54 37.2326 29.6081 36.8583 30.0164C36.4075 30.5012 36.9519 31.2073 37.4112 31.4369C37.743 31.5986 37.845 31.539 38.1598 31.3944C38.4575 31.2583 38.5681 31.2583 38.7042 31.6071C38.8233 31.9218 38.8233 32.1004 39.0785 32.3897C39.2911 32.6278 39.3337 32.8915 39.5208 33.1297C39.725 33.3849 39.9631 33.3679 40.0312 33.7337C40.0822 33.9974 40.0737 34.3121 40.1077 34.5758C40.1588 34.9671 40.0992 35.9453 39.5208 35.7242C39.2486 35.6221 39.2146 35.4179 38.8488 35.4605C38.4915 35.503 38.2704 35.6901 38.0747 35.9879C37.7004 36.5493 37.4027 37.2043 37.173 37.8423C37.0454 38.208 36.7647 38.9906 36.8753 39.3564L36.9093 39.467L36.9349 39.484Z" fill="#FFE3D2"/>
<path d="M38.0834 39.5265C38.0834 39.1778 37.6921 39.7562 37.5304 39.7987C37.3178 39.8498 37.0371 39.6371 36.8839 39.4585C36.5947 39.1097 36.7734 38.2676 36.7649 37.8423C36.7478 37.1958 36.7393 36.6344 37.0796 36.0644C37.3688 35.5881 38.0238 35.1542 38.5937 35.1798C39.0956 35.2053 39.7166 35.4775 39.9463 34.7544C40.1504 34.0995 39.1977 34.0995 39.4529 33.3509C39.5039 33.1978 39.674 33.1723 39.5635 32.9936C39.4444 32.798 39.3508 32.9681 39.2062 32.9426C38.7724 32.866 39.0276 32.7725 38.7979 32.4492C38.5852 32.1515 38.5002 32.4917 38.2365 32.5683C37.9728 32.6449 37.6665 32.4832 37.4879 32.3046C37.2752 32.0919 37.2752 31.8793 37.1562 31.6241C37.0371 31.3774 36.8499 31.2243 36.6373 31.0542C36.4161 30.8755 36.1439 30.782 36.1184 30.5012C36.1014 30.3311 36.2715 29.8888 36.3991 29.7527C36.8244 29.3189 37.4879 29.54 38.0238 29.5911C38.6618 29.6421 39.3083 29.5655 39.9377 29.6506C40.2525 29.6931 40.7714 29.9313 41.0351 29.8462C40.9075 30.0079 40.6608 30.0164 40.6012 30.229C40.4396 29.7357 39.5805 29.7782 39.1041 29.7867C38.5597 29.7867 37.8367 29.6676 37.3348 29.8462C37.0711 29.9398 36.8329 30.2035 36.9945 30.5353C37.0881 30.7309 37.4539 30.8755 37.6325 31.0286C37.9047 31.2753 38.0578 31.3264 38.4236 31.1477C38.6533 31.0286 39.0106 30.6629 39.2232 31.0116C39.3508 31.2243 39.0786 31.505 39.1211 31.7432C39.1467 31.8623 39.2828 31.9303 39.3168 32.0409C39.3678 32.1855 39.2998 32.3216 39.3848 32.4747C39.606 32.2025 39.7166 31.8963 40.0653 31.7006C40.4141 31.505 41.001 31.3944 41.4008 31.4625C41.1371 31.9133 40.3035 32.1004 40.2865 32.7299C40.6778 32.832 40.7544 32.7469 41.1201 32.5683C41.4349 32.4067 41.9027 32.4067 42.1239 32.7554C42.4727 33.2999 41.2137 33.487 40.8649 33.6997C39.7506 34.3887 41.3668 34.3887 41.8092 34.5248C42.1154 34.6183 42.7704 34.78 42.9065 35.0777C43.0511 35.3839 42.881 35.7327 42.5662 35.6731C42.243 35.6136 41.6475 34.8565 41.3328 35.2648C41.1712 35.469 41.5114 35.6306 41.1201 35.6476C40.933 35.6476 40.7969 35.3669 40.6012 35.5626C40.8479 35.8092 41.2818 36.6003 40.9585 36.9576C40.7374 37.1958 40.7459 36.8555 40.6523 36.6939C40.5332 36.4898 40.4396 36.3877 40.2355 36.2856C40.1079 36.5833 40.1334 36.9916 39.9718 37.2894C39.8357 37.536 39.4614 37.8848 39.3593 37.451C39.3253 37.3064 39.4784 37.0512 39.4784 36.8981C39.4784 36.7194 39.4189 36.4132 39.3168 36.2516C39.0956 35.8858 38.9595 36.1665 38.6533 36.1495C38.5257 36.4217 38.7979 36.7364 38.8574 36.9916C38.9255 37.2894 38.883 37.6296 38.8234 37.9273C38.7469 38.3186 38.4066 39.1438 38.0238 39.3564L38.0919 39.5095L38.0834 39.5265Z" fill="#FFC29B"/>
<path opacity="0.51" d="M37.6573 40.4197C37.249 40.0369 36.577 39.552 37.3426 39.1778C38.0146 38.846 38.1932 38.3441 38.2613 37.6041C38.3123 37.0682 38.0316 36.3281 38.6015 35.9453C39.4437 35.3669 39.3756 36.881 39.4266 37.2893C39.4607 37.5615 39.6563 37.7402 39.6903 37.9954C39.7244 38.2336 39.6223 38.5058 39.5202 38.7014C39.4436 38.5058 39.3926 38.2931 39.3161 38.0974C39.231 38.2165 39.265 38.3867 39.1629 38.5228C39.1119 38.5993 38.9928 38.4292 38.9163 38.5228C38.8652 38.5823 38.8992 38.7354 38.8652 38.8035C38.7121 39.0587 38.1507 39.3309 38.542 39.6626C38.7376 39.8328 38.8567 39.535 38.8567 39.9263C38.8567 40.105 38.7291 40.2921 38.5845 40.4027C38.2953 40.6153 37.8785 40.5983 37.6488 40.3176V40.4282L37.6573 40.4197Z" fill="#FFC29B"/>
<path opacity="0.51" d="M40.1496 39.3479C40.1241 39.4159 40.0901 39.4755 40.0305 39.518C39.5712 39.3479 39.9285 38.9481 40.0305 38.7269C40.2347 38.3186 39.9285 38.174 39.9795 37.8167C39.9965 37.6891 40.2007 37.57 40.2007 37.4935C40.2092 37.3489 40.0561 37.3234 40.0305 37.2043C39.954 36.9236 39.9115 36.2686 40.1581 36.0389C40.5069 35.7071 40.5664 36.4557 40.7111 36.7279C40.9407 37.1617 41.1449 36.83 41.3235 37.3659C41.5022 37.9188 41.8254 38.6078 41.4851 39.1437C41.3916 39.2883 41.3746 39.4244 41.1534 39.3819C41.1789 39.2203 41.2555 39.0587 41.2725 38.88C41.298 38.5483 41.2385 38.6759 41.1023 38.4802C40.9748 38.2931 40.9407 38.2761 40.9067 37.9869C40.8812 37.8082 40.9067 37.6806 40.7706 37.553C40.3027 37.6466 40.7451 38.3867 40.5494 38.6589C40.5069 38.7184 40.3198 38.6589 40.2687 38.7269C40.2177 38.795 40.2857 38.9396 40.2517 39.0161C40.1837 39.1863 40.1241 39.3224 39.9795 39.4414L40.1241 39.3394L40.1496 39.3479Z" fill="#FFC29B"/>
<path opacity="0.51" d="M41.6131 38.7099C41.4685 38.4377 41.494 38.089 41.4345 37.7912C41.3579 37.3914 41.1708 37.3829 40.9921 37.1107C40.8305 36.8555 41.0432 36.5238 40.9496 36.2431C40.8646 35.9794 40.4988 35.8348 40.4562 35.5711C40.3967 35.1202 40.7284 35.5115 40.9666 35.3669C41.2644 35.1798 41.0432 34.6864 41.5281 34.8225C41.8343 34.9076 41.9023 35.1713 42.2766 35.1287C42.5828 35.0947 42.7955 34.882 43.1102 34.9416C44.1055 35.1372 43.8163 36.9321 43.1443 37.3489C43.2123 37.0342 43.2974 36.5238 43.0422 36.2686C42.9571 36.4472 42.9656 36.7449 42.7189 36.6854C42.5403 36.6429 42.4808 36.3536 42.3872 36.2261C42.2511 36.0474 41.9874 35.8433 41.7492 35.8773C41.3324 35.9283 41.5791 36.0899 41.5876 36.3792C41.6046 36.7364 41.494 36.6684 41.6727 36.9916C41.7918 37.2043 41.8428 37.2553 41.8683 37.519C41.9193 37.9784 41.8258 38.3441 41.5791 38.7439L41.6131 38.7099Z" fill="#FFC29B"/>
<path opacity="0.51" d="M43.612 35.4435C43.0251 34.9246 42.5487 35.3584 41.9277 35.0096C41.647 34.848 41.3833 34.6439 41.0771 34.5248C40.8304 34.4227 40.4561 34.5248 40.2605 34.4057C39.4949 33.9634 41.2047 33.4955 41.4088 33.4104C41.7066 33.2913 41.9107 33.1893 42.0468 32.9171C42.1149 32.7895 42.1149 32.6534 42.2084 32.5258C42.3105 32.3982 42.4977 32.3471 42.5827 32.2195C42.6763 32.0749 42.6082 31.7687 42.7699 31.6666C43.008 31.522 43.1867 31.8453 43.2973 32.0069C43.646 32.4917 43.8417 32.9171 43.7821 33.521C43.544 33.2913 43.6375 32.8235 43.3568 32.6023C43.1952 32.8915 43.4334 33.6911 42.906 33.1297C42.7018 33.3764 42.5572 33.5295 42.2255 33.5976C41.9618 33.6486 41.63 33.555 41.4939 33.8698C41.4939 33.8698 41.5364 33.9293 41.5364 33.9378C41.8257 33.8698 42.0553 33.9123 42.319 34.0484C42.234 34.1335 42.1064 34.2185 42.0298 34.3206C42.4636 34.3802 42.7529 34.176 43.1782 34.4057C43.4249 34.5333 43.9863 35.0862 43.6886 35.3669L43.612 35.435V35.4435Z" fill="#FFC29B"/>
<path opacity="0.51" d="M37.5898 32.0154C37.6663 31.6411 37.3601 31.6156 37.1389 31.4199C36.9263 31.2243 36.8072 30.9265 36.7647 30.6458C36.7476 30.5012 36.7647 29.9483 36.9858 29.8973C37.2155 29.8377 37.4537 30.4672 37.6068 30.6033C37.7429 30.4672 37.7939 30.0674 38.0151 30.1099C38.0917 30.3396 38.1087 30.5778 38.1852 30.7989C38.4915 30.4502 38.6871 29.9993 39.274 30.229C39.2655 30.3651 39.0784 30.6714 39.1465 30.7989C39.274 31.0286 39.4102 30.7224 39.5888 30.6714C39.6568 30.8415 39.5633 31.0201 39.5718 31.2073C39.878 31.1307 40.1332 30.7139 40.482 30.6033C40.7457 30.5097 41.3581 30.4502 41.5793 30.6373C41.3836 30.8415 41.1114 30.9436 40.9498 31.1902C41.1114 31.1902 41.3921 31.0286 41.5538 31.1222C41.6133 31.1562 41.8175 31.5645 41.826 31.6326C41.86 32.0239 41.7154 31.7176 41.5282 31.9048C41.4007 32.0324 41.4942 32.1515 41.3496 32.3046C41.205 32.4577 40.8647 32.4662 40.6861 32.6193C40.516 32.7554 40.3884 33.1552 40.1247 33.1382C39.5122 33.0957 40.0907 32.16 40.0907 31.9048C39.7844 32.0239 39.7334 32.4832 39.4272 32.6023C39.3251 32.4917 39.2826 32.3471 39.24 32.2025C39.1975 32.245 39.1124 32.2621 39.0699 32.3046C38.7381 32.0239 38.8572 31.556 38.3554 31.8708C38.1852 31.9813 38.2533 32.1174 37.9981 32.0749C37.845 32.0494 37.7004 31.8793 37.6493 31.7347L37.6068 32.0239L37.5898 32.0154Z" fill="#FFC29B"/>
<path d="M37.1385 39.8158C36.7047 39.8498 36.7982 38.2336 36.8748 37.9103C37.0109 37.3404 36.8238 36.796 37.1045 36.2771C37.3852 35.7667 37.9466 35.1372 38.5931 35.2478C38.7377 35.2733 38.8738 35.3499 39.0184 35.3754C39.146 35.3924 39.3757 35.3329 39.4863 35.3924C39.7159 35.5115 39.8776 36.0474 39.9541 36.2856C40.0817 36.7109 40.2433 37.2979 39.8776 37.6551C39.733 37.0767 39.8776 36.4387 39.4778 35.9198C39.4437 36.0644 39.4352 36.2005 39.3502 36.3026C39.1715 36.158 39.2396 35.7497 39.0439 35.6391C38.6867 35.4435 38.5931 35.9879 38.5165 36.1835C37.5808 35.8007 37.8275 37.0172 37.5128 37.6041C37.3086 37.9869 37.3086 38.3442 37.1725 38.7184C37.0364 39.0757 36.7727 39.45 37.0024 39.8413C37.079 39.8158 37.13 39.7732 37.181 39.7052L37.1385 39.8158Z" fill="#E8865B"/>
<path d="M37.9469 40.5388C37.5641 40.7515 36.8836 40.0369 36.756 39.6967C36.5518 39.1097 36.6284 38.4122 36.705 37.7997C36.8241 36.847 37.1558 35.1628 38.4573 35.2138C38.8401 35.2308 38.9932 35.3329 39.3845 35.2393C39.8779 35.1202 39.7247 35.0011 39.9289 34.5843C40.1501 34.1505 40.2691 34.6694 40.6094 34.6524C40.8136 34.6354 40.9752 34.4907 41.2134 34.5163C41.443 34.5418 41.6897 34.6524 41.8513 34.7885C41.6387 34.9586 41.1878 34.7374 40.9241 34.7629C40.8136 34.7715 40.5073 34.8055 40.4138 34.8565C40.2521 34.9501 40.2862 35.0522 40.1501 35.1798C40.0905 35.1287 40.0225 35.1287 39.9799 35.1032C39.9629 35.4094 40.082 35.6391 40.048 35.9709C40.0054 36.4217 39.9629 36.4217 39.8098 35.9964C39.7758 35.8943 39.7247 35.7327 39.6397 35.6476C39.4355 35.4775 39.5291 35.5966 39.3334 35.6051C38.9847 35.6051 38.9081 35.554 38.5849 35.435C37.4705 35.0437 36.9261 37.1532 36.9346 37.9188C36.9431 38.4888 36.8751 38.9991 37.0622 39.5265C37.1643 39.8072 37.5556 40.5728 37.9469 40.3942V40.5388Z" fill="#D1592F"/>
<path d="M39.9035 34.9075C39.9801 34.3716 39.6228 34.4142 39.4357 33.9803C39.2911 33.6316 39.5292 33.1382 39.8695 32.9255C39.8014 33.0701 39.6058 33.3509 39.6313 33.521C39.6909 33.9123 39.8695 33.504 40.0651 33.4359C40.0226 33.538 39.9801 33.6741 39.9546 33.7847C40.1842 33.6826 40.4479 33.4699 40.7116 33.5295C40.5415 33.7847 40.0737 33.8698 40.0481 34.227C40.3714 34.0229 40.5585 34.3461 40.3203 34.5673C39.9971 34.3631 40.0481 34.7799 39.912 34.9501V34.916L39.9035 34.9075Z" fill="#E8865B"/>
<path opacity="0.72" d="M41.6472 39.0417C41.6812 38.6844 41.477 38.4377 41.4855 38.123C41.4855 37.9784 41.7237 37.9784 41.6131 37.7657C41.5281 37.5956 41.3409 37.6636 41.1878 37.6721C41.1963 37.502 41.426 36.7109 40.9666 36.9746C40.8135 36.83 40.8476 36.6429 40.6859 36.4982C40.5243 36.3536 40.3542 36.4472 40.3031 36.2005C40.2776 36.0559 40.4222 35.8603 40.3627 35.6391C40.3031 35.4435 40.1841 35.2478 40.082 35.0862C39.9033 35.2733 40.065 35.6051 40.0905 35.8177C40.1245 36.0814 40.0565 36.3366 40.065 36.6173C40.3712 36.5918 40.4648 36.5493 40.6604 36.83C40.8816 37.1617 40.771 37.1617 41.1963 37.1362C41.2048 37.2468 41.0517 37.6721 41.0687 37.7062C41.1623 37.8763 41.4515 37.7317 41.6046 37.8423C41.5536 38.0379 41.392 38.174 41.409 38.4122C41.4175 38.5483 41.5706 38.9056 41.6046 39.0332H41.6386L41.6472 39.0417Z" fill="#E8865B"/>
<g style="mix-blend-mode:multiply" opacity="0.63">
<path d="M41.681 39.0417C41.4938 39.0247 41.3237 38.5143 41.3322 38.3442C41.3322 38.2591 41.5364 37.6466 41.1791 37.9699C40.8559 37.7657 41.2812 37.3234 41.06 37.0937C40.9494 36.9831 40.7623 37.1447 40.6262 37.0427C40.4731 36.9321 40.5496 36.779 40.5156 36.6344C40.4731 36.4727 40.4901 36.4642 40.371 36.3281C40.2264 36.1665 40.1839 36.3707 40.1498 36.09C40.1328 35.9539 40.2519 35.7582 40.2434 35.5966C40.2349 35.4265 40.1498 35.2563 40.1328 35.0862C40.5241 35.1202 40.9494 34.7374 41.3152 34.8991C41.1451 35.0437 40.8899 35.0352 40.7198 35.1798C40.8984 35.1798 41.0515 35.2733 41.0515 35.435C40.9154 35.4775 40.7623 35.5115 40.6347 35.5285C41.1025 35.6731 40.6347 35.9283 40.7112 36.124C40.8133 36.4217 41.1536 36.2346 41.3152 36.4047C41.4343 36.5323 41.4343 36.8215 41.4853 36.9746C41.5194 37.0852 41.647 37.1362 41.647 37.2809C41.647 37.3914 41.5023 37.468 41.4938 37.5956C41.749 37.6551 41.8851 37.6466 41.9107 37.9444C41.9277 38.14 41.647 38.3612 41.6725 38.4803C41.8001 39.0757 42.6337 38.4037 42.7953 38.3442C42.5656 38.846 42.1318 38.8375 41.698 38.9906V39.0247L41.681 39.0417Z" fill="#FFC29B"/>
</g>
<g style="mix-blend-mode:multiply" opacity="0.63">
<path d="M39.6912 32.9341C39.6912 32.9341 39.7508 32.9341 39.7252 32.866C39.5381 32.883 39.3595 32.9171 39.2319 32.7299C39.1893 32.781 39.0873 32.815 39.0532 32.8575C38.6705 32.5002 38.5854 30.782 39.2149 30.6544C39.2234 31.0116 39.0107 31.3944 38.9852 31.7772C38.9852 31.9303 38.9852 32.2621 39.1298 32.3641C39.351 32.5258 39.3595 32.2791 39.5381 32.16C39.5381 32.7299 39.8869 32.177 40.04 32.4322C40.1336 32.5938 39.7678 32.9426 39.6912 33.0362V32.9256V32.9341Z" fill="#FFC29B"/>
</g>
<path d="M38.951 32.3556C38.7383 32.2621 38.4746 32.5173 38.2619 32.5853C37.9642 32.6789 37.7005 32.6449 37.4028 32.5428C37.1136 32.4407 37.003 32.3556 36.7138 32.5002C36.4331 32.6364 36.3225 32.7469 35.9822 32.7554C35.7015 32.7554 35.3953 32.7384 35.1571 32.6108C34.8679 32.4577 34.8764 32.2451 34.7913 31.9388C34.7063 31.6411 34.6127 31.437 34.7403 31.1733C34.8594 30.9266 35.1146 30.7309 35.3357 30.5863C36.0843 30.1099 37.037 29.2933 37.9132 29.8803C37.5644 29.9824 36.7903 30.161 36.8924 30.7394C36.9349 30.9946 37.0285 30.901 37.2412 30.9691C37.5389 31.0712 37.4538 30.884 37.4879 31.2328C37.5134 31.505 37.3262 31.4795 37.6154 31.6411C37.743 31.7092 37.9387 31.7347 38.0833 31.8112C38.3045 31.9388 38.9424 32.1175 38.968 32.3046V32.3386L38.951 32.3556Z" fill="#FFC29B"/>
<path d="M35.2926 32.6193C35.6754 32.9511 36.6281 32.7725 36.8578 32.3131C36.7217 32.2025 36.6111 32.2366 36.492 32.0834C36.3729 31.9303 36.3729 31.6241 36.458 31.4795C36.5941 31.6751 36.6536 31.9388 36.8493 32.0919C36.7642 31.7007 36.5005 30.816 36.8748 30.5353C36.9428 31.0542 36.8578 31.8027 37.3341 32.16C37.7339 31.5135 37.6063 32.3386 37.9551 32.2621C38.0146 32.2536 38.2103 31.9133 38.2783 31.8538C38.4059 31.7432 38.5676 31.6666 38.6866 31.522C38.6696 31.6581 38.6526 31.7772 38.6866 31.9133C38.7887 31.8708 38.9163 31.8112 39.0014 31.7517C39.0864 32.16 38.6951 32.4662 38.3634 32.5938C37.9381 32.764 37.4532 32.5938 37.0449 32.4067C36.5515 33.2233 35.5733 32.6874 35.0459 32.5428L35.3011 32.6279L35.2926 32.6193Z" fill="#E8865B"/>
<path opacity="0.55" d="M35.1825 32.5768C34.9613 32.4067 34.8252 31.6921 34.9783 31.4454C35.0889 31.6241 35.157 31.8878 35.3441 31.9984C35.3526 31.8027 35.2931 31.6156 35.3101 31.4199C35.3866 31.4965 35.4632 31.6581 35.4972 31.7517C35.4292 31.3519 35.7014 30.5267 36.1947 30.5097C36.1947 30.7054 36.1182 30.8755 36.1097 31.0712C36.484 30.5353 36.7392 29.9908 37.5132 30.0164C37.3346 30.3056 36.9093 30.4077 36.7051 30.7479C36.4584 31.1477 36.6371 31.3944 36.5775 31.7942C36.2628 31.4369 36.0416 31.4795 36.1097 31.9899C36.0416 31.8793 35.9821 31.9048 35.9055 31.8538C35.8715 32.0409 35.9566 32.2195 36.0331 32.3811C35.9396 32.2706 35.8205 32.177 35.6844 32.1345C35.6759 32.4747 36.1862 32.3982 36.3564 32.5513C36.1182 32.815 35.259 32.7384 35.0549 32.4662L35.1995 32.5768H35.1825Z" fill="#FFE3D2"/>
<path d="M35.8288 32.7809C35.4035 32.7639 35.1483 33.5891 34.8506 33.9038C34.4338 34.3546 33.9064 34.6694 33.3705 34.9501C32.8856 35.1968 32.3582 35.503 31.8564 35.6816C31.414 35.8347 31.5671 35.6816 31.448 35.3414C31.3204 35.0011 31.1588 35.0947 30.9206 34.9926C29.9509 34.6183 31.1929 32.9256 31.6862 32.5087C32.3837 31.9218 33.7193 31.3519 34.6124 31.573C34.6124 32.1515 35.327 32.9681 35.9394 32.883C35.9394 32.798 35.8884 32.8405 35.8373 32.815V32.7809H35.8288Z" fill="#FFC29B"/>
<path d="M30.6656 34.814C30.2233 32.9511 33.2601 31.3774 34.7402 31.4709C34.8763 31.8367 35.2166 32.9766 35.7184 32.9341C35.2676 32.8235 35.0039 33.5805 34.6807 33.8017C34.2553 34.0994 33.8045 34.3886 33.3622 34.6609C34.0342 34.1079 34.6126 33.7677 34.8848 32.8745C34.6637 33.0021 34.5701 33.2828 34.3319 33.3849C34.468 33.1212 34.7317 32.9 34.8168 32.6108C34.3914 32.5428 33.7875 33.0957 33.4898 33.3424C33.09 33.6656 32.7582 34.1335 32.3499 34.3972C32.4095 33.9208 32.9624 33.47 33.2941 33.1637C33.6684 32.8065 34.0257 32.5428 34.4765 32.3471C34.2553 32.3216 34.0427 32.3386 33.83 32.3471C33.8726 32.245 33.9066 32.1174 33.9661 32.0239C33.5833 32.1345 33.4217 32.4322 33.1325 32.6533C33.2346 32.0664 32.7667 32.4407 32.5115 32.5853C32.1798 32.7809 31.831 32.9426 31.5163 33.1722C30.9634 33.5805 30.6997 34.2185 30.6316 34.882L30.6656 34.814Z" fill="#E8865B"/>
<g style="mix-blend-mode:multiply" opacity="0.63">
<path d="M31.2016 35.0096C31.5758 34.4142 31.831 33.6656 32.3159 33.1212C32.6817 32.7129 33.3026 32.0324 33.8726 31.9133C34.0172 31.8878 34.1703 31.8453 34.3064 31.9218C34.485 32.0239 34.383 32.126 34.4765 32.2536C34.6552 32.4918 35.055 32.4747 35.055 32.781C35.055 33.2403 34.6892 32.9766 34.451 33.0192C34.2043 33.0617 33.8981 33.3594 33.6684 33.4785C33.1836 33.7422 32.7582 34.125 32.2649 34.3462C31.8395 34.5418 31.4142 34.6439 31.125 35.0267L31.2016 34.9926V35.0096Z" fill="#FFC29B"/>
</g>
<g style="mix-blend-mode:multiply" opacity="0.63">
<path d="M31.4142 35.1287C31.6524 34.9671 31.9501 34.9756 32.2223 34.8736C32.5881 34.7375 32.9198 34.5503 33.2516 34.3547C33.6514 34.1165 34.0257 33.8613 34.3574 33.5295C34.6041 33.2829 34.7317 32.9681 34.9699 32.7214C34.6296 33.9379 33.3537 34.3802 32.4435 35.0522C32.8518 35.0012 33.2431 34.6949 33.6599 34.6949C33.2856 35.0777 32.0947 35.8008 31.5503 35.6987C31.5503 35.2563 31.4822 35.2478 31.1335 35.1032C30.8698 35.0012 30.5636 34.848 30.6656 34.4738C30.8187 34.7204 31.1505 34.9331 31.3887 35.0777L31.4227 35.1202L31.4142 35.1287Z" fill="#FFC29B"/>
</g>
</g>
<defs>
<clipPath id="clip0_612_530">
<rect width="77" height="62.9985" fill="white" transform="translate(0 0.0908203)"/>
</clipPath>
</defs>
</svg>
