<svg width="91" height="49" viewBox="0 0 91 49" fill="none" xmlns="http://www.w3.org/2000/svg">
<g clip-path="url(#clip0_612_738)">
<path d="M76.574 16.5611C76.4817 11.3546 63.6594 7.3851 47.9291 7.71743C35.2821 7.98514 24.6107 10.9392 20.9735 14.8071C20.8074 14.8994 20.6504 14.9641 20.4843 15.0102C20.4474 15.1764 20.4197 15.3518 20.392 15.5179C19.8935 16.238 19.6258 16.9857 19.635 17.7427C19.6442 18.2227 19.755 18.6843 19.9673 19.1274C19.9396 19.7182 19.9304 20.3182 19.9396 20.9275C20.2166 36.2146 33.0759 48.3447 48.6584 48.0216C64.2502 47.6985 76.6571 35.033 76.3894 19.7551C76.3802 19.1551 76.3432 18.555 76.2879 17.9642C76.4817 17.5027 76.5833 17.0319 76.574 16.5611Z" fill="#7C1800"/>
<path d="M74.5979 15.5179C74.3117 15.5918 73.9886 15.601 73.6286 15.4995C67.3974 13.7824 61.2401 11.1515 54.7781 10.533C53.7996 10.5699 52.8211 10.4961 51.898 10.4038C50.8456 10.293 50.2271 9.4991 50.0978 8.66827C41.7342 9.48987 33.4168 13.8009 24.9332 11.89C24.9239 11.9085 24.9055 11.9177 24.887 11.9362C24.4162 12.4531 23.8531 12.6101 23.3361 12.5085C22.5053 13.0532 21.6652 13.5794 20.816 14.1055C20.6406 14.2163 20.4559 14.2902 20.2805 14.3363C19.8928 16.2565 19.699 18.232 19.7359 20.2629C20.0128 35.55 32.8721 47.68 48.4547 47.3477C64.0372 47.0246 76.4534 34.3591 76.1764 19.0812C76.158 17.9458 76.0564 16.8288 75.8995 15.7303C75.4564 15.8318 74.9856 15.7764 74.5886 15.5087L74.5979 15.5179Z" fill="#8E4803"/>
<path d="M76.38 15.8964C76.4723 21.1121 63.7976 25.5986 48.0766 25.9309C32.3556 26.2632 19.5332 22.303 19.4409 17.0872C19.3486 11.8715 32.014 7.37586 47.7443 7.05276C63.4653 6.72043 76.2969 10.6899 76.3892 15.8964H76.38Z" fill="#8E4803"/>
<path d="M74.2571 15.4348C74.3309 19.8013 62.6533 23.5861 48.1693 23.8908C33.6853 24.1954 21.8784 20.8998 21.7953 16.5334C21.7214 12.1669 33.3991 8.38209 47.8831 8.07745C62.3763 7.77282 74.1832 11.0684 74.2571 15.4348Z" fill="#600902"/>
<g style="mix-blend-mode:multiply" opacity="0.4">
<path d="M71.4687 21.5829C70.9148 23.8354 69.8717 26.0694 68.6716 28.0541C66.8992 30.9989 65.0714 33.833 62.5605 36.15C59.0987 39.3533 55.7292 42.6212 51.4274 44.5875C50.135 45.1783 48.8427 45.6214 47.4579 45.7229C46.5071 45.7968 44.107 45.3906 43.5254 45.806C45.0209 45.6122 46.5533 46.5999 48.1226 46.5722C49.6089 46.5445 51.2243 46.6276 52.7844 46.4707C56.2277 46.1476 59.5972 45.0214 62.5143 42.9443C68.8101 38.4579 73.6381 32.8175 74.9674 24.8601C75.189 23.5677 75.392 22.2291 75.5582 20.9183C75.6874 19.8567 76.0475 18.1396 75.669 17.1334C75.1428 18.1304 74.7735 19.2289 73.952 20.0228C73.3519 20.586 72.0411 21.666 71.2749 21.7768L71.4595 21.5829H71.4687Z" fill="#E57800"/>
</g>
<g style="mix-blend-mode:multiply" opacity="0.4">
<path d="M36.3711 24.9985C36.325 26.374 37.2666 27.8141 37.9035 28.968C38.8267 30.6389 39.9621 32.3467 41.0791 33.8791C42.7592 36.2054 44.8271 38.3932 46.9964 40.2118C48.8058 41.7257 50.8644 42.8058 52.8676 43.969C53.5969 44.3936 54.2892 44.6982 55.1016 44.809C55.7755 44.9013 56.6155 44.809 57.1509 45.1229C55.9139 45.9906 54.1323 46.0091 52.7106 46.4799C51.8983 46.7568 51.2152 46.5537 50.3843 46.6276C49.5904 46.6922 48.8889 47.0245 48.058 46.9692C44.6517 46.7384 42.2054 48.2338 29.4568 39.5841C28.1091 38.6702 27.3336 36.8793 26.3736 35.55C25.312 34.0729 24.2965 32.6513 23.4472 31.0081C22.441 29.0695 21.7394 27.0571 21.3517 24.9062C21.1117 23.5861 20.2993 20.8352 20.9917 19.5797C21.444 19.6628 21.2225 20.3182 21.601 20.5952C22.7826 21.4444 24.2411 22.3306 25.552 22.8938C27.5921 23.7615 30.9616 24.897 33.1032 25.3216C34.0171 25.5062 34.5341 25.2385 35.2541 25.7001C35.2357 25.5524 35.6234 26.9371 35.7803 25.497L36.3804 24.9985H36.3711Z" fill="#E57800"/>
</g>
<g style="mix-blend-mode:multiply" opacity="0.4">
<path d="M27.8319 24.4908C28.1827 25.497 28.3581 26.7248 28.6627 27.7956C29.1704 29.5773 30.0105 31.1743 30.6936 32.8821C31.8383 35.7715 33.6107 37.9963 35.4016 40.4426C37.451 43.2397 39.9988 45.7783 43.1375 47.2461C36.5001 46.0645 29.5951 42.2704 25.7087 36.5008C23.6501 33.436 21.8315 30.3712 20.7053 26.7525C20.1883 25.0908 19.8837 23.4661 19.9391 21.6937C20.0129 19.2658 21.813 20.7429 23.087 21.6291C24.7948 22.8107 26.8718 23.2723 28.5519 24.4723C28.5335 24.3708 28.4965 24.2877 28.4689 24.1954L27.8227 24.5L27.8319 24.4908Z" fill="#E57800"/>
</g>
<g style="mix-blend-mode:multiply" opacity="0.4">
<path d="M57.0773 25.2386C57.1049 27.768 56.8095 30.2696 55.831 32.6236C54.9263 34.793 53.1447 36.9624 51.6308 38.7533C50.1999 40.4518 48.3075 41.7627 46.1935 42.3812C45.1411 42.6858 44.2918 42.6489 43.2118 42.6581C42.3163 42.6674 41.5686 42.9351 40.7285 43.0089C41.7347 44.4859 44.5134 45.7322 46.2304 45.8522C48.7413 46.0276 51.4461 46.2491 53.9201 45.5845C59.819 44.0151 64.2777 41.0796 67.721 35.8454C70.1304 32.1805 72.8906 25.654 71.5428 21.2137C69.8258 22.9676 66.9917 23.0877 64.7947 23.6138C62.0714 24.2785 59.782 25.257 56.9849 25.3309L57.0773 25.2293V25.2386Z" fill="#E57800"/>
</g>
<path opacity="0.2" d="M36.2885 25.7647C35.2084 25.6262 37.0916 28.6357 37.3501 28.9772C38.744 30.7866 40.1287 32.7436 42.1504 33.8791C45.8706 35.9746 51.2987 35.9838 55.1758 34.276C58.8961 32.6421 61.8501 30.5189 63.9179 26.8909C65.4596 24.2046 63.1979 24.6846 61.3885 25.1462C59.0899 25.737 56.7636 25.9863 54.4096 26.2447C51.9448 26.5124 49.4155 27.0571 46.923 26.974C44.6428 26.9094 42.2796 27.0109 40.0364 26.7155C38.7809 26.5494 36.8054 25.9309 36.0115 25.8663L36.2885 25.7647Z" fill="white"/>
<path opacity="0.56" d="M73.6935 20.5859C72.5581 20.4659 72.4934 23.1338 72.4473 23.9554C72.3734 25.8755 71.8565 27.8694 71.1734 29.6511C70.5549 31.2851 69.9179 32.9467 69.0963 34.4791C68.3209 35.91 67.2039 37.0639 66.373 38.4024C67.2685 38.0055 68.1547 36.907 68.8194 36.1961C69.6409 35.3099 70.5825 34.3776 71.2195 33.3436C72.2903 31.6174 73.2966 29.5588 73.8874 27.5925C74.3397 26.0878 74.7274 24.4077 74.829 22.8661C74.8567 22.3676 74.9859 18.5827 73.8689 20.1059L73.6935 20.5859Z" fill="white"/>
<path d="M71.8568 22.0076C69.7059 22.6353 69.4751 24.38 69.6413 26.1801C69.8167 28.1003 67.0934 31.9036 68.0627 33.5098C69.8351 36.4546 72.5307 28.9957 73.0292 27.7772C76.3248 19.7366 85.9069 16.7457 89.9964 8.88056C90.938 7.07122 91.8058 2.73248 88.8425 2.43708C86.7101 2.22475 87.5132 4.22796 87.3747 5.78806C87.1901 7.83742 86.4424 10.0529 85.4454 11.7792C83.5622 15.0563 81.2913 17.4011 78.4203 19.5797C77.4049 20.3459 76.2048 21.3337 75.0416 21.7306C74.0354 22.0722 72.8353 21.8137 71.866 22.1645V21.9983L71.8568 22.0076Z" fill="#600902"/>
<path d="M19.6259 20.6321C21.7953 21.1675 22.0907 22.903 21.9892 24.7123C21.8784 26.6417 24.7401 30.325 23.8262 31.9774C22.1646 34.9961 19.2013 27.6479 18.6566 26.4571C15.0656 18.5642 5.39118 15.9702 1.02475 8.28051C0.0185285 6.50809 -1.00615 2.20627 1.94788 1.79086C4.0711 1.49546 3.34182 3.52636 3.53568 5.07722C3.78492 7.11735 4.62498 9.29596 5.67735 10.9853C7.68056 14.1886 10.0253 16.4318 12.9794 18.4904C14.0225 19.2104 15.2595 20.1428 16.4319 20.4936C17.4473 20.7982 18.6382 20.4844 19.6259 20.7982V20.6321Z" fill="#600902"/>
<path d="M7.09863 13.5793C5.9724 11.9638 3.7938 9.48984 3.42455 7.45894C2.88913 4.5049 6.33243 3.50792 8.51103 4.78184C11.4928 6.51734 16.0254 18.4258 17.8255 19.6536C20.798 21.6845 19.7456 20.2813 20.0133 18.2689C19.4225 17.2626 17.9086 16.6534 16.9762 15.9426C15.7023 14.9733 14.973 13.9117 14.2529 12.527C13.0344 10.173 12.5636 7.69895 11.0681 5.48343C9.72034 3.48945 7.59712 1.28316 5.00311 1.22777C2.66758 1.18161 0.267423 1.26469 0.101259 3.52638C0.0458705 4.1818 0.285886 7.16353 1.19056 7.20969C1.94753 7.24662 2.35371 5.85268 2.72297 5.36342L7.09863 13.5886V13.5793Z" fill="#600902"/>
<path d="M90.9107 4.21873C90.6707 1.75396 88.6582 -0.147704 86.5258 -1.81142e-06C84.1533 0.166163 82.2886 2.66786 81.1254 4.91108C79.8331 7.40355 79.5007 10.1268 78.4668 12.7577C78.3376 13.0808 78.2083 13.3762 78.0791 13.6716C78.2268 14.0594 78.3376 14.4563 78.393 14.8717C78.633 14.4102 78.8361 13.9763 78.993 13.6255C80.35 10.5514 80.7747 6.07423 83.4425 4.04333C85.1872 2.71402 87.9197 3.34175 88.1967 5.82499L88.7598 4.43105C89.1198 4.95724 89.5352 6.46195 90.2368 6.3881C91.0584 6.29579 90.9753 4.92954 90.9107 4.21873Z" fill="#600902"/>
<path d="M88.187 6.7666C88.2239 6.42504 88.2239 6.1204 88.187 5.83423L85.0391 13.6255C86.0176 11.8069 87.9192 9.00982 88.187 6.77583V6.7666Z" fill="#600902"/>
<path d="M72.3647 17.5026C72.4201 20.6875 61.841 23.4938 48.7232 23.7707C35.6147 24.0477 24.934 21.6844 24.8694 18.4996C24.814 15.3148 35.3931 12.5085 48.5109 12.2315C61.6286 11.9546 72.3001 14.3178 72.3555 17.5026H72.3647Z" fill="#9B0808"/>
<path d="M45.2988 12.2131C44.7356 12.1854 44.2187 11.8254 43.6556 11.7607C42.6678 11.65 42.2155 12.0838 41.4031 12.1946C40.3046 12.3515 38.9014 12.2592 37.609 12.3331C35.1166 12.4808 32.0979 12.4716 29.8824 13.5978C28.4608 14.3271 24.602 16.2564 25.0821 18.0565C25.8114 20.8352 30.0855 19.7459 31.8302 20.4013C33.0303 20.8536 33.5934 21.6937 34.9504 21.8506C36.3628 22.0168 37.3782 22.0906 38.7999 22.4414C42.354 23.3092 46.7296 23.5215 50.3298 23.5215C47.2927 21.5183 42.6032 21.4075 39.1876 20.2721C38.7722 20.1336 37.1844 19.792 37.0275 19.3397C36.7228 18.4812 37.646 18.5458 37.9321 18.0565C38.0891 17.7796 38.4306 17.8996 38.5968 17.558C38.6983 17.3457 38.1445 17.1611 38.2275 17.0042C38.5506 16.3672 38.1537 16.321 39.2891 15.9149C42.4001 14.8071 46.1296 15.721 49.1575 14.4101C52.5638 12.9424 45.8434 11.89 44.2464 12.4531L45.2988 12.2131Z" fill="#BC0A0A"/>
<path d="M41.3104 13.2931C42.6305 11.6038 43.7105 11.2807 45.5845 11.5299C46.443 11.6407 46.5261 11.7515 47.4862 11.6592C48.2154 11.5853 48.9355 11.5484 49.6648 11.4192C53.3481 10.773 57.3083 11.9638 61.047 12.2961C63.8995 12.5454 67.0567 13.4408 69.7707 14.4378C72.0785 15.2871 75.4849 17.4565 71.5431 19.1458C70.9892 19.3858 70.3707 19.5612 69.8261 19.5058C70.1861 18.9981 70.6938 18.675 70.8969 18.0196C69.9184 17.6411 69.3645 17.3088 68.5337 16.8195C67.0013 15.9148 65.1088 16.1825 63.3272 15.8964C61.167 15.5548 54.7789 12.6008 53.7358 16.0625C55.0743 16.6903 56.5144 16.6441 57.853 17.2718C57.4837 18.2319 56.256 18.0288 55.5174 18.6288C57.7053 19.9489 60.0777 16.8472 62.2563 18.1857C61.564 21.029 53.2281 19.8751 51.391 18.8781C52.2218 17.5395 51.5941 15.7117 49.9325 15.2132C47.9108 14.6132 45.086 16.3764 43.0828 16.7456C41.8181 16.9857 38.0886 17.9273 37.5809 15.8133C37.1101 13.847 40.8488 14.2163 41.4858 13.7085L41.2919 13.2839L41.3104 13.2931Z" fill="#BC0A0A"/>
<path opacity="0.7" d="M59.9853 14.7056C59.256 14.4471 58.5821 13.9394 57.9359 14.4748C58.2405 15.6379 60.1053 15.6379 61.0192 15.9795C60.8622 16.2564 60.8899 16.7642 60.733 17.0411C61.8408 17.6227 65.6902 17.6965 63.1239 19.6905C62.3854 20.2628 61.2407 20.2536 60.5391 20.669C60.2899 20.8167 60.3176 21.3337 59.9483 21.546C59.4591 21.8137 58.859 21.6752 58.3421 21.6199C56.4958 21.426 54.668 20.8813 52.831 20.9921C51.2893 21.0844 49.5631 21.2044 51.3078 19.589C50.3108 18.9705 49.0369 19.8474 48.1876 19.3028C46.9967 18.5366 47.8922 18.3889 48.3814 17.6596C48.963 16.7919 49.5538 16.718 48.8707 15.5733C48.4184 14.8163 46.3228 13.9671 45.6767 14.881C44.9197 15.9518 46.6921 15.9149 45.1597 16.9303C44.2181 17.5581 43.2673 17.0042 42.2795 17.318C40.7656 17.7981 38.7993 20.0044 36.8053 18.4627C40.5071 16.3026 35.1252 17.0319 33.6297 16.2195C33.9528 15.084 35.956 15.4902 36.6392 14.761C34.8298 13.5332 31.3865 15.3979 29.7987 16.4595C26.1985 18.8689 32.1712 18.6658 33.5559 19.3951C33.3436 19.8197 32.9374 20.1521 32.4481 20.3552C33.4636 22.8292 41.0517 22.1645 43.3042 22.3676C46.1659 22.6168 48.8245 23.42 51.714 23.5584C57.262 23.8354 64.0748 23.143 69.1243 20.6136C70.0567 20.1521 72.4845 19.4782 72.383 18.0104C72.263 16.238 69.2259 16.1641 68.1458 16.0903C67.3611 13.8932 60.4191 13.3301 58.7944 14.4379L60.0037 14.7056H59.9853Z" fill="#DB8109"/>
<path d="M65.681 9.45288C64.8687 9.00978 58.0928 14.4378 60.0684 15.4533C60.3176 15.5825 61.4531 15.1579 61.9146 15.2409C62.5516 15.361 62.9947 15.841 63.6132 15.9979C64.2132 16.1549 64.9425 15.9241 65.5426 16.081C66.1611 16.2379 66.6319 16.7549 67.2504 16.838C67.8596 16.9211 68.3858 16.8564 68.8935 16.3949C69.8721 15.4902 69.1705 15.5917 69.2443 14.604C69.3459 13.2193 70.0013 11.973 70.1859 10.5699C70.7029 6.70194 66.4934 7.84663 65.1918 9.44365H65.681V9.45288Z" fill="#CE4906"/>
<path d="M58.8128 14.8071C60.3913 12.6562 62.4407 11.2253 64.3885 9.54523C65.0255 9.00058 70.0935 5.95423 69.4473 8.70518C67.9241 7.99436 68.3026 8.82518 67.3333 9.3606C66.5117 9.81294 65.3486 9.46215 65.1178 10.7915C65.7825 10.7176 66.5948 10.653 67.241 11.0961C66.8902 12.1115 65.1824 11.4284 65.0255 12.5362C64.8686 13.5978 66.6779 13.0716 65.8748 14.5671C66.3456 14.7702 69.5489 15.5918 68.3857 16.6995C67.8134 17.235 64.6008 15.7764 64.0193 15.3425C63.6315 15.4995 63.2623 15.8318 63.0961 16.1733C63.8531 16.5334 64.647 16.6718 65.4224 16.9026C64.9978 18.3335 59.5974 14.3732 58.3789 15.1764L58.8128 14.8163V14.8071Z" fill="#F2860F"/>
<path d="M32.5222 16.0256C35.1347 14.4194 36.344 11.2807 36.4363 8.20669C36.464 7.16354 36.1501 5.16034 36.7317 4.28336C38.1072 2.18784 39.0026 4.79108 39.8427 5.64037C40.7381 6.54504 41.929 6.16655 42.8521 7.26509C44.0429 8.68672 43.4983 8.95443 45.4092 9.42522C46.8124 9.76679 47.6893 10.3391 48.5479 11.5392C49.1571 12.3885 50.0803 14.4379 48.1878 14.124C48.3078 14.1978 48.5848 14.5486 48.7879 14.6779C48.2248 15.5456 46.8308 14.6686 46.4154 15.6749C49.7849 16.6534 43.6737 17.438 43.3506 17.7242C42.2798 18.6658 43.286 19.3028 41.3012 19.0351C40.452 18.9243 38.0887 18.7674 37.9503 17.7058C35.7901 16.6165 33.4177 19.4136 31.3221 19.3212C30.2236 19.2751 29.5589 18.6381 30.4452 17.5857C31.2021 16.6811 32.8915 17.4565 33.5007 16.5518C33.4915 16.1918 33.3715 16.5703 33.1961 16.4595L32.5222 16.0349V16.0256Z" fill="#CE4906"/>
<path d="M37.4243 3.48944C37.3504 3.41559 37.3873 2.97248 37.3135 3.28635C37.3135 5.73266 42.3723 6.29577 40.5168 8.64977C41.4768 9.47136 42.7784 9.09288 41.6984 10.6437C40.7291 12.0377 38.3843 11.1422 37.5904 12.7854C39.8059 14.087 41.9938 11.3915 44.237 12.6469C44.0616 13.2193 43.517 13.727 43.1662 14.124C43.8216 14.5301 44.5693 14.3732 45.2524 14.5948C43.8401 16.0902 41.7168 15.3794 40.1937 16.3949C38.6336 17.4288 39.8152 18.4442 41.2922 18.3335C42.4646 18.2412 44.3662 17.3642 45.4002 16.7272C46.231 16.2103 46.711 15.1394 47.3664 14.6871C48.0588 14.207 49.4066 14.4932 49.6835 13.4039C49.8866 12.6285 48.9358 11.7423 48.428 11.1976C46.8864 9.55444 45.3078 9.47136 43.4246 8.64054C43.6923 7.19121 41.3753 6.70195 40.3968 6.34193C39.6767 6.06499 39.1044 5.91729 38.5597 5.36341C38.0151 4.80952 38.1258 4.08948 37.3504 3.64637L37.3966 3.48944H37.4243Z" fill="#F2860F"/>
<path opacity="0.1" d="M61.9152 25.8109C59.8381 26.6047 57.1334 27.491 55.5456 29.2172C53.2562 31.7097 56.2287 32.7898 58.2596 31.6543C59.2012 31.1281 64.8508 27.0202 61.4444 26.1616L61.9152 25.8109Z" fill="white"/>
<path d="M35.4303 19.6628C35.2826 18.8966 37.5259 16.4503 38.0982 15.8133C38.9844 14.8255 40.3599 13.6716 41.7169 14.3547C42.797 14.8994 42.5569 16.0072 43.2216 16.9118C43.7386 17.6134 44.6894 17.7334 44.4217 18.8873C44.154 20.0505 43.4155 19.5335 42.5477 19.7366C41.6246 19.9489 40.9045 20.6136 39.926 20.7521C38.2828 20.9736 36.215 20.4844 35.0703 19.6628H35.4396H35.4303Z" fill="#F2860F"/>
<path d="M30.1678 18.4534C29.9924 19.0073 29.4385 19.3027 28.9215 19.1181C28.4046 18.9335 28.1369 18.3242 28.303 17.7703C28.4784 17.2164 29.0323 16.921 29.5492 17.1057C30.0662 17.2903 30.3339 17.8903 30.1678 18.4534Z" fill="#F2860F"/>
<path d="M48.3996 22.4414C48.2981 22.7645 47.735 22.8476 47.1349 22.626C46.5349 22.4045 46.1379 21.9706 46.2395 21.6475C46.341 21.3244 46.9041 21.2413 47.5042 21.4629C48.1042 21.6844 48.5012 22.1183 48.3996 22.4414Z" fill="#F2860F"/>
<path d="M55.2962 15.1764C55.2777 15.2225 54.6869 15.0471 53.9669 14.7794C53.2468 14.5117 52.6745 14.2624 52.6837 14.2163C52.7022 14.1701 53.293 14.3455 54.0223 14.6132C54.7423 14.8809 55.3146 15.1302 55.3054 15.1764H55.2962Z" fill="#F2860F"/>
<path d="M54.0034 21.0659C53.8281 21.6106 53.228 21.8783 52.6557 21.666C52.0833 21.4536 51.7602 20.8444 51.9264 20.309C52.1018 19.7643 52.7018 19.4966 53.2742 19.6997C53.8465 19.912 54.1696 20.5213 54.0034 21.0659Z" fill="#F2860F"/>
<path d="M45.3535 20.152C47.5598 19.0073 47.9383 16.9672 48.7691 14.7425C49.7015 15.1302 49.083 16.6072 49.0368 17.4011C50.1354 16.3579 51.04 14.5394 52.0832 13.7178C52.2678 15.3886 50.8831 17.2257 49.443 17.7242C50.3846 17.8719 52.434 17.7242 52.4524 19.192C51.1323 18.795 49.7661 18.1119 48.4091 18.675C47.3659 19.1089 46.4797 20.032 45.3904 20.429L45.3535 20.152Z" fill="#6CA804"/>
<path d="M78.8822 11.8346C78.4668 12.3331 78.2083 13.3393 77.8114 13.9486C77.4145 14.5579 76.9529 15.1394 76.279 15.3887C76.4913 15.9703 76.1682 16.4688 76.0944 17.0411C76.0482 17.4657 76.1405 18.1212 76.2236 18.5735C77.3037 17.198 78.1622 15.8133 78.8361 14.1794C79.1499 13.4132 79.5561 12.5824 79.6577 11.7238C79.8331 10.1822 78.9192 12.0654 78.7807 12.3885L78.8915 11.8346H78.8822Z" fill="#470603"/>
<path d="M77.22 21.5737C76.1584 21.6845 74.8014 23.3461 74.2014 24.2231C73.7398 24.897 72.6413 27.5464 71.6074 27.131C70.2596 26.5863 72.5028 22.7461 71.5058 22.3676C71.0073 22.183 70.3704 23.3184 70.2319 23.7246C69.9734 24.4723 70.1765 25.1185 70.2319 25.8847C70.315 26.8448 70.2134 27.8233 69.8165 28.7188C69.4842 29.4665 68.9303 30.0573 68.6072 30.8143C68.3302 31.4605 67.9425 32.2267 68.1272 32.9283C68.321 33.7222 68.8934 33.8514 69.5026 33.4175C71.0904 32.3005 71.9028 29.7988 72.7613 28.0633C73.9891 25.5893 75.3553 23.503 77.22 21.5921C77.1739 21.6106 77.1277 21.6291 77.0723 21.6475L77.22 21.5645V21.5737Z" fill="#470603"/>
</g>
<defs>
<clipPath id="clip0_612_738">
<rect width="90.9474" height="48.04" fill="white"/>
</clipPath>
</defs>
</svg>
