<svg width="82" height="59" viewBox="0 0 82 59" fill="none" xmlns="http://www.w3.org/2000/svg">
<g clip-path="url(#clip0_612_1897)">
<path d="M36.7843 35.5956C35.6151 35.2778 34.4432 34.982 33.2989 34.5757C32.1767 34.1777 31.0821 33.705 30.0207 33.1715C27.873 32.0908 25.8497 30.7585 23.984 29.2438C22.0519 27.6738 20.2856 25.9103 18.6714 24.017C16.9992 22.0572 15.4955 19.9621 14.1135 17.7895C12.7232 15.6031 11.4462 13.3394 10.277 11.0286C10.1332 10.7439 9.99226 10.462 9.85129 10.1773C9.71309 9.89811 9.29572 10.1441 9.43392 10.4205C10.5893 12.7783 11.8055 15.1056 13.1626 17.3528C14.5143 19.5889 15.9986 21.7449 17.6487 23.771C19.2381 25.7196 20.9822 27.5411 22.8977 29.1692C24.7662 30.7585 26.7895 32.1765 28.951 33.3402C31.0931 34.4928 33.3901 35.4353 35.7644 35.9798C36.0546 36.0462 36.3449 36.1015 36.6379 36.1457C36.7899 36.1678 36.9447 36.107 36.9889 35.9467C37.0304 35.7974 36.9391 35.6371 36.7899 35.5956H36.7843Z" fill="#51510C"/>
<path d="M13.1566 17.3556C13.1566 17.3556 4.86162 11.3548 3.72559 0C3.72559 0 13.5049 12.7092 13.1566 17.3556Z" fill="#707217"/>
<path d="M17.065 23.1325C17.065 23.1325 8.26701 17.3141 3.15625 18.8758C3.15625 18.8758 11.5286 24.5532 17.065 23.1325Z" fill="#707217"/>
<path d="M19.9036 26.5406C19.9036 26.5406 10.2514 23.9866 4.71777 25.2636C4.71777 25.2636 14.0852 28.387 19.9036 26.5406Z" fill="#707217"/>
<path d="M22.4609 28.9536C22.4609 28.9536 10.2548 28.2432 6.42383 31.0819C6.42383 31.0819 17.7786 33.2103 22.4609 28.9536Z" fill="#707217"/>
<path d="M25.0614 31.1483C25.0614 31.1483 11.816 32.6436 8.12598 36.7593C8.12598 36.7593 22.6954 34.9074 25.0614 31.1483Z" fill="#707217"/>
<path d="M18.345 7.521C18.345 7.521 14.796 13.0574 17.3527 22.2811C17.3527 22.2811 20.6171 15.4677 18.345 7.521Z" fill="#707217"/>
<path d="M20.6141 25.8302C20.6141 25.8302 19.4781 20.1528 22.0321 9.22369C22.0321 9.22369 25.1555 18.7321 20.6141 25.8302Z" fill="#707217"/>
<path d="M23.1683 28.5279C23.1683 28.5279 22.7426 19.0195 26.4326 11.2138C26.4326 11.2138 29.1304 22.9943 23.1683 28.5279Z" fill="#707217"/>
<path d="M27.7369 31.7011C27.7369 31.7011 27.2836 21.7145 31.6839 13.4831C31.6839 13.4831 32.7315 27.4969 27.7369 31.7011Z" fill="#707217"/>
<path d="M31.9688 33.9206C31.9688 33.9206 32.1097 21.7145 38.2128 15.7552C38.2128 15.7552 37.6461 29.664 31.9688 33.9206Z" fill="#707217"/>
<path d="M81.5569 37.9396H0.235352C3.53565 55.367 28.6168 58.1366 38.772 58.5402V58.5899C38.5785 58.6065 43.2138 58.6065 43.0203 58.5899V58.5402C53.1755 58.1366 78.2566 55.367 81.5569 37.9396Z" fill="#4B597F"/>
<path d="M40.8946 52.3072C63.3517 52.3072 81.5568 45.6593 81.5568 37.4587C81.5568 29.258 63.3517 22.6101 40.8946 22.6101C18.4375 22.6101 0.232422 29.258 0.232422 37.4587C0.232422 45.6593 18.4375 52.3072 40.8946 52.3072Z" fill="#F4EDDA"/>
<path d="M40.8944 52.5421C30.0067 52.5421 19.7658 50.9915 12.0624 48.1777C4.2843 45.339 0 41.5301 0 37.4586C0 33.3872 4.2843 29.581 12.0624 26.7396C19.7686 23.9258 30.0067 22.3751 40.8944 22.3751C51.782 22.3751 62.0229 23.9258 69.7263 26.7396C77.5044 29.581 81.7887 33.3872 81.7887 37.4586C81.7887 41.5301 77.5044 45.3362 69.7263 48.1777C62.0201 50.9915 51.782 52.5421 40.8944 52.5421ZM40.8944 22.845C30.0592 22.845 19.8764 24.3846 12.2227 27.1791C8.51609 28.5335 5.60829 30.1062 3.58223 31.8559C1.51471 33.6387 0.467127 35.5238 0.467127 37.4586C0.467127 39.3935 1.51471 41.2758 3.58223 43.0614C5.60829 44.811 8.51609 46.3838 12.2227 47.7382C19.8764 50.5327 30.0592 52.0722 40.8944 52.0722C51.7295 52.0722 61.9123 50.5327 69.566 47.7382C73.2726 46.3838 76.1804 44.811 78.2065 43.0614C80.274 41.2786 81.3216 39.3935 81.3216 37.4586C81.3216 35.5238 80.274 33.6415 78.2065 31.8559C76.1804 30.1062 73.2726 28.5335 69.566 27.1791C61.9123 24.3846 51.7295 22.845 40.8944 22.845Z" fill="#BFC5E2"/>
<path d="M80.1609 32.359C79.3456 31.9029 78.0105 32.9643 77.5185 32.1682C76.9159 31.1981 79.3151 30.3053 78.7844 29.2936C77.9607 28.1216 76.5262 30.0952 75.5311 29.6115C73.9833 28.6634 76.3908 26.5931 75.5615 25.3935C75.1248 24.7467 74.1104 24.8379 73.4608 25.2664C72.8085 25.6948 72.3414 26.3637 71.6863 26.7838C69.9394 27.6877 69.1627 26.6042 69.4806 24.9043C69.4861 24.2133 68.8918 23.3288 68.1677 23.9783C67.9659 24.1607 67.8747 24.4289 67.883 24.6997C67.8968 25.1779 67.4684 25.9906 66.9432 25.7888C66.0918 25.4599 67.2362 23.5637 66.3351 23.4172C65.434 23.2707 65.9177 25.4433 64.9835 25.4571C63.9276 25.2885 64.6518 24.0391 64.8812 23.467C65.3953 21.4105 62.4654 20.5343 61.7661 22.5355C61.5118 23.3813 61.8214 24.5947 61.0336 24.9623C60.6135 25.1586 60.1159 24.9872 59.8589 24.6002C59.5686 24.1663 59.5465 23.6936 59.6184 23.2237C59.4802 21.709 57.7609 23.0302 58.3331 24.0253C57.2634 24.3238 56.2739 22.7566 56.9981 21.9191C55.7985 20.5592 53.3384 20.6421 52.2356 22.0822C50.5329 19.3761 46.8539 17.9526 45.9142 21.9854C44.6565 23.8567 41.8648 22.2314 42.8654 20.2137C43.1086 19.5088 42.0362 18.9836 41.3673 19.3126C40.6984 19.6415 40.3446 20.3684 39.8553 20.9323C38.8326 22.0269 37.785 21.8002 37.3179 20.4403C36.3339 18.9228 33.943 19.9677 34.4018 21.7284C34.1199 21.0954 32.9894 21.1838 32.4946 21.7532C31.5023 21.51 30.9606 22.646 31.3835 23.4587C31.2232 23.4504 31.0794 23.572 30.9578 23.666C30.7284 23.1021 30.0982 23.4338 29.725 23.2431C29.6338 23.1325 29.9323 22.5659 29.96 22.4111C30.1977 21.1811 28.6913 20.3684 27.6465 20.7692C27.0826 20.9848 26.668 21.5349 26.6542 22.1457C26.6486 22.4249 26.9389 22.8616 26.7924 23.0883C26.5795 23.4227 26.0986 23.2818 25.8913 23.0137C26.2893 20.3546 22.7485 20.1363 23.5584 23.0192C21.8226 22.6903 21.8723 25.2221 20.8496 24.65C20.3079 24.2188 20.7943 23.3343 20.7584 22.7842C20.3935 20.9986 17.2619 22.3143 17.7843 23.8843C17.9004 24.2768 18.1353 24.6279 18.2016 25.0342C17.6626 24.5449 17.1015 25.4985 17.7207 25.8081C17.8838 26.0127 17.3392 26.2504 17.2066 26.2642C15.8135 26.4245 16.5128 24.1746 15.1612 24.0198C14.0832 22.8312 12.3114 24.3183 13.6769 25.4571C13.6713 25.4792 13.663 25.4985 13.6575 25.5207C13.1047 25.2083 12.4082 25.5732 12.5104 26.22C12.5491 26.4881 12.8946 26.7673 12.8753 27.0133C12.8476 27.3449 12.433 27.3781 12.2119 27.2316C11.543 26.6373 12.0101 25.4516 10.8188 25.1973C8.39197 24.8048 9.85968 28.6551 8.19848 28.973C6.37143 27.9586 3.91141 28.2516 4.58861 30.8498C4.48081 32.5082 0.829481 32.2373 1.8052 34.2413C2.24468 34.8466 2.88871 34.1915 3.31714 34.8411C3.93076 35.85 2.67035 36.6377 2.56808 37.6162C2.44093 38.5947 3.48022 38.7522 4.22652 38.5173C5.0972 38.2851 5.92642 38.9761 5.25475 39.8579C4.76275 40.5185 4.91477 41.5605 5.58644 42.0249C6.36038 42.5611 7.32504 42.2377 7.6512 41.356C7.99947 40.43 7.6429 39.2138 8.54399 38.5394C9.48377 37.912 10.1693 39.0425 9.65514 39.8772C9.46995 40.2808 9.20737 40.6816 9.22395 41.1238C9.24053 41.5661 9.72701 42.0166 10.1085 41.7872C10.1085 41.4306 11.0399 41.4444 11.2528 41.7291C11.6923 42.4257 10.8354 43.0255 10.4871 43.5534C9.46719 45.4772 12.2119 46.9394 13.2401 45.0211C12.878 45.726 13.0135 47.1633 14.0666 46.8924C14.694 46.3838 14.9124 46.768 15.4597 47.1688C16.054 47.4977 16.8058 46.862 16.8694 46.1848C17.0048 44.6701 14.9732 43.4429 15.8771 41.895C16.1645 41.4251 16.7616 41.2979 17.1817 41.6518C18.1795 42.4865 16.054 44.5789 17.5079 45.1732C18.2597 45.3611 19.8573 43.8575 19.6445 45.386C19.3681 46.0107 18.5112 45.9637 18.1464 46.4778C17.4001 47.7023 20.0397 50.2591 21.1675 49.3359C22.1515 48.5315 21.2421 46.9201 22.2289 46.0908C22.5219 45.8421 22.9697 45.8393 23.2322 46.1212C23.8348 46.8427 22.696 47.6802 22.8923 48.4486C22.9752 48.783 23.4617 48.971 23.6883 48.7775C23.3898 49.2972 23.6745 50.1153 24.3406 50.19C25.59 50.2535 25.543 48.9738 25.1477 48.1307C24.9128 47.1716 25.4601 46.7736 26.3363 46.9781C27.8012 46.9449 27.7045 43.5396 29.4293 44.2057C30.0982 44.5789 29.8024 45.6237 29.2828 46.1848C28.7631 46.7459 28.0472 47.2987 28.097 48.0616C28.1495 48.8825 29.3464 49.3414 29.9323 48.7665C28.6802 50.306 31.4747 51.5941 31.7787 49.6206C31.787 49.1368 32.1629 48.725 32.6439 48.7526C33.9292 48.9931 32.2873 50.8423 33.1552 51.3785C33.9236 51.8456 34.388 50.1319 35.2863 50.0766C36.1349 50.0269 36.5136 51.4946 37.3539 51.373C37.9868 51.2818 38.0863 50.3503 37.7408 49.8113C37.3953 49.2723 36.8066 48.9212 36.4998 48.3601C36.1929 47.799 36.4445 46.862 37.083 46.9035C37.376 46.9228 37.6717 47.1522 37.9315 46.8316C38.1499 46.5635 38.0919 46.1765 37.832 45.9471C37.1161 45.3169 37.6081 44.1256 38.4374 43.9819C39.1284 43.8602 39.8443 44.5015 39.8 45.2008C39.7448 46.1102 38.6613 46.7819 38.7912 47.6829C38.9266 48.6421 40.2091 48.8494 41.1766 48.8162C39.7309 49.3552 40.5159 51.6577 42.0611 50.9086C42.9124 50.5051 42.5475 49.6924 43.0202 49.159C43.1556 49.0042 43.3685 48.9295 43.5619 48.9959C44.1175 49.1783 43.7554 49.9992 43.8218 50.5742C44.0042 51.7765 45.7925 51.5056 45.6101 50.3005C46.9258 52.1552 49.0458 49.908 45.8672 48.1556C46.9341 48.3712 48.0867 47.4729 48.1365 46.3838C48.1503 45.7122 47.8048 44.5513 48.7363 44.3412C49.3775 44.2527 49.6429 45.1566 49.4383 45.7536C49.2366 46.3424 48.8054 46.8979 48.9021 47.5116C49.079 48.7056 50.8922 48.6863 51.0415 47.4867C51.3843 48.7526 53.2666 48.3905 53.1146 47.0887C52.9487 45.972 51.246 45.6016 51.4727 44.3384C51.539 43.9984 51.8597 43.7524 52.2024 43.8132C52.7829 43.9155 52.7663 44.7337 53.2445 44.9742C53.8498 45.281 54.375 44.402 54.3888 43.7248C54.4026 43.031 54.3943 42.1299 55.0743 41.9199C55.5331 41.7789 56.0113 42.0691 56.1495 42.528C56.6194 44.0979 54.5298 45.0073 54.7785 46.5248C54.8974 47.155 55.7598 47.6194 56.2048 47.155C56.3844 46.9671 56.4618 46.6713 56.6996 46.5635C57.2689 46.3064 57.6172 47.4176 57.2828 47.8792C57.0727 48.1667 57.0285 48.5481 57.222 48.8494C57.8301 49.7947 58.6316 48.8383 58.8832 48.0837C59.1319 47.3402 59.9003 46.3921 60.5195 47.2683C60.666 47.4756 60.6881 47.7382 60.6245 47.9842C60.514 48.4099 60.8374 49.1949 61.3211 49.0456C61.7606 48.9102 61.6693 48.2275 61.9817 47.893C62.739 47.0859 64.1902 49.1921 64.9586 48.4044C65.7408 47.2683 63.8087 46.8371 63.6622 45.831C63.6014 45.5187 63.7811 45.1925 64.0907 45.1179C64.743 44.9576 65.0857 46.0798 65.8458 45.8421C67.1698 45.2202 65.9785 43.7441 65.3953 43.0061C64.1542 41.0215 66.7248 40.2504 67.1837 42.4091C67.2721 43.2881 66.8354 44.1339 66.758 45.0129C66.6806 45.8946 67.2749 46.9892 68.1455 46.8344C69.4944 47.7548 71.2302 46.1157 70.249 44.7447C70.8433 45.3749 72.2447 44.7641 72.0788 43.863C71.9931 43.4014 71.6227 43.0587 71.3685 42.6634C70.5503 41.3753 72.0539 40.665 72.6841 42.0056C73.2535 45.2616 76.2857 43.758 75.1027 41.9475C76.7998 43.805 79.0968 40.7617 76.833 39.6754C76.4184 39.5372 76.1061 39.1724 76.0563 38.7384C75.954 37.8677 76.9657 37.7682 77.6982 37.7351C78.356 37.7074 79.2129 37.1712 78.8756 36.6046C78.4168 35.8362 77.267 37.0717 76.4018 36.8423C75.5118 36.6046 75.8905 35.123 76.7473 34.7803C77.6042 34.4375 78.591 34.6725 79.4727 34.4016C80.3517 34.1307 80.9763 32.7957 80.172 32.3479L80.1609 32.359Z" fill="#B2B242"/>
<path d="M72.2778 30.0067C70.5558 30.6369 69.8593 32.9339 71.0478 34.3546C71.4458 34.9102 72.4077 35.2916 72.6592 36.0987C73.0849 37.1574 71.5094 38.1358 72.1866 39.0867C72.5791 39.5234 73.3807 39.6478 73.6488 40.2504C73.9611 40.969 72.9882 41.6158 72.4132 41.555C72.7892 41.2703 73.6958 41.0326 73.4028 40.3582C72.9716 39.7197 71.8549 39.739 71.6393 38.8628C71.3463 37.8097 72.7919 36.8644 72.0429 35.9025C71.1694 35.1368 69.967 34.1722 70.05 32.7819C70.0168 31.4689 70.9815 30.214 72.2557 29.9128C72.3137 29.9017 72.3414 29.9846 72.2833 30.0067H72.2778Z" fill="#99962E"/>
<path d="M9.57761 38.1524C11.1117 37.9064 13.6353 39.6395 14.3816 37.5194C14.5695 36.8257 14.5861 35.9882 15.2301 35.5044C16.2224 34.6808 17.2009 36.447 18.1324 35.7643C18.5829 35.3939 18.9091 34.7664 19.5255 34.6034C20.3298 34.3905 20.9739 35.0401 21.5571 35.463C24.1249 37.232 23.0331 32.8896 26.2062 33.0776C26.6872 32.956 26.9746 32.558 26.8696 32.0936C27.0244 32.0908 27.0244 32.3728 27.0133 32.4861C26.889 33.155 26.1371 33.3485 25.5594 33.401C23.8982 33.495 24.2659 35.9329 22.7511 36.2673C21.5073 36.5327 20.8191 34.8715 19.6443 35.0401C18.8317 35.3607 18.395 36.7289 17.3115 36.3585C16.6868 36.212 16.1202 35.4685 15.4955 35.8665C14.763 36.4332 15.0505 37.619 14.4009 38.3127C13.4915 39.294 12.021 38.8351 10.9348 38.4648C10.4953 38.3293 10.0475 38.2215 9.58867 38.2436C9.53062 38.2492 9.5168 38.1552 9.57761 38.1469V38.1524Z" fill="#99962E"/>
<path d="M12.7898 27.3947C13.5527 28.7961 15.3438 29.4567 16.7784 28.8569C17.6712 28.4588 18.4562 27.6849 19.5038 27.6628C19.8714 27.6462 20.2611 27.7512 20.5596 27.9751C21.364 28.5197 21.5326 29.7137 22.5138 29.9514C23.2988 30.0592 24.0341 29.3986 24.8495 29.4926C25.3525 29.4788 26.0546 30.2223 25.6427 30.6314C25.6179 30.6203 25.604 30.5927 25.6123 30.5678C25.7036 30.2721 25.4962 29.9818 25.2475 29.8381C24.2994 29.3903 23.4619 30.4711 22.4641 30.3191C21.082 30.1698 20.9549 28.0608 19.5203 28.1244C18.2212 28.2184 17.2814 29.4954 15.9298 29.4788C14.5671 29.523 13.1906 28.7242 12.7042 27.4361C12.6848 27.3809 12.765 27.3422 12.7926 27.3974L12.7898 27.3947Z" fill="#99962E"/>
<path d="M26.4852 23.1463C26.0015 24.7854 26.2586 24.9844 27.7843 25.4681C28.713 25.9795 28.8844 27.4279 28.0524 28.0774C28.0054 28.1161 27.9391 28.0525 27.975 28.0055C28.4974 27.2952 28.315 26.2725 27.5521 25.8606C27.1956 25.6588 26.8528 25.7141 26.4382 25.4709C25.5979 24.9347 25.8854 23.7682 26.394 23.1049C26.4244 23.0606 26.4963 23.0938 26.4824 23.1436L26.4852 23.1463Z" fill="#99962E"/>
<path d="M34.1526 29.6667C32.848 30.0095 31.8916 31.2782 31.8418 32.6077C31.828 32.8979 31.8695 33.202 31.9496 33.4812C33.257 37.0136 31.2503 36.3364 28.8207 36.9031C27.7068 37.5084 28.7129 38.8296 28.6936 39.7722C28.8649 41.7706 25.83 41.0353 25.6614 42.644C25.7609 43.3516 26.4961 44.0758 26.1009 44.8415C25.6752 45.8503 24.3429 46.2373 23.4004 46.1433C24.0499 45.8863 24.9427 45.9056 25.4707 45.3224C26.8859 44.0841 24.2186 42.7076 25.888 41.555C26.5459 41.0298 27.6128 41.0934 28.1104 40.383C28.6687 39.2442 27.1374 37.7765 28.2513 36.7372C29.8766 35.5183 32.9585 37.2292 31.6373 33.7686C31.1536 32.3009 31.9054 30.6286 33.2294 29.8906C33.3621 29.7856 34.3682 29.4152 34.1554 29.6667H34.1526Z" fill="#99962E"/>
<path d="M37.0801 28.1216C36.4803 29.4097 36.7374 31.0239 37.6744 32.0825C38.8381 33.3899 42.0775 33.7686 41.2539 36.1982C40.8862 37.29 38.23 37.4089 39.0592 38.8241C39.5622 39.2221 40.2229 39.7777 39.963 40.5184C39.2582 42.2709 36.765 43.3433 35.1453 44.1366C33.9374 44.5236 32.0965 45.6983 33.1413 47.0831C33.7743 47.5447 35.441 48.0505 34.6394 49.1202L34.5234 48.9046C35.8308 48.6144 37.2736 49.6371 37.3952 50.9777C37.4035 51.0412 37.2985 51.0578 37.2902 50.9887C37.1188 49.7725 35.7755 48.8466 34.5814 49.1534C34.5151 49.17 34.4432 49.1313 34.4266 49.0622C35.0955 47.7658 32.9368 47.8902 32.6134 46.8951C32.0108 45.3058 33.7135 44.1974 34.9794 43.7524C36.0381 43.2521 41.0134 40.8833 39.0868 39.4681C38.183 38.9706 38.2604 37.7793 39.0868 37.2403C39.6452 36.787 40.5186 36.6626 40.8614 36.0075C41.5717 33.5364 37.2349 33.6497 36.7291 30.9216C36.4582 29.9846 36.5218 28.937 36.9917 28.0774C37.0193 28.0249 37.1078 28.0636 37.0773 28.1216H37.0801Z" fill="#99962E"/>
<path d="M40.2226 26.2172C39.6643 27.6269 40.0789 29.3821 41.2619 30.344C42.5721 31.4275 44.5788 31.6845 45.502 33.2379C47.1079 36.1568 43.5976 37.1519 44.518 38.6251C45.6596 39.6672 47.1411 38.3376 48.4513 38.5588C50.4552 39.0176 50.4359 41.4749 48.7166 42.3511C48.2301 42.7242 48.0311 43.4567 48.6061 43.8464C48.7968 44.004 48.7774 44.46 48.4651 44.4435C48.396 44.4324 48.4126 44.3329 48.4789 44.3384C48.5757 44.3495 48.6309 44.1947 48.6005 44.0897C47.2213 42.8182 48.8023 42.2073 49.5154 41.2454C49.9328 40.4853 49.5431 39.3714 48.7608 39.0342C47.2461 38.5284 44.8552 40.6069 43.932 38.4648C43.5616 36.588 46.732 35.8251 44.8884 33.144C43.8353 31.8835 42.0331 31.6182 40.875 30.4545C39.7804 29.3627 39.4598 27.5716 40.1342 26.1785C40.1591 26.1232 40.2475 26.1619 40.2226 26.2172Z" fill="#99962E"/>
<path d="M44.2861 26.676C47.462 26.2172 54.3446 24.9263 51.8265 30.4434C51.094 32.1019 51.6662 33.705 53.7171 33.1633C55.7957 32.4584 57.8798 33.5392 56.3623 35.7974C56.0638 36.3253 55.9063 36.9473 56.4453 37.3481C57.2413 37.9644 58.4492 37.6908 59.2093 38.4343C60.033 39.2525 59.5935 40.6401 58.7615 41.2813C58.0042 41.9115 56.9787 42.2819 56.108 42.7214C56.0804 42.7352 56.05 42.7214 56.0389 42.6965C56.7493 42.1216 57.9185 41.7844 58.6123 41.1072C59.295 40.5405 59.6903 39.352 58.9854 38.6693C58.2143 38.0142 57.0202 38.3099 56.2076 37.6576C55.7128 37.3232 55.5552 36.6294 55.7764 36.0904C57.1197 33.8073 56.2545 33.0085 53.8083 33.6166C51.434 34.2523 50.4887 32.2732 51.4064 30.2803C53.9493 24.9733 46.7544 26.9386 44.2889 26.676H44.2861Z" fill="#99962E"/>
<path d="M53.0482 26.6511C53.145 28.5721 54.9112 30.2057 56.8461 30.0371C57.8992 30.12 58.651 29.0835 59.682 29.2521C60.8844 29.6695 60.5195 31.14 60.3979 32.0825C60.2763 33.2351 61.0861 34.5868 62.3327 34.4651C63.4743 34.2219 65.3124 32.8647 66.0532 34.5038C66.2798 35.1285 65.8818 35.8472 66.0532 36.4387C66.9487 38.2187 70.2656 36.6985 69.9754 40.0872C69.7819 41.3864 68.2534 42.398 67.0372 42.1962C67.6149 42.0276 68.3529 41.9447 68.8449 41.4969C69.8648 40.781 70.0749 39.1419 69.1019 38.3155C68.0792 37.5498 66.1941 38.017 65.6634 36.5658C65.4395 35.9577 65.8182 35.2142 65.6413 34.6476C64.884 33.3927 63.419 34.8549 62.3825 34.9267C61.263 35.0594 60.2624 34.1473 60.0303 33.0969C59.5714 32.0162 60.771 30.3522 59.5631 29.664C59.1872 29.5451 58.7229 29.8961 58.3469 30.0592C57.8826 30.2748 57.3712 30.3854 56.8599 30.402C55.1462 30.4959 53.5264 29.2853 53.0869 27.6407C53.0068 27.4416 52.8437 26.4632 53.0482 26.6594V26.6511Z" fill="#99962E"/>
<path d="M56.2622 26.9359C56.4972 27.895 57.5447 28.5611 58.5094 28.3842C59.3718 28.1963 59.9439 27.4749 60.7787 27.1763C62.2436 26.6208 63.0148 28.3124 63.9739 29.0255C65.2344 29.8077 65.8894 27.9116 66.9785 27.6131C68.5651 27.0575 69.1953 29.5369 70.6298 29.2991C71.3374 29.02 71.8543 28.0277 72.7609 28.2377C74.3696 28.7491 75.1325 30.6978 75.1739 32.2622C75.1159 33.5088 74.7096 34.8826 76.3321 35.2364C76.8821 35.3994 77.8606 35.8196 77.6948 36.4913C77.5041 35.8776 76.907 35.557 76.274 35.4216C74.5161 35.0733 74.7897 33.6498 74.8478 32.2705C74.7732 30.883 74.0821 29.1388 72.6835 28.6551C71.8709 28.5446 71.5116 29.5092 70.7708 29.7276C69.2063 30.2583 68.5872 27.743 67.1195 28.0608C66.1244 28.4395 65.4942 29.9708 64.2282 29.6225C62.8821 29.2826 62.4758 27.0575 60.8975 27.5191C60.0213 27.8148 59.2944 28.6662 58.3076 28.6634C57.3181 28.6689 56.3479 27.942 56.1738 26.9552C56.1627 26.8944 56.2567 26.8751 56.2705 26.9359H56.2622Z" fill="#99962E"/>
<path d="M71.1228 33.1439C74.4736 33.1439 77.1899 31.4436 77.1899 29.3461C77.1899 27.2486 74.4736 25.5483 71.1228 25.5483C67.772 25.5483 65.0557 27.2486 65.0557 29.3461C65.0557 31.4436 67.772 33.1439 71.1228 33.1439Z" fill="#4A4F09"/>
<path d="M71.1226 32.1959C74.0429 32.1959 76.4103 30.8779 76.4103 29.2521C76.4103 27.6264 74.0429 26.3084 71.1226 26.3084C68.2023 26.3084 65.835 27.6264 65.835 29.2521C65.835 30.8779 68.2023 32.1959 71.1226 32.1959Z" fill="#E8E891"/>
<path d="M74.4752 29.1581C74.4752 30.1587 72.9743 30.9686 71.1223 30.9686C69.2704 30.9686 67.7695 30.1587 67.7695 29.1581C67.7695 28.1575 69.2704 27.3477 71.1223 27.3477C72.9743 27.3477 74.4752 28.1575 74.4752 29.1581Z" fill="#FCFCC5"/>
<path d="M68.1348 29.1499C68.5881 28.879 69.4283 28.7988 69.796 29.1554C69.5002 29.4014 68.2232 29.5755 68.1348 29.1499Z" fill="#D3D17D"/>
<path d="M72.6124 29.3682C72.9884 29.1692 73.7485 29.2715 73.895 29.6668C73.5854 29.8492 72.5986 29.7967 72.6124 29.3682Z" fill="#D3D17D"/>
<path d="M72.4274 28.5722C72.4052 28.2461 73.005 27.8729 73.193 28.1466C73.1571 28.4617 72.6651 28.8763 72.4274 28.5722Z" fill="#D3D17D"/>
<path d="M69.738 27.6739C70.1001 27.7347 70.5396 28.3677 70.3129 28.6579C69.9784 28.5777 69.4229 27.9475 69.738 27.6739Z" fill="#D3D17D"/>
<path d="M71.5897 27.4832C71.9352 27.7927 71.761 28.3925 71.3741 28.5805C71.3354 28.5998 71.2884 28.5722 71.2829 28.5307C71.2608 28.2488 71.258 27.5274 71.5897 27.4832Z" fill="#D3D17D"/>
<path d="M69.8066 30.7862C69.8619 30.4518 70.3263 29.7939 70.658 29.8271C70.7796 30.2113 70.166 31.0958 69.8066 30.7862Z" fill="#D3D17D"/>
<path d="M71.8031 29.8243C72.0989 29.9819 72.6351 31.1566 71.922 30.6757C71.6787 30.5485 71.4383 29.8741 71.8031 29.8243Z" fill="#D3D17D"/>
<path d="M24.9236 34.2136C28.2743 34.2136 30.9907 32.8697 30.9907 31.2119C30.9907 29.554 28.2743 28.2101 24.9236 28.2101C21.5728 28.2101 18.8564 29.554 18.8564 31.2119C18.8564 32.8697 21.5728 34.2136 24.9236 34.2136Z" fill="#4A4F09"/>
<path d="M24.9234 33.4646C27.8437 33.4646 30.2111 32.4226 30.2111 31.1372C30.2111 29.8519 27.8437 28.8099 24.9234 28.8099C22.0031 28.8099 19.6357 29.8519 19.6357 31.1372C19.6357 32.4226 22.0031 33.4646 24.9234 33.4646Z" fill="#E8E891"/>
<path d="M24.9231 32.4944C26.7748 32.4944 28.2759 31.8533 28.2759 31.0626C28.2759 30.2718 26.7748 29.6308 24.9231 29.6308C23.0714 29.6308 21.5703 30.2718 21.5703 31.0626C21.5703 31.8533 23.0714 32.4944 24.9231 32.4944Z" fill="#FCFCC5"/>
<path d="M21.9355 31.057C22.3889 30.8442 23.2291 30.7806 23.5968 31.0598C23.301 31.2533 22.024 31.3915 21.9355 31.057Z" fill="#D3D17D"/>
<path d="M26.4162 31.2284C26.7921 31.0709 27.5522 31.1538 27.6987 31.4634C27.3891 31.6071 26.4023 31.5656 26.4162 31.2284Z" fill="#D3D17D"/>
<path d="M26.2311 30.601C26.209 30.3439 26.8088 30.0482 26.9967 30.2637C26.9608 30.5125 26.4688 30.8414 26.2311 30.601Z" fill="#D3D17D"/>
<path d="M23.5388 29.8906C23.9008 29.9404 24.3403 30.4379 24.1137 30.6673C23.7792 30.6038 23.2237 30.1062 23.5388 29.8906Z" fill="#D3D17D"/>
<path d="M25.3934 29.7386C25.7389 29.9846 25.5648 30.4572 25.1778 30.6065C25.1391 30.6203 25.0921 30.601 25.0866 30.565C25.0645 30.3412 25.0617 29.7718 25.3934 29.7386Z" fill="#D3D17D"/>
<path d="M23.6104 32.3506C23.6656 32.0853 24.13 31.5656 24.4617 31.5933C24.5833 31.8973 23.9697 32.5966 23.6104 32.3506Z" fill="#D3D17D"/>
<path d="M25.6058 31.5905C25.9016 31.7149 26.4378 32.6436 25.7247 32.2622C25.4815 32.1627 25.241 31.6264 25.6058 31.5905Z" fill="#D3D17D"/>
<path d="M25.9244 42.7242C24.0172 44.7503 20.8303 44.8636 18.7821 42.9702C16.7339 41.0796 16.5957 37.8926 18.4642 35.8306L19.0999 36.4194L25.2528 42.1023L25.9244 42.7242Z" fill="#BC3E20"/>
<path d="M25.2501 42.105C24.1141 42.7297 22.03 43.4705 19.9652 42.1023C17.7125 40.6097 18.5196 37.7986 19.0973 36.4221L25.2501 42.105Z" fill="#DD654E"/>
<path d="M19.3931 38.2547C19.5534 37.8014 20.2058 38.0447 20.1118 38.4455C19.9072 38.838 19.313 38.7108 19.3931 38.2547Z" fill="#E2A54D"/>
<path d="M21.6434 39.8966C21.8093 40.3499 21.1127 40.9635 20.7838 40.618C20.7009 40.1785 21.2482 39.5289 21.6434 39.8966Z" fill="#E2A54D"/>
<path d="M23.4311 41.1681C23.8014 41.4694 23.4228 42.1963 23.0137 42.0111C22.7207 41.6822 22.9556 40.9884 23.4311 41.1681Z" fill="#E2A54D"/>
<path d="M21.7344 26.8419C20.6592 29.4097 17.7182 30.6369 15.1338 29.5866C12.5522 28.5363 11.3028 25.6036 12.3255 23.0164L13.1271 23.3426L20.8859 26.4991L21.7344 26.8447V26.8419Z" fill="#BC3E20"/>
<path d="M20.8859 26.4964C20.0428 27.4804 18.3512 28.9067 15.9382 28.3511C13.304 27.7458 13.0691 24.8297 13.1299 23.3398L20.8886 26.4964H20.8859Z" fill="#DD654E"/>
<path d="M14.0499 24.9512C14.0416 24.4703 14.7381 24.4675 14.7879 24.8766C14.7354 25.3161 14.1356 25.4073 14.0499 24.9512Z" fill="#E2A54D"/>
<path d="M16.734 25.6975C17.0491 26.0652 16.6124 26.8833 16.184 26.6733C15.9518 26.2891 16.2337 25.4902 16.734 25.6975Z" fill="#E2A54D"/>
<path d="M18.8541 26.2586C19.3074 26.4107 19.2079 27.2233 18.7601 27.1929C18.3704 26.9883 18.3455 26.2531 18.8541 26.2586Z" fill="#E2A54D"/>
<path d="M46.8427 39.446C47.9318 42.0055 46.7571 44.9714 44.2031 46.0881C41.6491 47.2047 38.6749 46.0521 37.5361 43.5147L38.3294 43.1664L46.0025 39.8109L46.8427 39.4432V39.446Z" fill="#BC3E20"/>
<path d="M46.0021 39.8109C46.1182 41.1017 45.9607 43.3074 43.8793 44.6507C41.6073 46.1157 39.3573 44.2499 38.3291 43.1664L46.0021 39.8109Z" fill="#DD654E"/>
<path d="M40.1261 43.6335C39.7751 43.3046 40.2588 42.8043 40.5905 43.0531C40.8669 43.3986 40.5131 43.8906 40.1261 43.6335Z" fill="#E2A54D"/>
<path d="M42.5334 42.2322C43.0143 42.2626 43.299 43.1471 42.8485 43.3074C42.4118 43.2051 42.0359 42.445 42.5334 42.2322Z" fill="#E2A54D"/>
<path d="M44.4163 41.1044C44.842 40.8861 45.3561 41.5246 45.0217 41.8231C44.6043 41.9613 44.0598 41.4638 44.4163 41.1044Z" fill="#E2A54D"/>
<path d="M70.4592 35.1866C70.3707 37.9673 68.0628 40.1647 65.2738 40.1066C62.4876 40.0458 60.2736 37.7544 60.304 34.971L61.1692 34.9904L69.5415 35.1673L70.4564 35.1866H70.4592Z" fill="#BC3E20"/>
<path d="M69.5442 35.1673C69.1075 36.3862 68.0378 38.3238 65.5861 38.6666C62.9077 39.0425 61.6501 36.4028 61.1719 34.9876L69.5442 35.1645V35.1673Z" fill="#DD654E"/>
<path d="M62.6033 36.1651C62.4237 35.7201 63.0732 35.4685 63.2667 35.8334C63.3745 36.2618 62.8466 36.5603 62.6033 36.1651Z" fill="#E2A54D"/>
<path d="M65.3789 35.9025C65.8046 36.1319 65.6885 37.0523 65.2131 37.0109C64.8593 36.7344 64.8372 35.8859 65.3789 35.9025Z" fill="#E2A54D"/>
<path d="M67.5589 35.6703C68.037 35.651 68.2333 36.447 67.8049 36.5769C67.3681 36.5272 67.0834 35.8472 67.5589 35.6703Z" fill="#E2A54D"/>
<path d="M9.11107 37.2071C12.4619 37.2071 15.1782 35.5068 15.1782 33.4093C15.1782 31.3118 12.4619 29.6115 9.11107 29.6115C5.76029 29.6115 3.04395 31.3118 3.04395 33.4093C3.04395 35.5068 5.76029 37.2071 9.11107 37.2071Z" fill="#4A4F09"/>
<path d="M9.1109 36.259C12.0312 36.259 14.3986 34.9411 14.3986 33.3153C14.3986 31.6895 12.0312 30.3716 9.1109 30.3716C6.19061 30.3716 3.82324 31.6895 3.82324 33.3153C3.82324 34.9411 6.19061 36.259 9.1109 36.259Z" fill="#E8E891"/>
<path d="M12.4634 33.2213C12.4634 34.2219 10.9625 35.0318 9.11062 35.0318C7.2587 35.0318 5.75781 34.2219 5.75781 33.2213C5.75781 32.2207 7.2587 31.4108 9.11062 31.4108C10.9625 31.4108 12.4634 32.2207 12.4634 33.2213Z" fill="#FCFCC5"/>
<path d="M6.12305 33.2131C6.57635 32.9422 7.41663 32.8621 7.78425 33.2186C7.4885 33.4646 6.2115 33.6388 6.12305 33.2131Z" fill="#D3D17D"/>
<path d="M10.6007 33.4314C10.9766 33.2324 11.7368 33.3347 11.8833 33.7299C11.5737 33.9124 10.5869 33.8598 10.6007 33.4314Z" fill="#D3D17D"/>
<path d="M10.4156 32.6354C10.3935 32.3092 10.9933 31.9361 11.1813 32.2097C11.1453 32.5248 10.6533 32.9394 10.4156 32.6354Z" fill="#D3D17D"/>
<path d="M7.72625 31.7371C8.08835 31.7979 8.52783 32.4308 8.30118 32.7211C7.96673 32.6409 7.41115 32.0107 7.72625 31.7371Z" fill="#D3D17D"/>
<path d="M9.57796 31.5463C9.92347 31.8559 9.74933 32.4557 9.36236 32.6437C9.32366 32.663 9.27668 32.6354 9.27115 32.5939C9.24904 32.312 9.24627 31.5906 9.57796 31.5463Z" fill="#D3D17D"/>
<path d="M7.79492 34.8494C7.8502 34.5149 8.31457 33.8571 8.64625 33.8902C8.76787 34.2745 8.15425 35.159 7.79492 34.8494Z" fill="#D3D17D"/>
<path d="M9.7914 33.8875C10.0872 34.0451 10.6234 35.2198 9.91025 34.7388C9.66701 34.6117 9.42654 33.9373 9.7914 33.8875Z" fill="#D3D17D"/>
<path d="M38.5146 36.9169C39.7059 38.6417 38.4344 41.5854 35.6759 43.4871C32.9173 45.3888 29.7165 45.5325 28.5252 43.8077C27.3339 42.0829 28.6054 39.1392 31.3639 37.2375C34.1225 35.3359 37.3233 35.1921 38.5146 36.9169Z" fill="#4A4F09"/>
<path d="M35.139 42.7115C37.5428 41.0532 38.7431 38.6241 37.8199 37.2858C36.8967 35.9476 34.1996 36.207 31.7958 37.8653C29.392 39.5236 28.1917 41.9527 29.1149 43.2909C30.0381 44.6292 32.7352 44.3697 35.139 42.7115Z" fill="#E8E891"/>
<path d="M36.1762 38.3044C36.7428 39.1281 35.9689 40.6456 34.4431 41.6987C32.9201 42.7491 31.2229 42.937 30.6563 42.1133C30.0897 41.2896 30.8636 39.7722 32.3894 38.719C33.9124 37.6687 35.6095 37.4807 36.1762 38.3044Z" fill="#FCFCC5"/>
<path d="M30.9502 41.8978C31.1686 41.4168 31.8153 40.8751 32.3212 40.958C32.2161 41.3284 31.2653 42.1991 30.9502 41.8978Z" fill="#D3D17D"/>
<path d="M34.7617 39.5345C34.9607 39.1558 35.6407 38.8103 35.9862 39.0508C35.8342 39.3769 34.9911 39.8938 34.7617 39.5345Z" fill="#D3D17D"/>
<path d="M34.1563 38.9844C33.9545 38.7301 34.2337 38.0806 34.546 38.1994C34.6953 38.4786 34.5267 39.1005 34.1563 38.9844Z" fill="#D3D17D"/>
<path d="M31.4336 39.775C31.7653 39.6202 32.4867 39.8883 32.4674 40.2587C32.1467 40.3831 31.3313 40.1813 31.4336 39.775Z" fill="#D3D17D"/>
<path d="M32.8488 38.5643C33.3076 38.6223 33.5066 39.2166 33.2938 39.5897C33.2717 39.6257 33.2192 39.6312 33.1888 39.6008C33.0119 39.3797 32.5972 38.7909 32.846 38.5643H32.8488Z" fill="#D3D17D"/>
<path d="M33.258 42.2958C33.1143 41.989 33.1226 41.1846 33.4156 41.0243C33.7362 41.2703 33.7307 42.3483 33.258 42.2958Z" fill="#D3D17D"/>
<path d="M34.3557 40.3693C34.6874 40.3306 35.7986 40.9912 34.9362 41.0022C34.6625 41.0354 34.0821 40.618 34.3557 40.3693Z" fill="#D3D17D"/>
<path d="M60.9834 43.1719C60.2675 44.6562 57.2409 44.6811 54.2225 43.2245C51.2042 41.7678 49.3384 39.3852 50.0543 37.9009C50.7702 36.4166 53.7968 36.3917 56.8152 37.8483C59.8336 39.305 61.6993 41.6876 60.9834 43.1719Z" fill="#4A4F09"/>
<path d="M60.3116 42.7656C59.7561 43.9182 57.1744 43.8215 54.543 42.5528C51.9144 41.2841 50.2311 39.3216 50.7867 38.1717C51.3423 37.0191 53.9239 37.1159 56.5553 38.3846C59.1839 39.6533 60.8672 41.6158 60.3116 42.7656Z" fill="#E8E891"/>
<path d="M58.6032 41.859C58.2632 42.5666 56.6324 42.4892 54.9657 41.6849C53.299 40.8805 52.2238 39.6533 52.5637 38.9457C52.9037 38.2381 54.5345 38.3155 56.2013 39.1198C57.868 39.9242 58.9432 41.1514 58.6032 41.859Z" fill="#FCFCC5"/>
<path d="M52.8962 39.0977C53.3965 39.1032 54.1815 39.4101 54.3915 39.8219C54.0405 39.8689 52.8298 39.4349 52.8962 39.0977Z" fill="#D3D17D"/>
<path d="M56.8544 41.1984C57.2607 41.2205 57.9103 41.6241 57.9075 41.9668C57.5675 41.9613 56.6941 41.4942 56.8544 41.1984Z" fill="#D3D17D"/>
<path d="M56.959 40.5544C57.0502 40.3139 57.7163 40.3084 57.7937 40.5848C57.6555 40.7921 57.0695 40.8723 56.959 40.5544Z" fill="#D3D17D"/>
<path d="M54.8419 38.7495C55.1459 38.9512 55.3284 39.5897 55.0243 39.6975C54.7507 39.4957 54.466 38.8075 54.8419 38.7495Z" fill="#D3D17D"/>
<path d="M56.5775 39.4184C56.782 39.786 56.4227 40.137 56.0081 40.1011C55.9666 40.0983 55.9335 40.0569 55.9445 40.0264C56.0219 39.8164 56.2652 39.305 56.5775 39.4184Z" fill="#D3D17D"/>
<path d="M53.8447 40.9828C54.0078 40.77 54.6518 40.5074 54.9393 40.6733C54.9172 40.9994 54.0631 41.356 53.8447 40.9828Z" fill="#D3D17D"/>
<path d="M55.9699 41.168C56.1828 41.4085 56.2657 42.4726 55.7875 41.8231C55.6106 41.6268 55.6244 41.0436 55.9699 41.168Z" fill="#D3D17D"/>
<path d="M59.8645 28.5058C58.3111 29.4843 57.5648 31.093 58.2005 32.0991C58.8335 33.1052 60.608 33.1273 62.1614 32.1461C63.7148 31.1676 64.4611 29.5589 63.8254 28.5528C63.1924 27.5467 61.4179 27.5246 59.8645 28.5058Z" fill="black"/>
<path d="M59.301 31.4191C59.5055 31.8033 59.5138 32.1986 59.3148 32.3036C59.1158 32.4087 58.7897 32.1848 58.5851 31.8033C58.3806 31.4191 58.3723 31.0239 58.5713 30.9188C58.7703 30.8138 59.0965 31.0377 59.301 31.4191Z" fill="#2B323F"/>
<path d="M60.127 29.1692C60.2237 28.796 60.9424 28.4008 61.216 28.6799C61.0999 29.0254 60.3757 29.5368 60.127 29.1692Z" fill="#454D5B"/>
<path d="M27.757 36.928C26.3943 35.6979 24.6447 35.4133 23.8458 36.2978C23.0498 37.1795 23.5086 38.8932 24.8713 40.1232C26.234 41.3532 27.9836 41.6379 28.7825 40.7534C29.5785 39.8717 29.1197 38.158 27.757 36.928Z" fill="black"/>
<path d="M24.7992 37.1684C24.4869 37.4697 24.1054 37.5831 23.9507 37.4227C23.7959 37.2624 23.923 36.8865 24.2354 36.5852C24.5477 36.2839 24.9291 36.1706 25.0839 36.3309C25.2387 36.4913 25.1116 36.8672 24.7992 37.1684Z" fill="#2B323F"/>
<path d="M27.1874 37.3592C27.5744 37.3509 28.1465 37.9368 27.9531 38.2768C27.591 38.2575 26.9027 37.6991 27.1874 37.3592Z" fill="#454D5B"/>
<path d="M12.0295 39.6118C13.8261 39.2332 15.4818 39.8661 15.7278 41.0298C15.9738 42.1935 14.7161 43.4428 12.9195 43.8243C11.1228 44.2029 9.46717 43.57 9.22116 42.4063C8.97516 41.2426 10.2328 39.9933 12.0295 39.6118Z" fill="black"/>
<path d="M14.4649 41.3062C14.5838 41.7236 14.8546 42.0138 15.0702 41.9502C15.2858 41.8894 15.3632 41.4997 15.2444 41.0823C15.1255 40.665 14.8546 40.3747 14.639 40.4383C14.4234 40.4991 14.346 40.8888 14.4649 41.3062Z" fill="#2B323F"/>
<path d="M12.3029 40.2697C11.9712 40.0679 11.1834 40.2863 11.1807 40.6788C11.5041 40.8446 12.3775 40.7092 12.3029 40.2697Z" fill="#454D5B"/>
<path d="M20.9709 21.3027C22.7675 20.924 24.4232 21.557 24.6692 22.7207C24.9152 23.8843 23.6575 25.1337 21.8609 25.5151C20.0642 25.8938 18.4086 25.2608 18.1626 24.0972C17.9166 22.9335 19.1742 21.6841 20.9709 21.3027Z" fill="black"/>
<path d="M23.4063 22.9998C23.5252 23.4172 23.796 23.7074 24.0144 23.6439C24.23 23.583 24.3074 23.1933 24.1885 22.7759C24.0697 22.3586 23.7988 22.0683 23.5804 22.1319C23.3648 22.1927 23.2874 22.5825 23.4063 22.9998Z" fill="#2B323F"/>
<path d="M21.2443 21.9605C20.9126 21.7588 20.1248 21.9771 20.1221 22.3696C20.4455 22.5355 21.3189 22.4 21.2443 21.9605Z" fill="#454D5B"/>
<path d="M66.5162 42.7858C66.7445 41.6188 65.4686 40.3869 63.6663 40.0342C61.8641 39.6816 60.2179 40.3419 59.9896 41.5089C59.7613 42.676 61.0372 43.9079 62.8395 44.2605C64.6417 44.6131 66.2879 43.9529 66.5162 42.7858Z" fill="black"/>
<path d="M65.2408 42.5418C65.1883 42.973 65.3237 43.3461 65.5476 43.3738C65.7715 43.4014 65.9926 43.0752 66.0479 42.644C66.1004 42.2128 65.965 41.8397 65.7411 41.8121C65.5172 41.7844 65.2961 42.1106 65.2408 42.5418Z" fill="#2B323F"/>
<path d="M63.657 40.7424C63.4303 40.4273 62.6177 40.3195 62.4629 40.6816C62.6951 40.9608 63.5547 41.1763 63.657 40.7424Z" fill="#454D5B"/>
<path d="M76.9685 34.1777C78.7707 34.5315 80.0477 35.7615 79.8182 36.928C79.5888 38.0944 77.9442 38.755 76.142 38.4012C74.3399 38.0474 73.0629 36.8174 73.2923 35.651C73.5217 34.4845 75.1663 33.8239 76.9685 34.1777Z" fill="black"/>
<path d="M78.5464 36.6875C78.4939 37.1187 78.6294 37.4918 78.8533 37.5195C79.0771 37.5471 79.2983 37.2209 79.3536 36.7897C79.4061 36.3585 79.2706 35.9854 79.0467 35.9578C78.8229 35.9301 78.6017 36.2563 78.5464 36.6875Z" fill="#2B323F"/>
<path d="M76.9626 34.8881C76.736 34.573 75.9233 34.4652 75.7686 34.8273C76.0007 35.1064 76.8604 35.322 76.9626 34.8881Z" fill="#454D5B"/>
<path d="M43.6534 22.2895C43.9989 22.9998 39.9578 30.3854 39.5764 31.0737C39.5571 31.1068 39.5488 31.1262 39.5488 31.1262C39.5488 31.1262 37.5669 32.9284 36.5912 32.6409C36.5912 32.6409 26.3448 28.2626 25.9385 27.6987C25.5902 27.2123 25.6842 25.8523 25.9993 25.1282C26.0491 25.0121 26.1043 24.9126 26.1652 24.8352C27.1298 23.6024 32.6911 17.6127 33.396 17.7951C34.1478 17.9858 43.2885 21.5459 43.6506 22.2895H43.6534Z" fill="#F4EDDA"/>
<path d="M39.5764 31.0764C39.5571 31.1096 39.5488 31.1289 39.5488 31.1289C39.5488 31.1289 37.5669 32.9311 36.5912 32.6437C36.5912 32.6437 26.3448 28.2654 25.9385 27.7015C25.5902 27.215 25.6842 25.8551 25.9993 25.1309L39.5764 31.0792V31.0764Z" fill="#D8CCAF"/>
<path d="M56.94 29.2494C56.5668 30.0758 46.8788 32.0466 45.9694 32.229C45.9252 32.2373 45.9031 32.2428 45.9031 32.2428C45.9031 32.2428 42.7769 31.8559 42.2877 30.7945C42.2877 30.7945 38.3793 18.6298 38.5755 17.8586C38.7441 17.1925 40.0349 16.2665 40.9222 16.0012C41.0659 15.957 41.1958 15.9321 41.3119 15.9293C43.1528 15.8547 52.7524 16.2417 53.1311 16.9907C53.5319 17.7868 57.3297 28.3814 56.94 29.2494Z" fill="#F4EDDA"/>
<path d="M45.9694 32.2291C45.9252 32.2373 45.9031 32.2429 45.9031 32.2429C45.9031 32.2429 42.7769 31.8559 42.2877 30.7945C42.2877 30.7945 38.3793 18.6298 38.5755 17.8587C38.7441 17.1925 40.0349 16.2666 40.9222 16.0012L45.9694 32.2291Z" fill="#D8CCAF"/>
<path d="M53.3549 28.3234C54.6983 30.7586 53.8331 33.8267 51.4063 35.2004C48.9794 36.5714 45.9058 35.7284 44.5127 33.3209L45.2673 32.8952L52.5589 28.774L53.3549 28.3234Z" fill="#BC3E20"/>
<path d="M52.5563 28.774C52.805 30.0455 52.8714 32.2567 50.9365 33.8046C48.8248 35.4934 46.3952 33.8654 45.2646 32.8952L52.5563 28.774Z" fill="#DD654E"/>
<path d="M47.0996 33.1744C46.7181 32.8814 47.1465 32.3341 47.5003 32.5497C47.8127 32.8648 47.5086 33.39 47.0996 33.1744Z" fill="#E2A54D"/>
<path d="M49.3526 31.5353C49.8363 31.5159 50.2067 32.3673 49.7755 32.5718C49.3305 32.5165 48.8799 31.7979 49.3526 31.5353Z" fill="#E2A54D"/>
<path d="M51.107 30.2224C51.5078 29.9625 52.0827 30.5458 51.7814 30.8774C51.3806 31.0571 50.7891 30.6176 51.107 30.2224Z" fill="#E2A54D"/>
<path d="M39.6094 31.1123C38.3711 29.7579 36.6546 29.3074 35.7784 30.109C34.9022 30.9106 35.1952 32.6602 36.4335 34.0146C37.6718 35.369 39.3882 35.8195 40.2645 35.018C41.1407 34.2164 40.8477 32.4667 39.6094 31.1123Z" fill="black"/>
<path d="M36.6436 31.0709C36.3037 31.3418 35.9139 31.4164 35.7757 31.2423C35.6375 31.0654 35.8006 30.706 36.1406 30.4352C36.4806 30.1643 36.8703 30.0897 37.0085 30.2638C37.1467 30.4407 36.9836 30.8 36.6436 31.0709Z" fill="#2B323F"/>
<path d="M39.0045 31.4855C39.3915 31.5159 39.9056 32.1516 39.679 32.4722C39.3196 32.4197 38.6894 31.7978 39.0045 31.4855Z" fill="#454D5B"/>
<path d="M44.7758 22.6736C45.102 23.0385 45.2955 23.8346 44.9887 24.2022C44.704 23.9479 44.3668 22.8257 44.7758 22.6736Z" fill="#AF9380"/>
<path d="M31.6406 21.1534C31.7788 20.7333 32.4311 20.2026 32.8402 20.3518C32.7545 20.7056 31.9364 21.4602 31.6406 21.1534Z" fill="#AF9380"/>
<path d="M33.0088 21.6399C33.1387 21.4298 34.3217 20.8106 34.3991 21.0898C34.2858 21.4961 33.2023 22.0876 33.0088 21.6399Z" fill="#AF9380"/>
<path d="M34.0869 19.8045C34.4048 19.5806 35.1925 19.6553 35.3031 20.0284C35.0018 20.2247 34.1063 20.233 34.0869 19.8045Z" fill="#AF9380"/>
<path d="M36.5962 21.1534C36.9694 21.1119 37.5941 21.5818 37.4807 21.9411C37.1325 21.9605 36.3862 21.5182 36.5962 21.1534Z" fill="#AF9380"/>
<path d="M34.9297 23.8235C35.3001 23.5443 36.0878 23.4641 36.3753 23.8124C36.0878 24.0612 35.0375 24.2464 34.9297 23.8235Z" fill="#AF9380"/>
<path d="M29.2305 23.8484C29.3244 23.4808 29.9768 23.0468 30.2836 23.2707C30.1979 23.5996 29.4848 24.1745 29.2305 23.8484Z" fill="#AF9380"/>
<path d="M42.1494 17.8255C42.318 17.0128 44.4436 17.3031 43.2385 17.6624C43.0256 17.7094 42.2406 18.0687 42.1494 17.8255Z" fill="#AF9380"/>
<path d="M43.6089 19.0886C44.2142 19.0444 45.0877 19.2987 45.3862 19.8045C44.9605 19.9012 43.5785 19.5474 43.6089 19.0886Z" fill="#AF9380"/>
<path d="M47.1722 18.0272C47.5536 17.9996 49.3558 18.7763 48.1341 18.7486C47.8328 18.7735 46.9538 18.3506 47.1722 18.0272Z" fill="#AF9380"/>
<path d="M47.3298 20.6697C47.9849 20.9958 49.0933 22.5023 47.573 21.4685C47.4183 21.3524 47.0562 20.7471 47.3298 20.6697Z" fill="#AF9380"/>
<path d="M48.3024 19.7299C49.0239 19.6691 50.6851 20.3573 48.905 20.2799C48.7032 20.2523 48.12 19.951 48.3024 19.7299Z" fill="#AF9380"/>
<path d="M50.1182 18.3036C50.4194 18.0411 52.6749 17.4136 51.4919 18.218C51.2487 18.4197 50.1707 18.6961 50.1182 18.3036Z" fill="#AF9380"/>
<path d="M52.6201 19.2323C53.3415 18.9062 54.0574 20.6752 53.2144 19.9621C53.0596 19.8156 52.4846 19.4507 52.6201 19.2323Z" fill="#AF9380"/>
<path d="M51.9232 21.3662C52.5755 21.463 53.2002 22.4442 52.8768 22.9998C52.6557 22.7648 52.5313 22.4691 52.3406 22.2203C52.2715 22.06 51.7242 21.4685 51.9232 21.369V21.3662Z" fill="#AF9380"/>
<path d="M52.4291 25.4184C52.852 25.388 53.1007 26.2172 52.7055 26.3139C52.5065 26.1287 52.1748 25.634 52.4291 25.4184Z" fill="#AF9380"/>
<path d="M49.9079 37.5886L49.7697 37.8843L49.6177 38.2105C49.6177 38.2105 46.3285 39.6284 43.5451 35.8831C40.7616 32.1378 42.6357 30.1118 42.6357 30.1118L42.8513 30.2527L43.0807 30.402C43.0807 30.402 42.3703 32.0217 44.4987 35.2115C46.6242 38.4012 49.9135 37.5913 49.9135 37.5913L49.9079 37.5886Z" fill="#772C3E"/>
<path d="M49.9081 37.5886L49.7699 37.8843C48.7997 38.1248 46.301 38.368 44.1119 35.4271C42.2074 32.8648 42.4811 31.1068 42.8459 30.2527L43.0753 30.402C43.0753 30.402 42.365 32.0217 44.4933 35.2115C46.6189 38.4012 49.9081 37.5913 49.9081 37.5913V37.5886Z" fill="#F4EDDA"/>
<path d="M32.6849 30.6866L32.8728 30.952L33.0801 31.2478C33.0801 31.2478 32.6793 34.8079 28.0468 35.369C23.4142 35.9301 22.585 33.2987 22.585 33.2987L22.8144 33.1826L23.0576 33.0582C23.0576 33.0582 24.1135 34.4762 27.9362 34.2108C31.7589 33.9455 32.6876 30.6866 32.6876 30.6866H32.6849Z" fill="#772C3E"/>
<path d="M32.6848 30.6866L32.8727 30.952C32.5991 31.9139 31.5736 34.2053 27.9333 34.6476C24.763 35.0318 23.3726 33.9206 22.8115 33.1826L23.0548 33.0582C23.0548 33.0582 24.1106 34.4762 27.9333 34.2108C31.756 33.9455 32.6848 30.6866 32.6848 30.6866Z" fill="#F4EDDA"/>
<path d="M10.0508 28.2847L10.2802 28.0525L10.5345 27.7982C10.5345 27.7982 14.1084 27.5633 15.4794 32.0245C16.8504 36.4857 14.4069 37.7654 14.4069 37.7654L14.2522 37.5609L14.0863 37.3425C14.0863 37.3425 15.297 36.0545 14.36 32.3368C13.4229 28.6219 10.0535 28.2819 10.0535 28.2819L10.0508 28.2847Z" fill="#772C3E"/>
<path d="M10.0508 28.2847L10.2802 28.0525C11.2753 28.152 13.7132 28.7573 14.7884 32.2622C15.7254 35.3165 14.8796 36.8782 14.2494 37.5609L14.0836 37.3425C14.0836 37.3425 15.2942 36.0545 14.3572 32.3368C13.4202 28.6219 10.0508 28.2819 10.0508 28.2819V28.2847Z" fill="#F4EDDA"/>
<path d="M55.3203 31.1123L55.4862 31.3114L55.6686 31.5297C55.6686 31.5297 58.5626 31.983 60.1077 28.5832C61.6528 25.1834 59.7815 23.9949 59.7815 23.9949L59.635 24.1441L59.4802 24.3017C59.4802 24.3017 60.3454 25.4045 59.2259 28.2515C58.1065 31.0985 55.3258 31.1096 55.3258 31.1096L55.3203 31.1123Z" fill="#772C3E"/>
<path d="M55.3203 31.1123L55.4862 31.3113C56.3071 31.3113 58.3525 31.0156 59.5659 28.3455C60.6218 26.0181 60.08 24.7273 59.6323 24.1441L59.4775 24.3017C59.4775 24.3017 60.3426 25.4045 59.2232 28.2515C58.1037 31.0985 55.3231 31.1096 55.3231 31.1096L55.3203 31.1123Z" fill="#F4EDDA"/>
<path d="M23.7987 41.0768L23.5665 41.1901L23.3095 41.3145C23.3095 41.3145 22.1845 44.0177 25.1199 46.323C28.0581 48.6282 29.6558 47.0914 29.6558 47.0914L29.5452 46.9145L29.4291 46.7265C29.4291 46.7265 28.1521 47.3042 25.6506 45.5435C23.1491 43.7828 23.7959 41.0768 23.7959 41.0768H23.7987Z" fill="#772C3E"/>
<path d="M23.7989 41.0768L23.5667 41.1901C23.3732 41.9889 23.1742 44.0454 25.4822 45.8559C27.4917 47.4341 28.8765 47.213 29.5481 46.9145L29.432 46.7265C29.432 46.7265 28.155 47.3042 25.6535 45.5435C23.1521 43.7828 23.7989 41.0768 23.7989 41.0768Z" fill="#F4EDDA"/>
<path d="M72.3246 40.0016L72.6314 39.8938L72.9714 39.7749C72.9714 39.7749 74.7127 36.6433 71.266 33.4978C67.8192 30.3522 65.6162 32.0107 65.6162 32.0107L65.7351 32.2373L65.8622 32.4806C65.8622 32.4806 67.5455 31.9388 70.5031 34.374C73.4606 36.8091 72.3246 40.0016 72.3246 40.0016Z" fill="#772C3E"/>
<path d="M72.3249 40.0016L72.6317 39.8938C72.9689 38.9512 73.4609 36.4912 70.7549 34.0174C68.3971 31.8642 66.6199 31.9609 65.7354 32.2373L65.8625 32.4805C65.8625 32.4805 67.5458 31.9388 70.5034 34.3739C73.4609 36.8091 72.3249 40.0016 72.3249 40.0016Z" fill="#F4EDDA"/>
<path d="M42.0498 49.0926L42.2267 49.3662L42.423 49.6675C42.423 49.6675 45.8697 50.6377 48.1363 46.5579C50.4028 42.4782 48.2772 40.7175 48.2772 40.7175L48.0838 40.8861L47.8765 41.0657C47.8765 41.0657 48.7941 42.5777 47.1053 46.0189C45.4192 49.4602 42.0498 49.0926 42.0498 49.0926Z" fill="#772C3E"/>
<path d="M42.0496 49.0926L42.2265 49.3663C43.2216 49.4768 45.7314 49.3884 47.5087 46.1821C49.0593 43.3904 48.5535 41.6849 48.0808 40.8861L47.8735 41.0658C47.8735 41.0658 48.7912 42.5777 47.1024 46.019C45.4163 49.4602 42.0469 49.0926 42.0469 49.0926H42.0496Z" fill="#F4EDDA"/>
</g>
<defs>
<clipPath id="clip0_612_1897">
<rect width="81.7915" height="58.601" fill="white"/>
</clipPath>
</defs>
</svg>
