<svg width="88" height="67" viewBox="0 0 88 67" fill="none" xmlns="http://www.w3.org/2000/svg">
<g clip-path="url(#clip0_612_698)">
<path d="M15.7496 31.96C17.8396 27.71 17.7696 23.11 20.3196 18.86C26.2396 9.02004 39.3296 4.35004 50.5296 7.10004C55.8996 8.42004 63.1096 13.01 64.0496 19.09C64.8996 24.56 55.8796 26.53 51.9896 27.49C48.6096 28.32 46.3096 29.49 43.2896 31.13C39.8896 32.98 35.8796 33.79 32.5396 35.82C28.3396 38.37 24.7096 42.97 21.4396 46.58C20.4296 47.7 19.6396 50.24 18.2496 50.89C15.9796 51.95 16.3796 48.63 16.0096 46.74C15.0696 42.02 13.4896 36.55 15.7496 31.95V31.96Z" fill="#DD8507"/>
<path d="M45.1602 18.77C45.2102 18.7 45.2402 18.6 45.2702 18.51C46.4702 18.74 48.3102 17.85 49.4302 17.38C51.0902 16.68 52.7402 16.04 54.2902 15.1C56.4502 13.79 58.1702 12.09 59.5002 9.86002C60.1202 8.81002 60.3302 5.99002 61.6702 5.70002C62.7602 5.47002 62.6002 6.64002 63.3602 6.87002C64.1802 7.13002 64.6602 5.79002 65.6102 6.61002C66.8702 7.71002 65.9602 10.2 65.4202 11.43C64.6202 13.24 63.4002 14.52 61.8602 15.61C58.8102 17.74 55.6102 19.13 51.9602 19.54C50.7502 19.68 49.6002 20.31 48.3802 20.43C47.2802 20.54 46.1602 20.59 45.0802 20.43C44.4202 20.33 42.9402 19.93 43.2002 18.95C43.5702 17.53 45.3102 19.05 46.0302 18.75H45.1802L45.1602 18.77Z" fill="#FF3203"/>
<path d="M63.36 7.29005C63.37 6.81005 62.61 6.24005 62.06 5.98005C61.15 5.54005 60.65 5.78005 59.94 6.58005C58.79 7.89005 58.78 9.78005 57.79 11.23C55.74 14.25 53 15.86 49.77 16.74C48.61 17.06 47.64 17.55 46.59 18.1C45.38 18.73 44.13 17.98 43 18.59C43.57 20.29 46.93 19.03 47.99 18.59C48.91 18.21 49.74 18.02 50.61 17.75C51.29 17.54 50.95 17.3 51.74 17.5C52.28 17.63 52.53 17.96 53.16 17.86C53.05 15.28 55.05 16.86 56.17 15.38C56.65 14.74 56.75 13.82 57.41 13.3C58.03 12.81 58.93 12.92 59.58 12.63C61.37 11.83 59.31 10.14 60.55 8.70005C62.31 6.66005 61.76 11.09 63.19 10.38C64.33 9.81005 63.8 7.57005 63.17 6.79005L63.36 7.29005Z" fill="#FF5033"/>
<path d="M61.1898 5.91004C62.0098 5.39004 61.9698 6.98004 62.2198 7.30004C62.7498 7.97004 63.2098 7.17004 63.8498 7.67004C64.7498 8.36004 63.8598 11.61 62.6898 10.65C62.2098 11.13 63.0198 12 62.1298 12.34C61.6398 12.52 60.4198 11.56 60.3298 12.73C60.2598 13.61 61.6698 13.36 61.0198 14.53C60.7498 15.02 59.7898 15.47 59.3198 15.72C58.6998 16.05 58.0198 16.26 57.3898 16.46C56.5998 16.71 55.9198 17.15 55.1698 17.49C54.6498 17.72 53.9298 18.25 53.3598 18.16C52.4098 18.02 52.7998 17.43 51.7398 18.04C49.2298 19.46 45.4298 21.53 43.3498 18.37C43.1398 18.41 42.9198 18.56 42.7998 18.75C43.8498 21.31 49.0698 20.49 50.9198 19.84C53.6298 18.88 56.3398 19.03 58.8398 17.39C61.4998 15.65 64.0898 14.16 65.2698 10.86C65.6098 9.91004 66.3798 7.49004 65.4398 6.66004C64.6798 5.99004 64.0398 6.92004 63.2598 6.69004C62.6198 6.49004 62.4298 5.95004 61.6598 5.80004C61.3398 5.74004 61.0698 5.68004 60.7198 5.72004C60.7398 5.87004 60.8198 5.72004 60.8998 5.80004L61.1798 5.90004L61.1898 5.91004Z" fill="#CD3135"/>
<path opacity="0.57" d="M61.94 6.30006C60.32 4.69006 58.38 11.0601 57.91 11.9401C56.98 13.6701 54.34 16.3601 52.25 16.1901C54.13 16.3901 56.36 14.3701 57.48 13.0001C58.07 12.2801 58.69 11.3001 59.13 10.4701C59.43 9.90006 59.74 8.12006 60.59 9.25006C60.51 7.42006 61.25 8.52006 62.48 8.16006C62.49 7.49006 62.33 6.30006 61.55 6.20006L61.93 6.30006H61.94Z" fill="white"/>
<path d="M62.7901 6.40003C62.2801 6.33003 61.6901 5.43003 61.9401 4.83003C62.5401 5.33003 62.5501 5.60003 63.2801 5.24003C63.6501 5.06003 64.0501 4.59003 64.3001 4.23003C64.9801 3.22003 65.4001 2.08003 66.2801 1.16003C67.1501 0.250027 68.5101 -0.279973 69.6801 0.150027C70.5001 0.450027 72.1401 2.45003 71.3701 3.25003C70.7601 2.62003 70.8701 1.82003 69.9401 1.29003C69.0901 0.800027 67.9301 0.610027 67.1101 1.14003C65.9201 1.90003 64.1101 5.11003 65.0201 6.39003C64.2801 6.81003 63.2501 7.10003 62.6101 6.31003L62.8001 6.41003L62.7901 6.40003Z" fill="#098209"/>
<path d="M55.5196 13.45C56.0196 10.75 48.3096 8.57 46.8296 10.66C44.0996 6.89 42.0896 10.76 38.3996 10.13C38.1296 8.72 37.0996 8.72 36.0096 8.99C34.3396 9.4 34.4296 10.5 33.6796 11.78C33.8996 11.41 32.1296 13.23 32.4996 12.99C32.2896 13.13 31.3896 13.68 31.2496 13.76C30.5996 14.17 29.0896 13.31 29.3996 15.54C28.5396 15.8 26.4696 15.46 25.8996 15.79C25.2996 16.14 25.1796 17.1 24.7296 17.45C25.0196 17.22 23.2996 18.77 23.5696 18.39C23.0196 19.18 22.6096 20.32 21.9396 21.21C21.4596 21.84 20.3596 22.05 19.8596 22.86C19.4296 23.56 19.8296 24.25 19.5296 24.92C17.5496 29.34 14.2096 35.37 15.1596 40.65C18.6396 31.31 23.2496 21.72 32.2596 16.69C34.0196 15.7 36.0796 15.71 37.6696 14.65C38.4096 14.15 38.4196 13.39 39.2996 12.98C39.9696 12.67 41.5896 12.79 42.3596 12.75C45.6096 12.59 50.9096 11.57 53.8796 12.75C54.6896 13.07 55.9196 14.22 56.4296 14.86C56.1896 14.83 56.0396 14.68 55.9896 14.4L55.5196 13.46V13.45Z" fill="#661F03"/>
<path d="M27.38 17.33C25.34 16.87 25.84 18.98 25.41 20.12C25.03 21.1 23.98 21.78 24.06 22.95C25.21 22.82 26.73 20.76 27.73 19.98C28.66 19.26 30.58 18.45 30.88 17.37C29.57 17.08 28.19 16.63 27.03 17.51L27.38 17.33Z" fill="#CD3135"/>
<path d="M33.2 10.11C33.18 10.37 32.88 11.07 32.82 11.5C32.14 11.17 32.01 10.15 31.09 10.15C31.09 10.15 28.57 11.23 28.61 11.2C25.95 13.78 30.76 13.81 29.52 16.07C29.69 16.13 29.88 16.21 30.04 16.26C31.23 14.36 34.23 12.36 36.52 12.55C37.56 10.74 34.38 9.55005 33.38 10.64L33.2 10.11Z" fill="#87A332"/>
<path d="M43.4202 9.22002C42.8602 8.01002 45.5102 4.16002 46.9202 3.96002C47.2102 5.81002 45.7502 7.13002 45.5602 8.84002C46.2402 8.96002 46.9902 8.82002 47.6302 8.72002C47.5402 9.12002 47.7702 9.68002 47.6802 10.08C49.2702 10.33 52.6602 8.69002 52.5602 11.84C50.5902 11.68 46.8602 9.63002 45.0102 11.19C44.4302 10.24 44.5702 8.83002 42.8902 9.35002C41.7402 9.71002 41.6402 11.32 40.1002 11.14C39.7002 9.23002 42.2202 8.71002 43.4202 9.23002V9.22002Z" fill="#87A332"/>
<path d="M38.7099 20.31C38.6199 20.34 38.5399 20.39 38.4599 20.44C37.6599 19.52 35.6599 19.09 34.4899 18.77C32.7499 18.29 31.0499 17.79 29.2599 17.58C26.7599 17.29 24.3499 17.57 21.9299 18.51C20.7899 18.95 18.8899 21.05 17.6599 20.46C16.6499 19.97 17.4999 19.15 17.0399 18.49C16.5499 17.78 15.3499 18.54 15.1099 17.31C14.7899 15.67 17.0399 14.26 18.2299 13.62C19.9699 12.69 21.7199 12.42 23.5999 12.52C27.3099 12.71 30.6999 13.59 33.8299 15.51C34.8699 16.15 36.1699 16.35 37.1999 17.01C38.1299 17.6 39.0499 18.25 39.7999 19.04C40.2599 19.52 41.1799 20.75 40.3799 21.37C39.2199 22.27 38.7799 19.99 38.0299 19.79L38.6999 20.31H38.7099Z" fill="#FF3203"/>
<path d="M17.3 18.16C16.99 18.53 17.25 19.45 17.52 19.99C17.97 20.9 18.51 21.02 19.56 20.82C21.27 20.5 22.44 19.01 24.11 18.47C27.58 17.35 30.73 17.77 33.82 19.05C34.93 19.51 36 19.72 37.16 19.94C38.5 20.18 39.03 21.54 40.3 21.76C40.9 20.07 37.47 19 36.37 18.69C35.41 18.42 34.64 18.07 33.79 17.74C33.12 17.49 33.25 17.88 32.74 17.24C32.4 16.81 32.4 16.39 31.84 16.09C30.34 18.19 29.73 15.72 27.94 16.19C27.17 16.4 26.52 17.06 25.68 17.07C24.89 17.07 24.25 16.43 23.56 16.26C21.65 15.8 22.24 18.39 20.37 18.76C17.73 19.29 20.89 16.13 19.33 15.81C18.08 15.56 17.12 17.65 17.14 18.65L17.3 18.14V18.16Z" fill="#FF5033"/>
<path d="M18.1598 20.59C17.1898 20.49 18.1998 19.27 18.1998 18.86C18.1898 18.01 17.3398 18.36 17.1398 17.57C16.8598 16.47 19.5498 14.45 19.8898 15.93C20.5598 15.85 20.4598 14.66 21.3798 14.94C21.8798 15.09 22.2498 16.61 23.0398 15.74C23.6298 15.09 22.3698 14.42 23.5998 13.89C24.1198 13.67 25.1498 13.9 25.6698 13.99C26.3598 14.11 27.0298 14.36 27.6498 14.59C28.4198 14.88 29.2298 14.95 30.0398 15.14C30.5898 15.27 31.4798 15.3 31.8798 15.72C32.5398 16.42 31.8798 16.64 33.0898 16.82C35.9398 17.24 40.2098 17.95 39.9198 21.72C40.1098 21.82 40.3798 21.83 40.5898 21.76C41.3398 19.09 36.7098 16.53 34.8598 15.91C32.1298 15 30.0798 13.21 27.1098 12.97C23.9398 12.71 20.9798 12.3 18.0198 14.17C17.1598 14.71 15.0698 16.14 15.2998 17.38C15.4798 18.37 16.5598 18.03 17.0298 18.7C17.4198 19.25 17.2298 19.79 17.7398 20.39C17.9498 20.64 18.1298 20.85 18.4298 21.03C18.5098 20.89 18.3498 20.96 18.3398 20.86L18.1798 20.61L18.1598 20.59Z" fill="#CD3135"/>
<path opacity="0.57" d="M17.8105 19.81C18.1005 22.08 23.5505 18.24 24.4505 17.84C26.2505 17.04 29.9905 16.55 31.5305 17.96C30.1705 16.65 27.1705 16.87 25.4505 17.26C24.5405 17.46 23.4505 17.85 22.5905 18.24C22.0105 18.5 20.6705 19.72 20.6905 18.3C19.6205 19.79 19.7205 18.47 18.5305 18C18.1105 18.52 17.5105 19.56 18.0605 20.12L17.8205 19.81H17.8105Z" fill="white"/>
<path d="M17.2001 19.21C17.5701 19.58 17.4701 20.65 16.9001 20.97C16.7301 20.21 16.9001 19.99 16.0901 19.82C15.6801 19.73 15.0901 19.86 14.6701 19.99C13.5201 20.37 12.4801 21.01 11.2301 21.2C9.98006 21.38 8.59006 20.96 7.93006 19.91C7.46006 19.17 7.40006 16.59 8.50006 16.42C8.59006 17.29 8.01006 17.85 8.42006 18.85C8.79006 19.75 9.58006 20.62 10.5601 20.71C11.9701 20.84 15.3701 19.42 15.4401 17.85C16.2801 17.97 17.2701 18.38 17.2901 19.4L17.2001 19.21Z" fill="#098209"/>
<path d="M22.3904 52.93C26.5904 50.48 30.0804 47.19 34.6204 45.01C40.0304 42.4 44.9804 40.3 50.8804 39.13C57.6004 37.8 66.4804 38.49 72.6104 41.61C75.1104 38.01 74.2104 32.32 72.8504 28.43C70.7904 22.51 65.3404 18.6 59.9804 15.85C57.1704 14.41 53.9404 13.02 50.8104 12.51C48.1404 12.07 46.3104 12.87 43.7604 12.98C42.6004 13.03 41.5704 12.63 40.4204 12.75C38.2004 12.96 38.6004 13.86 37.1304 15.12C35.0604 16.9 31.8904 16.97 29.4804 18.62C21.0804 24.37 16.5604 34.04 16.0904 44.06C15.9004 48.05 16.5604 52.59 18.8604 55.99C21.6904 60.17 21.1704 53.39 23.5604 52.46L22.3904 52.93Z" fill="#FFC25F"/>
<path d="M30.61 20.5C22.93 21.19 19.23 33.73 18.86 39.78C18.59 44.19 18.71 48.2 19.56 52.47C20.09 55.17 19.95 56.09 21.73 53.88C23.31 51.92 24.08 51.47 26.15 50.37C27.88 49.45 30.51 47.88 31.75 46.41C29.7 46.47 27.75 46.39 27.31 44.2C26.69 41.1 29.18 41.64 30.61 40.21C32.71 38.1 30.11 37.52 29.18 36.05C28.01 34.18 28.62 30.56 29.43 28.69C30.63 25.88 32.73 24.7 35.54 23.64C37.49 22.9 41.21 22.52 39.08 20.47C37.19 18.65 31.09 19.41 29.2 20.76L30.61 20.52V20.5Z" fill="#F7A937"/>
<path opacity="0.6" d="M54.8202 15.1C56.9102 16.89 59.2302 23.39 56.2302 25.27C55.1602 25.94 52.9502 25.31 51.7202 25.49C48.5902 25.94 45.2002 27.22 42.3602 28.51C37.3802 30.76 32.9602 33.83 29.2602 37.9C26.8602 40.55 22.7302 47.54 23.3702 51.26C25.3302 50.89 27.8402 48.13 29.8502 47.06C32.4702 45.66 35.1402 44.16 37.8502 42.89C42.7902 40.58 47.9102 39.11 53.2502 38.13C57.4902 37.36 61.5902 37.18 65.6502 38.54C66.9802 38.98 70.1202 40.96 71.5302 40.25C72.9202 39.56 72.8402 36.34 72.7002 34.79C72.2502 29.86 69.6502 24.22 65.6002 21.27C62.6802 19.14 58.5202 15.17 55.0802 14.63L54.8502 15.1H54.8202Z" fill="#F7A937"/>
<g style="mix-blend-mode:multiply" opacity="0.4">
<path d="M62.4506 19.45C62.4506 20.89 62.6406 22.07 61.7506 23.29C60.7906 24.62 60.3106 24.55 59.8006 25.97C58.7206 29 56.6706 30.23 53.9406 32C50.3606 34.33 46.2006 35.67 42.3806 37.46C40.1706 38.49 36.3206 40.81 35.8506 43.39C39.2206 41.91 42.2606 39.66 45.8306 38.51C49.2006 37.43 52.7406 37.02 56.2606 36.89C59.3706 36.78 62.5306 36.81 65.4306 37.73C66.6406 38.11 68.0406 38.55 69.1306 39.18C70.1806 39.79 70.7706 40.71 72.1006 40.56C74.3906 37.12 72.1006 30.52 70.2006 27.41C68.7106 24.96 64.9406 19.76 61.5606 20.15L62.4406 19.44L62.4506 19.45Z" fill="#F7A937"/>
</g>
<g style="mix-blend-mode:multiply" opacity="0.4">
<path d="M59.9909 21.74C58.2209 22.44 60.8709 24.32 60.8409 25.26C60.8209 25.92 59.8309 26.34 59.8109 27.16C59.7809 28.31 60.7609 28.54 61.0509 29.54C62.1109 33.22 55.6909 30.94 56.9609 34.04C55.3509 33.95 54.8909 34.6 53.6409 35.3C52.6009 35.89 50.4309 35.93 50.1309 37.21C51.8609 37.44 53.8609 36.31 55.6209 36.18C57.4409 36.05 59.2709 36.18 61.0409 36.49C64.2809 37.05 66.7909 39.66 69.8209 40.21C70.3409 38.46 68.2609 38.29 67.4009 37.28C68.3109 36.56 66.5809 36.05 66.0209 35.47C68.8109 34.07 63.8009 33.9 63.8509 33C63.9009 32.07 65.3009 32.28 65.7909 31.74C66.3909 31.08 66.4509 29.99 66.4709 29.16C63.4709 28.22 65.1809 26.69 64.5309 24.55C64.2909 23.77 62.6309 21.97 61.9109 21.55C60.7809 20.87 59.3009 21.65 59.9709 22.08V21.73L59.9909 21.74Z" fill="#F7A937"/>
</g>
<g style="mix-blend-mode:multiply" opacity="0.4">
<path d="M22.8598 29.3201C21.1098 28.5801 21.1598 32.4401 20.9798 33.3401C20.8298 34.1401 20.2698 34.8101 20.0698 35.6301C19.7698 36.8301 19.9798 38.0801 19.9198 39.3101C19.7298 43.1401 19.4098 46.6001 20.6298 50.2301C20.8798 50.9601 20.2398 56.3601 20.4198 56.4401C21.0098 56.7101 21.6798 54.0101 21.9198 53.5501C22.4898 52.4901 23.1398 52.1201 24.1498 51.5301C26.9498 49.8801 30.1398 47.8901 32.6898 45.8001C31.1698 45.6601 29.8498 47.2101 28.4998 47.6601C26.9998 48.1601 25.5298 47.8301 24.3898 46.7201C23.1398 45.5001 23.3798 44.8001 23.1898 43.3101C23.0198 41.9701 22.1498 41.2601 22.4198 39.7901C22.5498 39.0601 22.8798 38.4001 22.8598 37.6501C22.8398 36.7901 22.4398 36.1201 22.2698 35.2901C22.0498 34.2201 22.0298 32.6201 22.7098 31.6701C23.2398 30.9301 24.9898 30.3201 24.5098 29.0901C24.0398 27.8901 22.7798 28.8201 22.2698 29.4401L22.8598 29.3201Z" fill="#F7A937"/>
</g>
<path d="M40.71 29C40.71 29.28 40.49 29.5 40.21 29.5C39.93 29.5 39.71 29.28 39.71 29C39.71 28.72 39.93 28.5 40.21 28.5C40.49 28.5 40.71 28.72 40.71 29Z" fill="#F7A937"/>
<path d="M45.94 23.28C45.94 24.09 45.28 24.75 44.47 24.75C43.66 24.75 43 24.09 43 23.28C43 22.47 43.66 21.81 44.47 21.81C45.28 21.81 45.94 22.47 45.94 23.28Z" fill="#F7A937"/>
<path d="M46.0699 27.2C46.0699 27.46 45.8599 27.67 45.5999 27.67C45.3399 27.67 45.1299 27.46 45.1299 27.2C45.1299 26.94 45.3399 26.73 45.5999 26.73C45.8599 26.73 46.0699 26.94 46.0699 27.2Z" fill="#F7A937"/>
<path d="M36.2702 25.41C36.2702 25.77 35.9702 26.07 35.6102 26.07C35.2502 26.07 34.9502 25.78 34.9502 25.41C34.9502 25.04 35.2402 24.75 35.6102 24.75C35.9802 24.75 36.2702 25.04 36.2702 25.41Z" fill="#F7A937"/>
<path d="M34.4602 27.6201C34.4602 28.1101 34.0602 28.5001 33.5802 28.5001C33.1002 28.5001 32.7002 28.1001 32.7002 27.6201C32.7002 27.1401 33.1002 26.7401 33.5802 26.7401C34.0602 26.7401 34.4602 27.1401 34.4602 27.6201Z" fill="#F7A937"/>
<path d="M32.2501 31.44C32.2501 31.82 31.9401 32.13 31.5601 32.13C31.1801 32.13 30.8701 31.82 30.8701 31.44C30.8701 31.06 31.1801 30.75 31.5601 30.75C31.9401 30.75 32.2501 31.06 32.2501 31.44Z" fill="#F7A937"/>
<path d="M31.9698 35.25C31.9698 36.19 31.1998 36.96 30.2598 36.96C29.3198 36.96 28.5498 36.19 28.5498 35.25C28.5498 34.31 29.3198 33.54 30.2598 33.54C31.1998 33.54 31.9698 34.31 31.9698 35.25Z" fill="#F7A937"/>
<path d="M37.67 34.89C37.67 35.64 37.06 36.25 36.31 36.25C35.56 36.25 34.96 35.64 34.96 34.89C34.96 34.14 35.57 33.53 36.31 33.53C37.05 33.53 37.67 34.14 37.67 34.89Z" fill="#EF9218"/>
<path d="M38.5499 27.17C38.5499 27.41 38.3499 27.61 38.1099 27.61C37.8699 27.61 37.6699 27.41 37.6699 27.17C37.6699 26.93 37.8699 26.73 38.1099 26.73C38.3499 26.73 38.5499 26.93 38.5499 27.17Z" fill="#EF9218"/>
<path d="M40.1897 26.9701C40.1897 27.1001 40.0897 27.2101 39.9597 27.2101C39.8297 27.2101 39.7197 27.1001 39.7197 26.9701C39.7197 26.8401 39.8197 26.7401 39.9597 26.7401C40.0997 26.7401 40.1897 26.8501 40.1897 26.9701Z" fill="#EF9218"/>
<path d="M46.9404 30.25C46.9404 30.53 46.7204 30.75 46.4404 30.75C46.1604 30.75 45.9404 30.52 45.9404 30.25C45.9404 29.98 46.1704 29.75 46.4404 29.75C46.7104 29.75 46.9404 29.98 46.9404 30.25Z" fill="#EF9218"/>
<path d="M49.1897 29.6201C49.1897 29.6901 49.1297 29.7501 49.0597 29.7501C48.9897 29.7501 48.9297 29.6901 48.9297 29.6201C48.9297 29.5501 48.9897 29.4901 49.0597 29.4901C49.1297 29.4901 49.1897 29.5501 49.1897 29.6201Z" fill="#EF9218"/>
<path d="M50.7404 23.85C50.7404 24.35 50.3404 24.75 49.8404 24.75C49.3404 24.75 48.9404 24.35 48.9404 23.85C48.9404 23.35 49.3404 22.95 49.8404 22.95C50.3404 22.95 50.7404 23.35 50.7404 23.85Z" fill="#EF9218"/>
<path d="M52.1702 27.11C52.1702 27.32 52.0002 27.49 51.7902 27.49C51.5802 27.49 51.4102 27.32 51.4102 27.11C51.4102 26.9 51.5802 26.73 51.7902 26.73C52.0002 26.73 52.1702 26.9 52.1702 27.11Z" fill="#EF9218"/>
<path d="M52.5598 21.73C52.5598 21.81 52.4898 21.88 52.4098 21.88C52.3298 21.88 52.2598 21.81 52.2598 21.73C52.2598 21.65 52.3298 21.58 52.4098 21.58C52.4898 21.58 52.5598 21.65 52.5598 21.73Z" fill="#EF9218"/>
<g style="mix-blend-mode:multiply" opacity="0.4">
<path d="M39.8896 15.1C38.9296 15.53 38.8396 16.73 37.8896 17.25C36.7996 17.85 35.5096 17.5 34.4796 18.27C33.4896 19.01 33.2796 19.94 32.0496 20.47C30.5096 21.15 30.1296 22.13 28.9296 23.06C27.7896 23.94 26.4696 23.97 25.5496 25.32C24.7696 26.47 25.0296 27.05 23.8696 27.93C21.6796 29.61 20.9096 33.46 20.3996 36.04C19.6396 39.9 19.8896 43.59 20.7596 47.42C21.3496 50.03 21.6696 52.35 21.4596 55.04C22.2896 53.67 22.6796 52.83 24.0396 51.76C24.7496 51.21 27.1996 49.48 27.2896 48.71C26.1596 49.29 24.5296 51.29 23.2796 49.99C22.6296 49.32 22.1396 47.05 21.9896 46.11C21.4796 43.01 21.1296 39.91 21.4296 36.74C21.7296 33.6 22.6196 30.56 24.9496 28.36C25.4596 27.88 25.7796 28.24 26.0396 27.31C26.1796 26.79 25.7996 26.12 25.9996 25.66C26.2796 25.02 27.9196 23.95 28.5996 23.69C30.0196 23.16 30.1196 22.87 31.0296 21.67C31.7896 20.66 33.0796 20.17 34.1196 19.56C34.6596 19.23 35.0896 18.81 35.6196 18.47C36.1896 18.11 36.3996 18.26 37.0296 18.04C38.1096 17.67 39.4496 16.64 39.8296 15.55C39.6696 15.54 39.6496 15.64 39.5196 15.68L39.8696 15.09L39.8896 15.1Z" fill="#F7A937"/>
</g>
</g>
<defs>
<clipPath id="clip0_612_698">
<rect width="87.91" height="66.81" fill="white"/>
</clipPath>
</defs>
</svg>
