<svg width="88" height="40" viewBox="0 0 88 40" fill="none" xmlns="http://www.w3.org/2000/svg">
<g clip-path="url(#clip0_621_3385)">
<path d="M44.0002 23.2057C65.8221 23.2057 83.5122 18.2647 83.5122 12.1696C83.5122 6.07458 65.8221 1.13354 44.0002 1.13354C22.1784 1.13354 4.48828 6.07458 4.48828 12.1696C4.48828 18.2647 22.1784 23.2057 44.0002 23.2057Z" fill="#563C3F"/>
<path d="M82.2342 16.8556C82.2756 24.2202 76.7519 40 45.0042 40C13.2566 40 6.26904 24.5848 6.22761 17.2202C6.18619 9.85561 23.1648 3.80506 44.155 3.70398C65.1417 3.6029 82.1928 9.49098 82.2342 16.8556Z" fill="#7F3A13"/>
<path d="M56.1141 4.32129C57.8714 16.4693 56.7356 34.4404 51.3672 39.7689C51.7193 39.7437 52.0646 39.7112 52.4063 39.6823C56.5768 38.1191 64.1374 18.4404 64.127 5.59566C61.631 5.06858 58.9451 4.63537 56.1141 4.32129Z" fill="#34292A"/>
<path d="M79.3621 11.8015C77.0076 9.81229 73.3102 8.07583 68.6633 6.72565C67.8486 17.7978 64.0821 29.9098 57.7021 38.9964C60.2672 38.5487 62.5768 37.9675 64.6517 37.278C71.653 30.4585 77.0767 21.8556 79.3621 11.8051V11.8015Z" fill="#A55513"/>
<path d="M28.2849 4.9964C21.3491 6.15163 15.5457 8.01445 11.6377 10.3105C13.0186 19.8159 16.6954 28.7654 21.9774 36.2094C24.691 37.3141 27.8464 38.2311 31.4921 38.8917C24.2801 28.8809 27.584 16.1877 28.2883 4.9964H28.2849Z" fill="#AF7733"/>
<path d="M10.3918 25.7076C10.2295 25.704 10.0569 25.6534 9.88082 25.5668C9.5563 25.4043 9.2594 25.1263 9.04881 24.7834C8.84512 24.4476 8.745 24.0939 8.76917 23.7798C8.80369 23.3141 9.1075 23.0217 9.53559 23.0361C9.69439 23.0397 9.86356 23.0866 10.0327 23.1733C10.6749 23.5018 11.1685 24.3105 11.1306 24.9747C11.1064 25.4332 10.813 25.722 10.3883 25.7076H10.3918ZM9.67368 23.4549C9.37333 23.444 9.16273 23.6498 9.13512 23.9747C9.11785 24.1877 9.18345 24.4296 9.32154 24.657C9.46654 24.8953 9.67023 25.0866 9.90153 25.2022C10.3503 25.426 10.7543 25.2347 10.775 24.7942C10.7991 24.3321 10.4608 23.7726 10.0155 23.5487C9.89808 23.491 9.78416 23.4585 9.67368 23.4549Z" fill="#A55513"/>
<path d="M12.6974 26.87C12.549 26.8664 12.3971 26.8231 12.2383 26.7437C11.5961 26.4224 11.099 25.6354 11.1335 24.9819C11.1611 24.509 11.4511 24.213 11.8758 24.2274C12.0311 24.231 12.1899 24.278 12.3557 24.361C13.0047 24.6967 13.4742 25.4404 13.45 26.0866C13.4328 26.5704 13.129 26.8845 12.694 26.87H12.6974ZM12.0035 24.6354C11.7135 24.6245 11.5133 24.8303 11.4926 25.1552C11.465 25.6101 11.8136 26.1588 12.2659 26.3863C12.6905 26.6029 13.0841 26.3682 13.1014 25.9242C13.1152 25.4693 12.7941 24.9639 12.3315 24.7256C12.221 24.6679 12.1105 24.639 12.007 24.6354H12.0035Z" fill="#A55513"/>
<path d="M14.9768 27.8484C14.8456 27.8447 14.7075 27.8123 14.566 27.7509C14.2553 27.6173 13.9653 27.3682 13.7547 27.0469C13.5475 26.7328 13.4405 26.3899 13.4543 26.0758C13.4716 25.5776 13.7857 25.2527 14.2311 25.2671C14.3588 25.2707 14.4969 25.3032 14.6316 25.361C15.253 25.6317 15.7467 26.3935 15.7329 27.0505C15.7225 27.5415 15.4187 27.8592 14.9768 27.8447V27.8484ZM14.345 25.6715C14.0343 25.6606 13.8168 25.8881 13.803 26.2346C13.7961 26.4476 13.8686 26.6859 14.0067 26.8989C14.1517 27.1227 14.3554 27.2996 14.5729 27.3935C15.0079 27.5776 15.3773 27.3574 15.3842 26.9169C15.3911 26.4549 15.0458 25.9278 14.6177 25.7401C14.5245 25.7003 14.4313 25.6787 14.3416 25.6751L14.345 25.6715Z" fill="#A55513"/>
<path d="M17.1891 28.7509C17.082 28.7509 16.9681 28.7256 16.8542 28.6859C16.5642 28.5884 16.2845 28.3682 16.0705 28.065C15.853 27.7545 15.7287 27.3899 15.7356 27.065C15.746 26.5451 16.0601 26.2166 16.5366 26.2347C16.6436 26.2347 16.7541 26.2599 16.8645 26.296C17.1649 26.4043 17.4445 26.6318 17.6517 26.935C17.8623 27.2419 17.9796 27.5848 17.9762 27.9097C17.9762 28.4332 17.6551 28.769 17.1856 28.7545L17.1891 28.7509ZM16.6436 26.6318C16.3087 26.6209 16.0912 26.8484 16.0809 27.2058C16.0774 27.4296 16.1603 27.6823 16.3122 27.8989C16.4572 28.1047 16.647 28.2563 16.8473 28.3213C17.2995 28.4838 17.6413 28.2274 17.6413 27.7834C17.6413 27.5596 17.5619 27.3213 17.4135 27.1083C17.2685 26.9025 17.0786 26.7473 16.8749 26.6715C16.7989 26.6462 16.7195 26.6318 16.6436 26.6282V26.6318Z" fill="#A55513"/>
<path d="M19.4235 29.5451C19.3199 29.5451 19.2094 29.5199 19.099 29.4801C18.7986 29.3718 18.5155 29.148 18.3049 28.8484C18.0978 28.5523 17.9873 28.2202 17.9873 27.9061C17.9873 27.3827 18.3153 27.0217 18.7779 27.0397C18.8815 27.0397 18.9885 27.065 19.0955 27.1047C19.6997 27.3213 20.1933 28.0361 20.2003 28.6895C20.2072 29.2202 19.893 29.5596 19.4269 29.5451H19.4235ZM18.8711 27.4296C18.5535 27.4188 18.3291 27.6679 18.3256 28.0289C18.3256 28.2419 18.4016 28.4729 18.5431 28.6751C18.6916 28.8881 18.8884 29.0469 19.1024 29.1227C19.5236 29.2708 19.8688 29.0253 19.8619 28.5812C19.855 28.1227 19.5098 27.6245 19.0886 27.4729C19.0126 27.4477 18.9401 27.4296 18.8711 27.4296Z" fill="#A55513"/>
<path d="M21.5743 30.2274C21.4915 30.2274 21.4017 30.2094 21.3154 30.1841C21.0185 30.0975 20.7389 29.8917 20.5248 29.6029C20.3177 29.3213 20.2038 28.9964 20.2003 28.6823C20.1934 28.13 20.5317 27.7509 21.022 27.7654C21.1048 27.7654 21.1911 27.7834 21.274 27.8087C21.8712 27.9856 22.3684 28.6715 22.3822 29.3285C22.3925 29.8737 22.0611 30.2419 21.5709 30.2274H21.5743ZM21.1083 28.1552C20.7665 28.1444 20.5317 28.408 20.5352 28.7942C20.5352 29.0072 20.6146 29.2311 20.7561 29.4224C20.9011 29.6209 21.0979 29.7654 21.305 29.8267C21.7228 29.9495 22.0611 29.6787 22.0508 29.2383C22.0404 28.7834 21.6952 28.3069 21.2809 28.1841C21.2222 28.1661 21.1635 28.1552 21.1048 28.1552H21.1083Z" fill="#A55513"/>
<path d="M23.7038 30.8484C23.6382 30.8484 23.5692 30.8375 23.5001 30.8195C22.8959 30.6426 22.3988 29.9819 22.385 29.3321C22.3746 28.7762 22.7061 28.3971 23.1928 28.4115C23.2757 28.4115 23.3586 28.4296 23.4414 28.4549C23.7211 28.5234 23.9938 28.7112 24.2044 28.9892C24.415 29.2635 24.5358 29.592 24.5427 29.9097C24.56 30.4729 24.2044 30.8664 23.7038 30.852V30.8484ZM23.2723 28.7942C22.9408 28.7834 22.713 29.0433 22.7164 29.426C22.7233 29.8772 23.072 30.3393 23.4932 30.4621C23.5346 30.4729 23.583 30.4765 23.6278 30.4801C23.98 30.491 24.2285 30.2166 24.2147 29.8231C24.2078 29.6029 24.125 29.379 23.98 29.1877C23.835 29 23.6486 28.87 23.4518 28.8231C23.3862 28.805 23.3275 28.7942 23.2723 28.7906V28.7942Z" fill="#A55513"/>
<path d="M25.8514 31.3502C25.7892 31.3502 25.7236 31.3393 25.6546 31.3249C25.3646 31.2563 25.0884 31.0722 24.8778 30.7978C24.6707 30.5307 24.5533 30.213 24.5464 29.9025C24.5291 29.2563 24.9814 28.8195 25.5786 28.9639C26.1655 29.1047 26.6592 29.7545 26.6834 30.4043C26.7041 30.9711 26.3519 31.3682 25.8514 31.3502ZM25.4578 29.3141C25.1091 29.3032 24.864 29.5848 24.8743 29.9819C24.8813 30.1949 24.9607 30.4151 25.1022 30.5957C25.2472 30.787 25.4405 30.917 25.6442 30.9639C26.0654 31.0614 26.3761 30.7689 26.3589 30.3321C26.3416 29.8772 25.9964 29.426 25.589 29.3285C25.5441 29.3177 25.4992 29.3105 25.4578 29.3105V29.3141Z" fill="#A55513"/>
<path d="M27.9362 31.7978C27.8913 31.7978 27.843 31.7906 27.7947 31.7834C27.5081 31.7328 27.2389 31.5631 27.0283 31.3032C26.8211 31.0469 26.7003 30.7292 26.6865 30.4151C26.6623 29.7797 27.1111 29.3249 27.698 29.4296C28.2815 29.5379 28.7751 30.1588 28.8028 30.8122C28.8269 31.3935 28.4541 31.8158 27.9362 31.8014V31.7978ZM27.6221 29.787C27.2596 29.7761 26.9972 30.0758 27.011 30.4837C27.0179 30.7003 27.1008 30.9169 27.2423 31.0938C27.3873 31.2743 27.5737 31.3899 27.774 31.426C28.1951 31.5018 28.499 31.1913 28.4782 30.7509C28.4575 30.2996 28.1157 29.87 27.7153 29.7978C27.6842 29.7906 27.6531 29.7906 27.6221 29.787Z" fill="#A55513"/>
<path d="M30.0532 32.1769C30.0048 32.1769 29.9565 32.1697 29.9047 32.1589C29.3247 32.0542 28.831 31.4513 28.8069 30.8087C28.7793 30.1661 29.2246 29.704 29.8115 29.8123C30.3984 29.9278 30.8817 30.5271 30.9094 31.1697C30.937 31.7617 30.5676 32.1913 30.0532 32.1769ZM29.7287 30.1697C29.3731 30.1589 29.1141 30.4585 29.1314 30.8664C29.1487 31.3141 29.4939 31.7329 29.8978 31.8051C29.9358 31.8123 29.9703 31.8159 30.0014 31.8159C30.357 31.8267 30.609 31.5307 30.5883 31.1191C30.5676 30.6715 30.2292 30.2563 29.8184 30.1769C29.7873 30.1697 29.7563 30.1697 29.7252 30.1661L29.7287 30.1697Z" fill="#A55513"/>
<path d="M32.1034 32.4729C32.0724 32.4729 32.0413 32.4729 32.0102 32.4657C31.7271 32.4296 31.4578 32.2708 31.2507 32.0253C31.047 31.7798 30.9262 31.4765 30.9124 31.1661C30.8848 30.5162 31.3198 30.0433 31.9032 30.1191C32.4797 30.1949 32.97 30.7942 33.001 31.4404C33.0287 32.0469 32.642 32.4874 32.1034 32.4693V32.4729ZM31.8583 30.4837C31.4889 30.4729 31.2162 30.7942 31.2334 31.213C31.2438 31.426 31.3232 31.6354 31.4648 31.8014C31.6097 31.9747 31.7962 32.083 31.9964 32.1119C32.4072 32.1661 32.7076 31.8484 32.6869 31.4043C32.6662 30.9531 32.3244 30.5415 31.9274 30.4874C31.9067 30.4874 31.8859 30.4837 31.8652 30.4837H31.8583Z" fill="#A55513"/>
<path d="M34.1509 32.7365H34.0991C33.8229 32.704 33.5571 32.556 33.35 32.3141C33.1428 32.0722 33.0151 31.7581 33.0013 31.4477C32.9737 30.8051 33.3983 30.3285 33.9852 30.3935C34.2614 30.4188 34.5272 30.5668 34.7343 30.8051C34.9415 31.0469 35.0623 31.3538 35.0761 31.6679C35.1037 32.2888 34.6964 32.7545 34.1475 32.7365H34.1509ZM33.9576 30.7581C33.5744 30.7473 33.3016 31.0614 33.3189 31.4874C33.3292 31.7004 33.4156 31.9206 33.5606 32.0903C33.7056 32.2599 33.8885 32.361 34.0784 32.3827H34.1129C34.4961 32.3971 34.7827 32.0722 34.762 31.6426C34.7516 31.426 34.6653 31.213 34.5238 31.0469C34.3822 30.8809 34.1958 30.7798 34.0059 30.7653H33.9576V30.7581Z" fill="#A55513"/>
<path d="M36.2216 32.9169H36.1699C35.8902 32.8881 35.6244 32.7437 35.4173 32.509C35.2136 32.2743 35.0962 31.9783 35.0824 31.6678C35.0548 31.0397 35.4621 30.5559 36.0145 30.574H36.0663C36.6359 30.6281 37.1262 31.2021 37.1538 31.8483C37.1814 32.4693 36.7706 32.935 36.2216 32.9169ZM36.0456 30.9422C35.6658 30.9314 35.3827 31.2635 35.4 31.6967C35.4104 31.9097 35.4898 32.1155 35.6313 32.2779C35.7763 32.444 35.9627 32.5451 36.1561 32.5631H36.194C36.5772 32.5776 36.8603 32.2563 36.8396 31.8267C36.8189 31.3754 36.4771 30.9783 36.0836 30.9458H36.049L36.0456 30.9422Z" fill="#A55513"/>
<path d="M38.2455 33.0506H38.2386C37.959 33.0397 37.6931 32.9098 37.4894 32.6787C37.2858 32.4549 37.1684 32.1589 37.1546 31.852C37.1269 31.2094 37.5619 30.6968 38.1281 30.7148C38.4078 30.7256 38.6736 30.8592 38.8807 31.0903C39.0844 31.3213 39.2053 31.621 39.2191 31.935C39.2467 32.5704 38.8082 33.0686 38.2455 33.0506ZM38.1557 31.083C37.7587 31.0686 37.4549 31.426 37.4722 31.8737C37.4825 32.0867 37.5619 32.2852 37.7 32.4404C37.8416 32.5993 38.028 32.6895 38.2213 32.6968L38.2351 32.8737L38.2248 32.6968C38.6184 32.7112 38.9256 32.3646 38.9049 31.9206C38.8945 31.704 38.8117 31.4982 38.6701 31.3358C38.5286 31.1769 38.3456 31.0867 38.1557 31.0794V31.083Z" fill="#A55513"/>
<path d="M40.306 33.1264H40.2991C40.0229 33.1155 39.7571 32.9856 39.5534 32.7581C39.3531 32.5343 39.2357 32.2419 39.2219 31.9314C39.1943 31.2888 39.6328 30.7726 40.2024 30.7906C40.7755 30.8123 41.2623 31.361 41.2864 32.0108C41.2968 32.3177 41.2036 32.6029 41.0241 32.8123C40.8376 33.0253 40.5856 33.1372 40.3094 33.13L40.306 33.1264ZM40.2197 31.1589C39.8261 31.1444 39.5188 31.5018 39.5361 31.9495C39.543 32.1625 39.6259 32.3646 39.764 32.5199C39.9055 32.6787 40.0919 32.7726 40.2853 32.7798L40.2956 32.9567L40.2887 32.7798C40.482 32.787 40.6581 32.7076 40.7893 32.5596C40.9136 32.4152 40.9792 32.2202 40.9688 32.0072C40.9481 31.5596 40.6132 31.1769 40.2197 31.1625V31.1589Z" fill="#A55513"/>
<path d="M42.3606 33.2058C41.7944 33.1841 41.3145 32.6534 41.2904 32.0144C41.2766 31.7003 41.3732 31.4079 41.5596 31.1913C41.7461 30.9747 42.0015 30.8592 42.2743 30.87C42.8681 30.8881 43.3272 31.4043 43.3514 32.0397C43.3618 32.3502 43.2651 32.6462 43.0787 32.8664C42.8922 33.0866 42.6402 33.2058 42.3675 33.2058H42.3606ZM42.3088 31.2383C42.0913 31.231 41.9152 31.3105 41.7875 31.4585C41.6598 31.6065 41.5942 31.8086 41.6011 32.0216C41.6183 32.4657 41.9532 32.8375 42.3502 32.852C42.5401 32.852 42.7162 32.7653 42.8439 32.6137C42.9751 32.4585 43.0407 32.2563 43.0338 32.0397C43.0165 31.6029 42.6989 31.2491 42.3088 31.2383Z" fill="#A55513"/>
<path d="M44.3734 33.1697C43.821 33.1516 43.3722 32.657 43.3515 32.0325C43.3274 31.3863 43.7693 30.8448 44.3389 30.8303H44.3872C44.9396 30.8484 45.3919 31.361 45.4126 31.9892C45.4229 32.296 45.3263 32.5884 45.1433 32.8087C44.9569 33.0325 44.7014 33.1588 44.4218 33.1661H44.3734V33.1697ZM44.3872 31.1986H44.3527C43.9591 31.2058 43.6484 31.5812 43.6657 32.0325C43.6795 32.4621 43.9902 32.8051 44.3734 32.8159H44.4079C44.6013 32.8123 44.7808 32.722 44.912 32.5668C45.0397 32.4152 45.1053 32.213 45.0984 32C45.0812 31.5632 44.7704 31.2094 44.3872 31.1986Z" fill="#A55513"/>
<path d="M46.4342 33.1299C45.8853 33.1119 45.4365 32.6173 45.4158 31.9964C45.4054 31.6823 45.5021 31.3826 45.692 31.1552C45.8819 30.9278 46.1373 30.7978 46.4135 30.7906H46.4618C47.0142 30.8086 47.463 31.3213 47.4837 31.9494C47.4941 32.2599 47.394 32.5523 47.211 32.7725C47.0211 32.9964 46.7657 33.1263 46.486 33.1299H46.4377H46.4342ZM46.4549 31.1588H46.4204C46.2305 31.1624 46.0545 31.2527 45.9233 31.4079C45.7921 31.5668 45.7265 31.7725 45.7334 31.9891C45.7472 32.4224 46.0579 32.7653 46.4446 32.7798H46.4791C46.6724 32.7761 46.852 32.6895 46.9831 32.5307C47.1109 32.379 47.1765 32.1769 47.1696 31.9675C47.1558 31.5307 46.8416 31.1733 46.4584 31.1624L46.4549 31.1588Z" fill="#A55513"/>
<path d="M48.4507 33.0361C47.9191 33.018 47.5013 32.5559 47.4841 31.953C47.4634 31.3068 47.9122 30.7364 48.4818 30.6895C49.0618 30.6426 49.5382 31.1444 49.5555 31.7942C49.5728 32.4368 49.1239 32.9891 48.5543 33.0325C48.5198 33.0325 48.4853 33.0325 48.4507 33.0325V33.0361ZM48.5647 31.0541C48.5405 31.0541 48.5163 31.0541 48.4956 31.0541C48.0986 31.0866 47.7879 31.4837 47.7983 31.935C47.8121 32.3754 48.14 32.7076 48.5371 32.6787C48.9341 32.6462 49.2482 32.2635 49.2344 31.8159C49.2206 31.3935 48.9341 31.065 48.5647 31.0541Z" fill="#A55513"/>
<path d="M50.5218 32.8736C49.9867 32.8556 49.5724 32.3935 49.5552 31.7906C49.5379 31.1408 49.9902 30.5668 50.5633 30.5198C51.1467 30.4729 51.6197 30.9747 51.6369 31.6245C51.6438 31.935 51.5437 32.2346 51.3573 32.4693C51.1674 32.7076 50.9085 32.8483 50.6254 32.87C50.5909 32.87 50.5563 32.87 50.5218 32.87V32.8736ZM50.6427 30.8881C50.6185 30.8881 50.5943 30.8881 50.5702 30.8881C50.1731 30.9205 49.859 31.314 49.8728 31.7653C49.8831 32.2094 50.2146 32.5451 50.615 32.5126C50.8118 32.4982 50.9913 32.3971 51.126 32.231C51.2537 32.0686 51.3228 31.8628 51.3159 31.6498C51.3055 31.2274 51.0155 30.8953 50.6427 30.8808V30.8881Z" fill="#A55513"/>
<path d="M52.6003 32.7148C52.0651 32.6967 51.6543 32.2346 51.6371 31.6318C51.6301 31.3141 51.7303 31.0072 51.9236 30.7653C52.1169 30.5235 52.3759 30.3754 52.6555 30.3538C52.6969 30.3502 52.7452 30.3466 52.7936 30.3466C53.3183 30.3646 53.7119 30.8123 53.7257 31.4079C53.7395 32.0614 53.2838 32.639 52.7107 32.7076C52.6693 32.7076 52.6348 32.7112 52.6003 32.7076V32.7148ZM52.766 30.722C52.7314 30.722 52.7004 30.722 52.6658 30.7256C52.4691 30.7401 52.2895 30.8411 52.1549 31.0072C52.0237 31.1733 51.9512 31.3863 51.9581 31.6029C51.9685 32.0505 52.2964 32.3899 52.7073 32.3574C53.1043 32.3105 53.4219 31.9061 53.4081 31.4513C53.3977 31.0433 53.1285 30.7328 52.766 30.722Z" fill="#A55513"/>
<path d="M54.6437 32.4405C54.1327 32.4224 53.7392 31.982 53.7288 31.4044C53.715 30.7509 54.1742 30.148 54.7507 30.0686C55.3376 29.9892 55.8175 30.4766 55.8278 31.1192C55.8347 31.4332 55.7312 31.7401 55.5413 31.9856C55.348 32.2347 55.0856 32.3935 54.8025 32.4332C54.7473 32.4405 54.6955 32.4441 54.6437 32.4405ZM54.8681 30.4332C54.8336 30.4332 54.7956 30.4332 54.7611 30.4405C54.3606 30.4946 54.0395 30.9134 54.0499 31.3683C54.0568 31.8051 54.3882 32.1336 54.7956 32.0794C54.9924 32.0542 55.1788 31.9423 55.3134 31.7654C55.4446 31.5957 55.5137 31.3827 55.5102 31.1661C55.4999 30.7618 55.2271 30.4441 54.8715 30.4332H54.8681Z" fill="#A55513"/>
<path d="M56.7502 32.1552C56.2392 32.1372 55.8456 31.6967 55.8353 31.1191C55.8284 30.8014 55.932 30.4837 56.1287 30.231C56.3255 29.9747 56.5879 29.8122 56.871 29.7725C57.4579 29.6931 57.9378 30.1805 57.9481 30.8267C57.9516 31.1408 57.848 31.4512 57.6547 31.7003C57.4579 31.953 57.1921 32.1119 56.9055 32.1516C56.8503 32.1588 56.7985 32.1624 56.7467 32.1588L56.7502 32.1552ZM56.9849 30.1408C56.9504 30.1408 56.9124 30.1408 56.8744 30.148C56.6811 30.1733 56.4981 30.2852 56.3635 30.4621C56.2289 30.639 56.1564 30.8556 56.1598 31.0758C56.1667 31.5162 56.5016 31.8483 56.909 31.7906C57.1092 31.7653 57.2922 31.6534 57.4303 31.4765C57.5615 31.3068 57.634 31.0938 57.6305 30.8772C57.6236 30.4693 57.3474 30.1516 56.9884 30.1408H56.9849Z" fill="#A55513"/>
<path d="M58.8213 31.8231C58.3276 31.8086 57.9617 31.3899 57.9513 30.8303C57.941 30.1732 58.4071 29.5379 58.9939 29.4223C59.5947 29.3032 60.0745 29.7725 60.0814 30.4223C60.0883 31.0758 59.6188 31.6967 59.0319 31.8086C58.9594 31.8231 58.8869 31.8267 58.8179 31.8267L58.8213 31.8231ZM59.1528 29.7834C59.1044 29.7834 59.0561 29.7834 59.0078 29.7942C58.6004 29.8736 58.2724 30.3177 58.2793 30.7761C58.2862 31.2166 58.6142 31.527 59.0285 31.4476C59.4393 31.3682 59.7673 30.9386 59.7604 30.4837C59.7535 30.0902 59.5014 29.7942 59.1562 29.7834H59.1528Z" fill="#A55513"/>
<path d="M60.958 31.4116C60.4608 31.3971 60.0949 30.9783 60.088 30.4152C60.0811 29.7509 60.554 29.1119 61.1478 28.9928C61.752 28.8736 62.2319 29.343 62.2388 29.9928C62.2388 30.3105 62.1352 30.6282 61.935 30.8917C61.7347 31.1588 61.462 31.3357 61.172 31.3899C61.0995 31.4043 61.027 31.4079 60.9545 31.4079L60.958 31.4116ZM61.2997 29.361C61.2514 29.361 61.2031 29.361 61.1513 29.3718C60.7405 29.4513 60.4125 29.8953 60.4159 30.3538C60.4194 30.7978 60.7543 31.1119 61.172 31.0325C61.3757 30.9928 61.5621 30.87 61.7037 30.6859C61.8383 30.5054 61.9142 30.2852 61.9108 30.0686C61.9039 29.6715 61.6484 29.3718 61.2997 29.361Z" fill="#A55513"/>
<path d="M63.1122 31C62.6116 30.9856 62.2456 30.5668 62.2422 30.0036C62.2422 29.6787 62.3492 29.3538 62.5529 29.0794C62.7566 28.8087 63.0293 28.6246 63.3193 28.5668C63.4022 28.5451 63.4885 28.5379 63.5782 28.5415C64.0685 28.556 64.4137 28.9639 64.4172 29.5199C64.4206 30.1841 63.9373 30.8376 63.34 30.9784C63.2606 30.9928 63.1847 31 63.1156 30.9964L63.1122 31ZM63.5057 28.9278C63.4471 28.9278 63.3849 28.9314 63.3228 28.9459C63.1156 28.9856 62.9292 29.1119 62.7877 29.296C62.6461 29.4838 62.5702 29.7076 62.5736 29.9314C62.5736 30.3791 62.9119 30.6968 63.3366 30.6137C63.7474 30.5163 64.0857 30.0614 64.0823 29.5957C64.0788 29.213 63.8406 28.935 63.5057 28.9242V28.9278Z" fill="#A55513"/>
<path d="M65.2456 30.4729C64.7622 30.4585 64.4205 30.065 64.417 29.5162C64.4136 28.8447 64.9003 28.1697 65.5045 28.0144C65.5977 27.9892 65.6909 27.9819 65.7772 27.9819C66.2675 27.9964 66.6127 28.4043 66.6127 28.9639C66.6127 29.2852 66.5022 29.6137 66.2985 29.8917C66.0914 30.1733 65.8152 30.3682 65.5183 30.4404C65.4251 30.4621 65.3319 30.4729 65.2421 30.4693L65.2456 30.4729ZM65.6978 28.3718C65.6357 28.3718 65.5735 28.3754 65.5079 28.3935C65.0868 28.4982 64.7484 28.9675 64.7484 29.4368C64.7484 29.8881 65.0971 30.1805 65.5149 30.0758C65.722 30.0253 65.9153 29.8881 66.0603 29.6895C66.2019 29.4982 66.2778 29.2707 66.2744 29.0505C66.2744 28.6642 66.0327 28.3827 65.6944 28.3718H65.6978Z" fill="#A55513"/>
<path d="M67.4482 29.9242C66.9614 29.9098 66.6197 29.5162 66.6162 28.9639C66.6162 28.6354 66.7301 28.2996 66.9373 28.0108C67.1479 27.722 67.4275 27.5235 67.7244 27.4477C67.8176 27.4224 67.9108 27.4116 68.004 27.4152C68.4977 27.4296 68.843 27.8375 68.843 28.4007C68.843 28.7256 68.729 29.0578 68.5184 29.3394C68.3079 29.6246 68.0248 29.8195 67.7244 29.8953C67.6312 29.9206 67.5345 29.9278 67.4448 29.9278L67.4482 29.9242ZM67.9143 27.8087C67.8521 27.8087 67.7866 27.8123 67.721 27.8303C67.5173 27.8809 67.3239 28.0181 67.1789 28.2166C67.0339 28.4152 66.9545 28.6498 66.9545 28.8737C66.9545 29.3285 67.3067 29.6246 67.7313 29.5199C67.9419 29.4693 68.1352 29.3321 68.2837 29.1336C68.4252 28.9422 68.5046 28.7148 68.5012 28.491C68.5012 28.1011 68.2595 27.8159 67.9143 27.8051V27.8087Z" fill="#A55513"/>
<path d="M69.6373 29.3249C69.1643 29.3104 68.8467 28.9422 68.8467 28.4007C68.8467 27.722 69.3473 27.0072 69.9687 26.8122C70.0826 26.7761 70.1965 26.7617 70.3036 26.7653C70.7834 26.7797 71.1045 27.1624 71.1011 27.7112C71.1011 28.3899 70.5901 29.0866 69.9721 29.2743C69.8582 29.3104 69.7443 29.3249 69.6373 29.3213V29.3249ZM70.2069 27.166C70.1309 27.166 70.055 27.1732 69.9756 27.1985C69.5441 27.3321 69.1919 27.8303 69.1919 28.3032C69.1919 28.7581 69.5441 29.0361 69.9687 28.9061C70.4037 28.7725 70.7593 28.2852 70.7558 27.8159C70.7558 27.4368 70.5349 27.1733 70.2034 27.1624L70.2069 27.166Z" fill="#A55513"/>
<path d="M71.8985 28.639C71.4221 28.6246 71.1045 28.2527 71.1045 27.7112C71.1045 27.0253 71.6189 26.2997 72.2507 26.1047C72.368 26.0686 72.482 26.0506 72.5924 26.0542C73.0758 26.0686 73.3968 26.4549 73.3934 27.0036C73.3934 27.3321 73.2726 27.6787 73.0551 27.9747C72.8376 28.278 72.5476 28.4946 72.2369 28.5885C72.1195 28.6246 72.0055 28.639 71.8951 28.6354L71.8985 28.639ZM72.4854 26.4621C72.4095 26.4621 72.3301 26.4693 72.2507 26.4946C71.8157 26.6282 71.4566 27.13 71.4566 27.6065C71.4566 28.0686 71.8122 28.3466 72.2472 28.213C72.4647 28.148 72.6649 27.9964 72.8168 27.787C72.9653 27.5812 73.0447 27.3466 73.0482 27.1191C73.0482 26.7365 72.8238 26.4729 72.4889 26.4585L72.4854 26.4621Z" fill="#A55513"/>
<path d="M74.1945 27.9386C73.7146 27.9242 73.397 27.5524 73.4004 27.0109C73.4004 26.6751 73.5247 26.3213 73.7457 26.0109C73.9666 25.704 74.26 25.4766 74.5708 25.3827C74.6985 25.3358 74.8331 25.3141 74.9609 25.3177C75.42 25.3321 75.7273 25.704 75.7238 26.2311C75.7169 26.9206 75.1922 27.6607 74.55 27.8881C74.4223 27.9278 74.3049 27.9423 74.191 27.9386H74.1945ZM74.8435 25.7257C74.7572 25.7257 74.664 25.7401 74.5673 25.7726C74.3464 25.8412 74.1427 25.9928 73.9908 26.2058C73.8389 26.4188 73.7526 26.6607 73.7526 26.8917C73.7491 27.3574 74.1116 27.6426 74.557 27.5054C74.9989 27.3466 75.3648 26.8303 75.3682 26.3502C75.3682 25.9856 75.1611 25.7329 74.8435 25.722V25.7257Z" fill="#A55513"/>
<path d="M76.4837 27.1191C76.028 27.1047 75.7207 26.7473 75.7277 26.2238C75.7346 25.5271 76.2662 24.7581 76.9187 24.5199C77.0603 24.4693 77.1983 24.4441 77.3295 24.4477C77.7956 24.4621 78.1029 24.8339 78.096 25.3682C78.0925 25.704 77.9648 26.0614 77.7438 26.3791C77.516 26.7004 77.2156 26.9386 76.898 27.0506C76.7564 27.1011 76.6184 27.1264 76.4872 27.1191H76.4837ZM77.1983 24.8664C77.1086 24.8664 77.0119 24.8809 76.9153 24.917C76.463 25.083 76.0936 25.6137 76.0867 26.1011C76.0798 26.5632 76.4526 26.8303 76.8945 26.6715C77.1189 26.5921 77.3295 26.4224 77.4849 26.1986C77.6402 25.982 77.7266 25.7329 77.7266 25.5018C77.7266 25.1336 77.516 24.8773 77.1949 24.8664H77.1983Z" fill="#A55513"/>
<path d="M78.8583 26.2671C78.3956 26.2527 78.0918 25.8917 78.0987 25.3682C78.1022 25.0252 78.2299 24.657 78.4612 24.3321C78.6926 24.0036 78.9964 23.7581 79.3174 23.639C79.4624 23.5848 79.604 23.5595 79.7352 23.5668C80.2047 23.5812 80.5154 23.953 80.505 24.4909C80.5016 24.8303 80.3704 25.1949 80.1425 25.5162C79.9112 25.8411 79.604 26.083 79.276 26.2021C79.131 26.2527 78.9894 26.278 78.8583 26.2743V26.2671ZM79.5936 23.9891C79.5004 23.9891 79.4037 24.0036 79.3036 24.0397C79.0827 24.1191 78.8721 24.2888 78.7133 24.5162C78.5545 24.74 78.4647 24.9964 78.4612 25.2346C78.4543 25.7039 78.8341 25.9747 79.2864 25.8086C79.5142 25.7256 79.7248 25.5595 79.8871 25.3321C80.0424 25.1119 80.1322 24.8628 80.1356 24.6317C80.1391 24.2599 79.9216 24 79.5971 23.9891H79.5936Z" fill="#A55513"/>
<path d="M44.2861 28.1192C65.2745 28.0235 82.2641 21.9753 82.2334 14.6102C82.2027 7.24516 65.1632 1.35224 44.1748 1.448C23.1864 1.54377 6.19679 7.59196 6.22752 14.957C6.25825 22.3221 23.2977 28.215 44.2861 28.1192Z" fill="#34292A"/>
<path d="M44 24.9964C68.3005 24.9964 88 19.4008 88 12.4982C88 5.59563 68.3005 0 44 0C19.6995 0 0 5.59563 0 12.4982C0 19.4008 19.6995 24.9964 44 24.9964Z" fill="#AF7733"/>
<path d="M43.9996 24.3393C68.0599 24.3393 87.5646 18.8908 87.5646 12.1697C87.5646 5.44855 68.0599 0 43.9996 0C19.9393 0 0.43457 5.44855 0.43457 12.1697C0.43457 18.8908 19.9393 24.3393 43.9996 24.3393Z" fill="#EEE3CD"/>
<path d="M44.0002 23.4946C67.2292 23.4946 86.06 18.2351 86.06 11.7473C86.06 5.25944 67.2292 0 44.0002 0C20.7712 0 1.94043 5.25944 1.94043 11.7473C1.94043 18.2351 20.7712 23.4946 44.0002 23.4946Z" fill="#F0C495"/>
<path d="M44.0001 23.2057C63.267 23.2057 78.8859 18.8434 78.8859 13.4621C78.8859 8.08078 63.267 3.71838 44.0001 3.71838C24.7332 3.71838 9.11426 8.08078 9.11426 13.4621C9.11426 18.8434 24.7332 23.2057 44.0001 23.2057Z" fill="#C34900"/>
<path d="M22.823 9.88447C22.9473 10.0614 22.9991 10.2924 23.1061 10.4837C23.3409 10.9025 23.8 11.065 24.2316 11.1444C25.4192 11.3646 26.6344 11.1805 27.8289 10.9892C30.6978 10.5235 33.5598 9.99277 36.4114 9.39711C36.6634 9.34295 36.9258 9.28519 37.126 9.1083C37.3263 8.92779 37.4436 8.58844 37.3159 8.33934C37.1675 8.05054 36.8153 8.03249 36.5253 8.04693C34.63 8.14801 32.7347 8.2527 30.8359 8.35379C30.5079 8.37184 30.104 8.34296 29.9521 8.01083C29.738 7.54151 30.2559 7.06498 30.7047 6.93501C31.1535 6.80505 31.7197 6.6787 31.844 6.16606C26.3755 5.04693 20.5893 6.03971 15.6594 8.95306C15.3038 9.16245 14.8964 9.50902 14.9758 9.95306C15.0691 10.4874 15.7181 10.5415 16.1911 10.4621C17.9725 10.1733 19.7539 9.88086 21.5353 9.59205C21.991 9.51624 22.533 9.48014 22.823 9.88808V9.88447Z" fill="#D66730"/>
<path d="M71.1013 11.7509C70.4833 11.4296 69.8688 11.1083 69.2509 10.787C68.626 10.4621 68.7399 9.41155 69.4166 9.27076C70.5628 9.02888 71.7055 8.787 72.8517 8.54874C70.3453 7.70036 68.3671 6.96751 65.8469 6.88087C65.4913 6.87004 65.1667 6.67148 64.9182 6.38267C64.0309 5.34296 62.0907 5.05415 60.9169 5.48375L63.7409 6.90614C56.3771 4.80144 48.5886 4.62455 41.1592 6.39711C40.8727 6.4657 40.6345 6.74007 40.631 7.0722C40.6207 7.62094 41.1523 7.73646 41.5631 7.75451C43.9073 7.8556 46.248 7.95668 48.5921 8.06137C48.9684 8.07942 49.4379 8.17329 49.5346 8.58845C49.6451 9.06137 49.1479 9.42238 48.7233 9.50903C48.2986 9.59567 47.7911 9.63899 47.5771 10.0614C48.1295 10.5957 51.7337 10.1841 52.5933 10.296C53.453 10.4079 51.0674 11.722 50.2147 11.8809C49.1686 12.0794 48.1226 12.2744 47.0765 12.4729C46.7693 12.5307 46.4689 12.6606 46.2272 12.8881C45.4988 13.5812 45.9062 14.4368 46.4758 14.769C46.8487 14.9856 47.2767 15.0253 47.6945 15.0542C55.4484 15.6065 68.5431 16.1227 76.2349 14.8736C76.5802 14.8159 77.029 12.7112 71.702 12.4946C71.3879 12.4801 71.3913 11.9061 71.1082 11.7581L71.1013 11.7509Z" fill="#D66730"/>
<path d="M59.3976 17.1083C47.9773 15.5307 36.5673 19.3357 25.0986 20.3754C29.8456 20.8195 34.6064 21.0974 39.3671 21.213C41.0415 21.2527 42.7159 21.2707 44.3937 21.2924C45.6953 21.3068 47.0002 21.3213 48.3052 21.2996C50.1108 21.2671 51.9129 21.1552 53.7116 21.0289C58.9833 20.6534 64.2792 20.1047 69.3852 18.5632C65.5669 18.4115 61.7452 18.2635 57.9269 18.1119C58.4171 17.7798 58.9108 17.444 59.401 17.1119L59.3976 17.1083Z" fill="#D66730"/>
<path d="M33.4599 18.1985C35.0031 17.6751 36.5463 17.1516 38.0895 16.6281C35.8903 15.6137 33.4115 15.9927 31.064 16.3862C30.2043 15.5668 28.9166 15.3862 27.9051 15.9386L28.8855 16.6353C25.0362 15.9747 21.066 16.2346 17.3064 17.3899C17.1027 17.4512 16.8749 17.5415 16.7989 17.7653C16.6574 18.166 17.1131 18.4873 17.4756 18.6029C22.112 20.0938 27.0972 20.1444 31.7579 18.7509C32.331 18.5812 32.8971 18.3862 33.4633 18.1949L33.4599 18.1985Z" fill="#D66730"/>
<path d="M70.4726 11.9278C70.5589 12.2239 70.8662 12.343 71.132 12.4044C72.6269 12.7437 74.2011 12.4946 75.6062 11.834C75.803 11.7401 76.0274 11.5921 76.0274 11.3502C76.0274 11.0722 75.7409 10.9242 75.5027 10.8592C74.101 10.4874 72.6165 10.5271 71.2321 10.9748C71.0284 11.0397 70.8178 11.1192 70.659 11.2816C70.5002 11.4405 70.4001 11.7004 70.4657 11.9314L70.4726 11.9278Z" fill="#7F0D0D"/>
<path d="M72.1293 12.4585C72.8992 12.5379 73.7001 12.3827 74.3561 11.917C75.012 11.4513 75.4919 10.6426 75.5402 9.76176C75.5506 9.55598 75.5402 9.34298 75.4574 9.15887C75.3262 8.86284 75.05 8.69678 74.7738 8.58486C74.0177 8.28161 73.1616 8.28522 72.4297 8.65706C71.6978 9.0289 71.1143 9.78342 70.9314 10.6715C70.8347 11.13 70.8623 11.6607 71.142 12.0109C71.3871 12.3177 71.7703 12.4188 72.1328 12.4585H72.1293Z" fill="#AF951A"/>
<path d="M74.4565 8.7365C73.7108 8.44408 72.8408 8.62098 72.2298 9.18777C71.6187 9.75455 71.2907 10.6896 71.3908 11.5813C71.636 10.9351 71.9708 10.3249 72.4196 9.84481C72.8719 9.36466 73.8386 8.80509 74.4531 8.7365H74.4565Z" fill="#CEB341"/>
<path d="M72.6333 11.7112C73.1339 11.4368 73.6414 11.1625 74.066 10.7509C74.4907 10.343 74.8255 9.77617 74.8773 9.14801C73.7933 9.34657 72.8059 10.1444 72.2812 11.2455C72.2052 11.4079 72.15 11.6426 72.2812 11.7509C72.3813 11.8303 72.5194 11.7726 72.6333 11.7112Z" fill="#CEB341"/>
<path d="M75.0677 8.91699C75.0194 9.22385 75.192 9.55598 75.4509 9.66067C75.5165 9.50905 75.5096 9.31771 75.4336 9.17331C75.3577 9.0253 75.2161 8.92782 75.0677 8.9206V8.91699Z" fill="#7F690D"/>
<path d="M24.166 17.9639C24.2523 18.2599 24.5595 18.3791 24.8254 18.4404C26.3202 18.7798 27.8945 18.5307 29.2996 17.87C29.4964 17.7762 29.7208 17.6282 29.7208 17.3863C29.7208 17.1083 29.4342 16.9603 29.196 16.8953C27.7944 16.5235 26.3099 16.5632 24.9255 17.0108C24.7218 17.0758 24.5112 17.1552 24.3524 17.3177C24.1936 17.4765 24.0935 17.7365 24.1591 17.9675L24.166 17.9639Z" fill="#7F0D0D"/>
<path d="M25.8227 18.4982C26.5926 18.5776 27.3935 18.4224 28.0494 17.9531C28.7019 17.4837 29.1853 16.6787 29.2336 15.7978C29.2439 15.5921 29.2336 15.3791 29.1507 15.1949C29.0195 14.8989 28.7434 14.7328 28.4672 14.6209C27.7111 14.3177 26.8549 14.3213 26.123 14.6931C25.3911 15.065 24.8077 15.8195 24.6247 16.7076C24.5281 17.1661 24.5557 17.6967 24.8353 18.0469C25.0804 18.3538 25.4636 18.4549 25.8261 18.4946L25.8227 18.4982Z" fill="#AF951A"/>
<path d="M28.146 14.7762C27.4003 14.4838 26.5303 14.6607 25.9192 15.2274C25.3082 15.7942 24.9802 16.7292 25.0803 17.6209C25.3254 16.9747 25.6603 16.3646 26.1091 15.8845C26.5579 15.4043 27.528 14.8448 28.1425 14.7762H28.146Z" fill="#CEB341"/>
<path d="M26.3267 17.7509C26.8272 17.4766 27.3347 17.2022 27.7594 16.7906C28.184 16.3827 28.5189 15.8159 28.5707 15.1877C27.4866 15.3863 26.4993 16.1841 25.9745 17.2852C25.8986 17.4477 25.8433 17.6823 25.9745 17.7906C26.0746 17.8701 26.2127 17.8123 26.3267 17.7509Z" fill="#CEB341"/>
<path d="M28.7571 14.9567C28.7088 15.2635 28.8814 15.5957 29.1403 15.7003C29.2059 15.5487 29.199 15.3574 29.1231 15.213C29.0471 15.065 28.9056 14.9675 28.7571 14.9603V14.9567Z" fill="#7F690D"/>
<path d="M65.953 10.1913C66.2706 10.1986 66.5848 10.296 66.861 10.4693C66.9438 10.5199 67.0301 10.5921 67.0405 10.7004C67.0578 10.8737 66.8713 10.9675 66.7229 11.0072C65.304 11.3791 63.8609 11.6209 62.4075 11.7329C61.9897 11.7654 61.5616 11.7834 61.1646 11.6246C60.9886 11.5524 60.7987 11.3791 60.8505 11.1769C60.8919 11.0253 61.0472 10.9603 61.1819 10.917C62.9357 10.3899 64.7551 10.1552 66.5675 10.2311L65.9496 10.1913H65.953Z" fill="#7F0D0D"/>
<path d="M65.8978 10.6534C65.1072 10.7906 64.3131 10.9278 63.5225 11.065C63.0841 11.1408 62.6353 11.2166 62.1969 11.1408C61.7584 11.065 61.32 10.8123 61.099 10.3719C60.9057 9.98919 60.9091 9.50182 61.0541 9.09388C61.2026 8.68594 61.4857 8.35381 61.8171 8.11915C62.3695 7.72926 63.0634 7.61013 63.6917 7.79424C64.7619 8.10832 65.5042 9.19497 66.0807 10.2672C66.1187 10.3394 66.1567 10.4224 66.136 10.4982C66.1083 10.6029 65.9944 10.6354 65.8978 10.6534Z" fill="#AF951A"/>
<path d="M65.3009 10.3718C64.6415 9.19495 63.4228 8.45126 62.1973 8.47654C62.722 7.9278 63.5817 7.93863 64.1824 8.37184C64.7865 8.80506 65.149 9.57762 65.3009 10.3718Z" fill="#CEB341"/>
<path d="M61.6751 8.84838C61.606 8.8917 61.5715 8.99279 61.5819 9.08304C61.5888 9.17329 61.6302 9.25632 61.6786 9.32853C61.8719 9.63178 62.1653 9.83394 62.4726 9.95669C62.7798 10.083 63.1078 10.1336 63.4323 10.1877C63.5048 10.1986 63.5773 10.2094 63.6464 10.1877C63.7154 10.1661 63.781 10.1047 63.7914 10.0217C63.8017 9.91697 63.7189 9.83033 63.6429 9.76896C63.1182 9.34297 62.5244 9.02889 61.8995 8.84838C61.827 8.82672 61.7441 8.80867 61.6751 8.84838Z" fill="#CEB341"/>
<path d="M64.223 10.1697C64.0918 10.2924 64.116 10.5704 64.2679 10.6607C64.4198 10.7509 64.6338 10.6137 64.6476 10.4188C64.6545 10.3033 64.5958 10.1877 64.5061 10.1372C64.4163 10.083 64.2989 10.0975 64.223 10.1697Z" fill="#CEB341"/>
<path d="M61.247 9.6065C61.3747 9.43321 61.4541 9.213 61.4679 8.98917C61.4679 8.94224 61.4679 8.8917 61.4403 8.85921C61.4127 8.82672 61.3644 8.82672 61.3298 8.84477C61.2953 8.86282 61.2677 8.89892 61.2435 8.93502C61.1296 9.11191 61.064 9.32852 61.0605 9.54874C61.0605 9.59206 61.064 9.6426 61.0951 9.66787C61.1434 9.70758 61.2055 9.65704 61.2435 9.6065H61.247Z" fill="#7F690D"/>
<path d="M27.5633 6.73645C27.8532 6.74367 28.1398 6.83031 28.3918 6.98916C28.4678 7.03609 28.5472 7.10107 28.5575 7.19854C28.5713 7.35739 28.4022 7.44403 28.2675 7.48013C26.9729 7.81948 25.6541 8.0397 24.3284 8.14439C23.9487 8.17327 23.5551 8.19132 23.1961 8.04692C23.0372 7.98194 22.8612 7.82309 22.9095 7.63898C22.944 7.49818 23.089 7.44042 23.2133 7.40432C24.8117 6.92418 26.4758 6.71118 28.1294 6.77616L27.5667 6.74006L27.5633 6.73645Z" fill="#7F0D0D"/>
<path d="M27.5148 7.15885L25.3467 7.5343C24.9463 7.60289 24.5389 7.67148 24.1384 7.60289C23.7379 7.5343 23.3375 7.30325 23.1372 6.90253C22.9612 6.55235 22.9612 6.10831 23.0993 5.73647C23.2339 5.36463 23.4928 5.06138 23.7932 4.84838C24.2972 4.49459 24.929 4.38268 25.5021 4.55235C26.4791 4.83755 27.1557 5.83033 27.6805 6.80867C27.715 6.87365 27.7495 6.94946 27.7323 7.02167C27.7047 7.11553 27.6045 7.14802 27.5148 7.16246V7.15885Z" fill="#AF951A"/>
<path d="M26.9691 6.90253C26.3684 5.82672 25.2568 5.14802 24.1348 5.17329C24.6146 4.67148 25.3983 4.68231 25.9472 5.07582C26.4962 5.47293 26.831 6.1769 26.9657 6.90253H26.9691Z" fill="#CEB341"/>
<path d="M23.6616 5.51261C23.596 5.55232 23.5683 5.64258 23.5753 5.72561C23.5822 5.80864 23.6201 5.88084 23.665 5.94944C23.8411 6.2238 24.1069 6.41153 24.39 6.52344C24.6731 6.63536 24.97 6.6859 25.2669 6.73283C25.3325 6.74366 25.3981 6.75449 25.4637 6.73283C25.5258 6.71478 25.588 6.65702 25.5949 6.5812C25.6052 6.48373 25.5293 6.40792 25.4602 6.35016C24.9804 5.96027 24.4383 5.67507 23.8687 5.509C23.7997 5.49095 23.7272 5.4729 23.665 5.509L23.6616 5.51261Z" fill="#CEB341"/>
<path d="M25.9891 6.71478C25.8682 6.82669 25.8924 7.08301 26.0305 7.16243C26.1686 7.24546 26.3654 7.11911 26.3757 6.94221C26.3826 6.83752 26.3308 6.73283 26.248 6.68229C26.1651 6.63535 26.0616 6.64618 25.9891 6.71478Z" fill="#CEB341"/>
<path d="M23.2722 6.20214C23.3895 6.0433 23.462 5.84474 23.4758 5.63897C23.4758 5.59565 23.4758 5.54871 23.4517 5.51983C23.4275 5.49095 23.3826 5.49095 23.3516 5.509C23.3205 5.52705 23.2963 5.55954 23.2722 5.59203C23.1686 5.75449 23.1099 5.94944 23.1064 6.1516C23.1064 6.19131 23.1064 6.23824 23.1375 6.25991C23.1824 6.29601 23.2411 6.24907 23.2722 6.20214Z" fill="#7F690D"/>
<path d="M49.7233 20.2455C49.3781 20.2563 49.0329 20.361 48.7291 20.5487C48.6393 20.6065 48.5427 20.6823 48.5323 20.8014C48.515 20.9892 48.7153 21.0939 48.881 21.1372C50.4345 21.5415 52.0122 21.8087 53.6038 21.9314C54.0595 21.9675 54.5324 21.9892 54.9605 21.8123C55.1504 21.7328 55.361 21.5451 55.3058 21.3213C55.2609 21.1552 55.0917 21.083 54.9433 21.0397C53.0238 20.4621 51.0318 20.2094 49.0501 20.2888L49.7268 20.2455H49.7233Z" fill="#7F0D0D"/>
<path d="M49.7851 20.7509C50.6516 20.8989 51.5182 21.0506 52.3847 21.1986C52.8646 21.2816 53.3548 21.3646 53.8347 21.2816C54.3146 21.1986 54.7944 20.9242 55.0361 20.4405C55.2467 20.0217 55.2467 19.4874 55.0844 19.0397C54.9222 18.5921 54.6115 18.2311 54.2524 17.9748C53.6483 17.5488 52.8922 17.4188 52.2017 17.6174C51.0314 17.9603 50.2166 19.148 49.5883 20.3249C49.5469 20.4007 49.5055 20.491 49.5296 20.5776C49.5607 20.6932 49.685 20.7293 49.7885 20.7473L49.7851 20.7509Z" fill="#AF951A"/>
<path d="M50.4375 20.4441C51.159 19.1553 52.4916 18.343 53.8346 18.3719C53.2615 17.769 52.319 17.7834 51.6596 18.2564C51.0002 18.7293 50.5998 19.5777 50.4375 20.4441Z" fill="#CEB341"/>
<path d="M54.4013 18.7798C54.4773 18.8268 54.5118 18.9351 54.5049 19.0362C54.4945 19.1336 54.4497 19.2239 54.3979 19.3033C54.1873 19.6318 53.8662 19.8556 53.5279 19.9928C53.1896 20.13 52.834 20.1878 52.4784 20.2455C52.399 20.2564 52.3196 20.2708 52.2436 20.2455C52.1677 20.2239 52.0952 20.1553 52.0848 20.065C52.0744 19.9495 52.1642 19.8556 52.2471 19.7871C52.8202 19.3213 53.4726 18.9748 54.1562 18.7798C54.2356 18.7582 54.3254 18.7365 54.4013 18.7798Z" fill="#CEB341"/>
<path d="M51.6145 20.2238C51.7595 20.3574 51.7319 20.6643 51.5662 20.7617C51.4005 20.8592 51.1657 20.7076 51.1519 20.4946C51.145 20.3682 51.2071 20.2419 51.3038 20.1841C51.4005 20.1264 51.5282 20.1408 51.6145 20.2202V20.2238Z" fill="#CEB341"/>
<path d="M54.8706 19.6065C54.7325 19.4188 54.6462 19.1769 54.6289 18.9314C54.6289 18.8809 54.6289 18.8267 54.6565 18.7906C54.6876 18.7545 54.7394 18.7545 54.7774 18.7762C54.8153 18.7979 54.8464 18.8376 54.8706 18.8773C54.9949 19.0686 55.0674 19.3069 55.0708 19.5488C55.0708 19.5957 55.0674 19.6498 55.0328 19.6787C54.981 19.722 54.912 19.6643 54.8706 19.6101V19.6065Z" fill="#7F690D"/>
<path d="M50.6663 7.0433C50.6007 6.71478 50.2348 6.61731 49.9413 6.61731C48.5673 6.61731 47.2692 7.29962 46.0402 7.99998C45.9504 8.05052 45.8537 8.10828 45.7881 8.19493C45.7226 8.28518 45.6949 8.41875 45.7467 8.51984C45.8123 8.64258 45.9608 8.65702 46.085 8.65341C47.4453 8.64258 48.8055 8.3646 50.0759 7.80865C50.2278 7.74005 50.3832 7.66785 50.504 7.5415C50.6249 7.41514 50.7043 7.22381 50.6663 7.0433Z" fill="#7F0D0D"/>
<path d="M48.7472 4.57399C47.5803 4.36821 46.3306 5.13356 45.8403 6.35738C45.5883 6.98915 45.5676 7.83753 46.0371 8.28518C46.3513 8.58482 46.8001 8.62092 47.2075 8.57399C47.8738 8.49457 48.5193 8.22742 49.0786 7.80504C49.3859 7.57038 49.669 7.28157 49.8519 6.91695C50.0349 6.55233 50.1074 6.09745 49.9831 5.70034C49.8623 5.30323 49.562 5.00359 49.2271 4.83031C48.8922 4.65702 49.1097 4.64258 48.7472 4.5776V4.57399Z" fill="#AF951A"/>
<path d="M45.9679 6.74724C45.8885 7.09742 45.8781 7.48732 46.03 7.80501C46.2337 6.46205 47.0968 5.27432 48.2188 4.79056C47.2004 4.77251 46.2199 5.6245 45.9679 6.74724Z" fill="#CEB341"/>
<path d="M49.2343 5.73286C49.2895 5.55596 49.3033 5.32853 49.1756 5.213C49.0548 5.1047 48.8822 5.15524 48.7406 5.22022C47.7394 5.68232 46.9765 6.75452 46.79 7.96391C47.4425 7.64983 48.0501 7.21661 48.5853 6.68954C48.8545 6.42239 49.1135 6.11553 49.2377 5.73286H49.2343Z" fill="#CEB341"/>
<path d="M49.514 6C49.3345 6.18051 49.1584 6.39712 49.117 6.66787C49.1101 6.7148 49.1101 6.76896 49.1412 6.79784C49.1791 6.83394 49.2378 6.81228 49.2793 6.7834C49.4829 6.65343 49.6418 6.44044 49.7246 6.19134C49.7557 6.09748 49.7591 5.96029 49.6763 5.9278C49.6176 5.90614 49.5589 5.95307 49.514 6Z" fill="#CEB341"/>
<path d="M48.9268 4.86279C49.0787 5.16243 49.3583 5.37904 49.6621 5.42597C49.5137 5.11911 49.234 4.9025 48.9268 4.86279Z" fill="#7F690D"/>
<path d="M29.9316 7.805C29.4828 7.74363 28.958 7.91331 28.6749 8.20934C29.0236 8.2671 29.4137 8.18046 29.7451 8.03966C30.0766 7.89526 30.3631 7.6967 30.6427 7.50175C30.5806 7.60645 30.5185 7.71114 30.4598 7.81944C30.7946 7.6967 31.1468 7.60645 31.5024 7.54869L31.0225 7.86999C31.3677 7.79056 31.7302 7.77973 32.0616 7.83749C31.8856 7.9097 31.7061 7.97829 31.53 8.05049C31.8994 8.08659 32.2377 8.20573 32.4966 8.38984C32.0893 8.45121 31.6784 8.51258 31.2711 8.57035C31.4333 8.64616 31.599 8.72197 31.7613 8.79778C31.3159 8.88804 30.843 8.86638 30.4529 8.72919C30.5633 8.84471 30.6704 8.96024 30.7808 9.07576C30.408 8.96746 30.0351 8.85916 29.6657 8.75085C29.7313 8.87721 29.7969 8.99995 29.8625 9.1263C29.6899 9.03605 29.6001 8.88082 29.4379 8.78695C29.2722 8.68948 28.9545 8.6967 28.8682 8.85194C28.813 8.95302 28.889 9.05771 28.9822 9.12991C29.1962 9.29598 29.5173 9.38984 29.8487 9.38262C29.7175 9.39706 29.5863 9.44399 29.4828 9.5162C29.7244 9.57757 29.9419 9.67865 30.118 9.81222C29.9281 9.77251 29.7382 9.73641 29.5518 9.6967C29.8245 9.95663 29.9833 10.2851 30.0006 10.6317C29.866 10.3754 29.645 10.148 29.3619 9.97107C29.3412 10.1407 29.3205 10.3104 29.2998 10.4765C28.9407 10.296 28.6715 10.0288 28.5403 9.71836C28.485 9.84833 28.4298 9.97829 28.3746 10.1083C28.1847 9.77973 28.1502 9.39706 28.271 9.02883C28.1502 9.11547 28.0293 9.20573 27.9119 9.29237C28.0052 9.09742 28.0984 8.89526 28.05 8.70392C28.0017 8.51259 27.7531 8.35013 27.4873 8.40789C27.6047 8.3393 27.6565 8.22017 27.6116 8.1263C27.7117 8.2671 28.0155 8.2671 28.2019 8.15879C28.3918 8.05049 28.4816 7.8736 28.523 7.70753C28.5644 7.54147 28.5748 7.37179 28.6473 7.20934C28.7232 7.34652 28.7405 7.50536 28.6956 7.6606C28.9753 7.41872 29.2204 7.15157 29.4206 6.8736C29.3654 7.05049 29.3101 7.22739 29.2549 7.40428C29.5345 7.25627 29.866 7.16962 30.1905 7.15879C29.9039 7.30681 29.6519 7.49453 29.4517 7.70031C29.6312 7.6606 29.8245 7.70753 29.9247 7.805H29.9316Z" fill="#485B24"/>
<path d="M64.3307 17.9711C64.1478 17.823 63.9683 17.6714 63.7853 17.5234C63.8543 17.8591 63.8371 18.2165 63.7404 18.5415C63.7024 18.4368 63.6679 18.3321 63.6299 18.2238C63.3261 18.6931 62.9395 19.0938 62.4976 19.3898C62.646 18.6245 62.7979 17.8628 62.9464 17.0974C62.6011 17.4115 62.2593 17.7292 61.9141 18.0433C61.8969 17.9386 61.8796 17.8339 61.8623 17.7292C61.4964 17.9783 61.1304 18.2274 60.7645 18.4801L60.7748 18.1913C60.3364 18.1407 59.898 18.0866 59.4561 18.036C59.8945 17.657 60.3951 17.3718 60.9233 17.2021C60.7231 16.9747 60.5228 16.7508 60.3226 16.5234C61.0131 16.6461 61.7311 16.5739 62.394 16.3176C62.0211 15.9638 61.5413 15.7653 61.0579 15.7617C60.7921 15.3393 60.4089 15.0144 59.9739 14.8519L61.4342 15.1119C61.3548 14.8375 61.2754 14.5631 61.1995 14.2924C61.631 14.5812 62.0626 14.87 62.4941 15.1588C62.5424 14.9566 62.5873 14.7545 62.6357 14.5523C62.7876 15.1804 63.2191 15.7147 63.7611 15.935C63.661 16.6642 63.875 17.444 64.3273 17.9747L64.3307 17.9711Z" fill="#485B24"/>
<path d="M41.2036 17.4007C41.1587 17.2743 41.1138 17.1516 41.0689 17.0252C40.7789 17.2274 40.3647 17.4187 39.8951 17.574L40.1161 17.3754C39.2496 17.5631 38.3623 17.6895 37.5303 17.7472L40.5683 16.592C39.8261 16.6823 39.0804 16.7761 38.3381 16.8664C38.4348 16.805 38.528 16.7436 38.6247 16.6823C37.9273 16.7328 37.2334 16.7833 36.536 16.8339C36.6465 16.7833 36.757 16.7292 36.864 16.6786C36.4152 16.5451 35.9664 16.4115 35.5176 16.2815C36.4394 16.1768 37.3266 16.1407 38.1241 16.1696C38.1414 15.9963 38.1586 15.8267 38.1759 15.6534C38.8387 15.8844 39.7467 16.0144 40.7927 16.0288C40.7513 15.7472 40.4164 15.5234 39.8641 15.4043C40.0229 15.1082 39.9331 14.8411 39.6155 14.6462L41.0137 15.1371C41.2243 14.9675 41.4349 14.7978 41.642 14.6317C41.8215 14.8916 42.0045 15.1552 42.184 15.4151C42.4602 15.314 42.7399 15.2166 43.016 15.1155C42.4982 15.4981 42.4119 15.8916 42.7951 16.1407C41.8733 16.5198 41.2692 16.9999 41.207 17.3971L41.2036 17.4007Z" fill="#485B24"/>
<path d="M43.6995 9.07943C41.3346 8.75091 38.9284 8.79784 36.5739 9.22383C35.8868 9.34657 35.1998 9.50542 34.5473 9.78701C34.3989 9.85199 34.2194 10.0144 34.2988 10.1733C34.3471 10.2672 34.4576 10.2816 34.5508 10.2852C37.8927 10.4404 41.2932 10.5848 44.5246 9.6065C44.4279 9.24188 44.0309 9.12636 43.6995 9.07943Z" fill="#7F0D0D"/>
<path d="M35.9584 9.71117C35.7616 9.51623 35.658 9.23464 35.5614 8.96027C35.0435 7.52706 34.5257 6.09384 34.0078 4.66063C35.5027 3.58482 37.0907 2.59926 38.8307 2.22381C40.5707 1.84836 42.4937 2.1516 43.8608 3.42958L43.6157 9.55233C41.4821 9.70034 39.3451 9.84836 37.2116 9.99637C36.7766 10.0253 36.2898 10.0397 35.9584 9.71117Z" fill="#FDD069"/>
<path d="M34.0049 4.66065C34.5227 6.09386 35.0406 7.52707 35.5584 8.96029C35.6586 9.23465 35.7621 9.51624 35.9555 9.71119C36.2834 10.0397 36.7702 10.0253 37.2086 9.99639C37.4676 9.97834 37.7265 9.96029 37.9854 9.94224C37.7403 7.51985 37.6713 5.08664 37.2673 2.73285C36.1212 3.2166 35.0406 3.91335 34.0049 4.66065Z" fill="#EA9232"/>
<path d="M38.9283 6.18769L39.0112 4.16241C39.2874 5.83028 39.5325 7.50176 39.7465 9.18047C39.5221 9.25989 39.2977 9.33931 39.0733 9.41873C38.5451 7.75447 38.3034 5.97469 38.3621 4.20574C38.4139 4.90249 38.6072 5.58841 38.9249 6.18769H38.9283Z" fill="#EA9232"/>
<path d="M41.7722 9.05777C41.717 7.37185 41.7273 5.68232 41.7998 3.9964C41.9172 4.40073 42.038 4.80506 42.1554 5.21301C42.1761 5.2816 42.2037 5.36102 42.2659 5.38268C42.3487 5.41156 42.4247 5.32492 42.4627 5.23467C42.5006 5.14802 42.5248 5.04333 42.6008 4.99279C42.7009 4.92781 42.8286 5.00362 42.9046 5.1047C42.9805 5.20579 43.0288 5.33214 43.1221 5.40795C43.2153 5.48737 43.3775 5.48015 43.4155 5.35741C43.4086 6.70037 43.3913 8.03972 43.3603 9.38268C42.7872 9.37907 42.2141 9.43683 41.6514 9.55958L41.7757 9.05777H41.7722Z" fill="#EA9232"/>
<path d="M59.5211 10.592C59.6488 10.574 59.7869 10.5559 59.9077 10.6101C60.0286 10.6642 60.1287 10.8123 60.0942 10.9567C60.07 11.0541 59.9975 11.1227 59.925 11.1805C59.0895 11.8375 58.0331 12.0253 57.1597 12.6173C56.7834 12.87 56.4519 13.1949 56.0825 13.4621C55.3472 13.9892 54.491 14.2671 53.6314 14.4151C51.7464 14.7364 49.7855 14.4476 48.0386 13.592C47.9385 13.5451 47.8315 13.4801 47.8004 13.3646C47.7486 13.1769 47.9212 13.0144 48.0731 12.917C51.3183 10.8484 55.1228 9.71118 58.7926 10.3899L59.5245 10.592H59.5211Z" fill="#7F0D0D"/>
<path d="M53.5799 14.2383C54.1358 14.1913 54.6812 14.0758 55.2094 13.8411C56.7803 13.1408 57.9092 11.4982 59.4662 10.7545C58.8413 9.44404 58.1508 8.05415 56.977 7.38628C55.5063 6.54512 53.6904 7.07942 52.1334 6.4657C51.1288 8.98916 49.8687 11.3791 48.3945 13.5848C50.1138 13.9061 51.8434 14.1119 53.5765 14.2419L53.5799 14.2383Z" fill="#FDD069"/>
<path d="M53.5419 14.2346C54.1115 14.1913 54.6708 14.0794 55.2094 13.8375C56.7802 13.1372 57.9091 11.4946 59.4661 10.7509C58.8412 9.44042 58.1508 8.05053 56.977 7.38266C56.9355 7.361 56.8941 7.34295 56.8561 7.32129C55.6651 9.7184 54.4015 11.9061 53.3555 14.2202C53.4176 14.2238 53.4798 14.231 53.5419 14.2346Z" fill="#EA9232"/>
<path d="M50.0924 13.8592C50.7518 12.4946 51.4146 11.1299 52.074 9.76172C52.1568 9.59204 52.2293 9.34655 52.0913 9.22742C51.9704 9.12634 51.8047 9.2202 51.677 9.30684C51.5492 9.38988 51.3559 9.45125 51.2731 9.31045C50.5653 10.8159 49.7713 12.2707 48.9082 13.6679C49.3018 13.7364 49.6988 13.8014 50.0958 13.8592H50.0924Z" fill="#EA9232"/>
<path d="M52.8307 13.3754C52.7341 13.509 52.6374 13.6426 52.5097 13.7365C52.3819 13.8303 52.2231 13.8809 52.0781 13.8267C52.4682 12.6209 53.0172 11.4837 53.7076 10.4657C53.7698 10.9386 53.5937 11.4404 53.2588 11.7328C53.4107 11.704 53.5592 11.6715 53.7111 11.6426C53.5972 12.3032 53.207 12.852 52.8307 13.3718V13.3754Z" fill="#EA9232"/>
<path d="M51.2286 14.0108C51.2286 14.0108 51.2458 13.9819 51.2528 13.9639L53.2655 9.95305C53.4312 9.62453 53.6003 9.24908 53.5175 8.88446C52.6095 10.5415 51.7637 12.2419 50.9766 13.9783C51.0594 13.9892 51.1423 14 51.2251 14.0108H51.2286Z" fill="#EA9232"/>
<path d="M64.9039 16.2924C65.6462 16.5559 66.3642 16.9025 67.0478 17.3249C67.9558 17.8881 68.8396 18.6029 69.8684 18.7112C70.4863 18.7762 71.1112 18.6101 71.6877 18.3393C72.2608 18.0686 72.7925 17.6931 73.3207 17.3177C73.4553 17.2238 73.6038 17.0938 73.5934 16.9133C73.5831 16.7292 73.4105 16.6245 73.262 16.5559C72.903 16.3899 72.5439 16.2202 72.1849 16.0541C70.9524 15.4801 69.7096 14.8989 68.4011 14.639C67.0892 14.379 65.6876 14.4657 64.5069 15.166C64.4033 15.2274 64.2963 15.2996 64.2376 15.4188C64.1444 15.6137 64.2273 15.87 64.3757 16.0144C64.5242 16.1588 64.7175 16.2238 64.9039 16.2924Z" fill="#7F0D0D"/>
<path d="M71.2669 18.0072C70.8699 18.213 70.4107 18.1733 69.9792 18.0975C68.0148 17.7509 66.154 16.7112 64.7109 15.1552C66.2403 13.7689 68.3186 11.3682 69.3992 11.4188C70.9838 12.4837 72.7411 12.9206 74.3257 13.9855C73.6974 14.9314 72.8032 16.0794 72.1749 17.0289C71.9194 17.4115 71.6501 17.8086 71.2669 18.0072Z" fill="#FDD069"/>
<path d="M73.9287 14.1624C71.9678 14.7292 70.1139 15.7761 68.5293 17.2057C69.3268 17.6967 70.2762 18.0397 71.1324 17.7075C71.9713 17.3826 72.5306 16.4946 73.0277 15.6606C73.328 15.1588 73.6249 14.6606 73.9253 14.1588L73.9287 14.1624Z" fill="#EA9232"/>
<path d="M68.2595 13.4224C67.676 13.8664 67.1237 14.3646 66.6127 14.9097C66.4263 15.1083 66.233 15.3213 65.9878 15.4043C65.7427 15.4874 65.4251 15.3791 65.3457 15.1011C66.485 14.231 67.6242 13.361 68.767 12.491C68.798 12.6245 68.7877 12.7653 68.7428 12.8917C68.6565 13.13 68.4528 13.2816 68.2664 13.4224H68.2595Z" fill="#EA9232"/>
<path d="M66.6719 15.5559C67.0482 15.1985 67.4315 14.8339 67.8872 14.6281C67.6559 15.1552 67.2726 15.5956 66.81 15.8592C66.8169 15.8086 66.7652 15.7725 66.7237 15.7617C66.6788 15.7472 66.6271 15.7328 66.6133 15.6859C66.5994 15.6353 66.6374 15.592 66.6754 15.5595L66.6719 15.5559Z" fill="#EA9232"/>
<path d="M12.2451 14.5559C12.2486 14.9855 12.7008 15.1985 13.0702 15.2852C14.2682 15.5668 15.4938 15.6931 16.7124 15.8195C17.7309 15.9242 18.7597 16.0289 19.7781 15.917C20.8069 15.8014 21.8012 15.4693 22.792 15.1336C23.9451 14.7473 25.0982 14.3574 26.2478 13.9711C26.4342 13.9097 26.6379 13.8267 26.7208 13.6281C26.8105 13.4115 26.7035 13.1372 26.5309 12.9964C26.3583 12.8556 26.1408 12.8123 25.9302 12.7798C23.6447 12.4043 21.304 12.4765 19.0393 12.9928C18.1417 13.1949 17.2475 13.4693 16.3361 13.5162C15.1175 13.5776 13.8159 13.2491 12.7319 13.8772C12.4902 14.018 12.2451 14.2527 12.2486 14.5632L12.2451 14.5559Z" fill="#7F0D0D"/>
<path d="M18.9565 15.3393C21.2661 15 23.3133 13.4151 25.6126 12.9855C24.0625 11.0686 22.5124 9.15159 20.9588 7.23462C18.8564 7.83029 16.6745 8.50899 15.0691 10.1624C14.0196 11.2454 13.2946 12.6678 12.5869 14.0649C14.648 14.8556 16.7988 15.657 18.9565 15.3393Z" fill="#FDD069"/>
<path d="M15.1313 10.101C15.1106 10.1227 15.0899 10.1371 15.0691 10.1588C14.0196 11.2418 13.2946 12.6642 12.5869 14.0613C14.648 14.8519 16.7988 15.6534 18.9565 15.3357C19.2119 15.2996 19.4674 15.2418 19.7194 15.1768C18.2108 13.462 16.6952 11.7508 15.1313 10.0974V10.101Z" fill="#EA9232"/>
<path d="M20.5546 14.8519C19.2047 13.5776 17.9274 12.1985 16.7363 10.7328C16.8226 10.6425 16.9089 10.5523 16.9953 10.4656C17.1092 10.7183 17.3819 10.8014 17.6132 10.9133C18.1207 11.1624 18.5039 11.6534 18.8664 12.1299C18.7801 12.0072 18.8388 11.8086 18.9596 11.7328C19.0805 11.657 19.2324 11.6859 19.3497 11.7689C19.4671 11.8483 19.5569 11.9711 19.6432 12.0938C20.2094 12.888 20.779 13.6822 21.3452 14.4729C21.0828 14.5992 20.817 14.7292 20.5546 14.8555V14.8519Z" fill="#EA9232"/>
<path d="M23.0199 13.0866C22.4399 12.2527 21.7909 11.4765 21.0866 10.7725C21.1211 10.5198 21.0797 10.2563 20.9727 10.0325C21.96 11.1299 22.9094 12.2707 23.8139 13.4549C23.6931 13.574 23.4998 13.5595 23.3617 13.4693C23.2201 13.379 23.12 13.231 23.0199 13.0866Z" fill="#EA9232"/>
<path d="M58.7076 13.6426C58.5454 13.2815 58.2243 13.0433 57.8998 12.87C56.8813 12.3321 55.6592 12.0577 54.5475 12.2454C52.6971 12.5595 50.9399 13.4621 49.5417 14.8772C49.1412 15.2815 48.7822 16.0722 48.8236 16.6823C48.8754 17.444 49.5831 17.9097 50.2287 18.1155C51.91 18.6534 53.7155 18.3321 55.3899 17.7617C56.0838 17.527 56.7709 17.2454 57.375 16.7906C57.9792 16.3357 58.497 15.6967 58.7249 14.9133C58.8457 14.4982 58.8802 14.0252 58.7042 13.6389L58.7076 13.6426ZM58.2381 14.5198C58.1967 14.7509 58.0758 14.9566 57.9412 15.1371C57.3612 15.9133 56.5085 16.3429 55.673 16.7039C54.0642 17.4007 52.3415 17.9494 50.6395 17.6678C50.2218 17.5992 49.7695 17.4476 49.5486 17.0397C49.3552 16.6823 49.3932 16.2057 49.5658 15.8339C49.7384 15.4621 50.025 15.1769 50.3184 14.9205C52.0895 13.3754 54.3991 12.6498 56.619 12.9494C57.016 13.0036 57.4268 13.0938 57.7548 13.3537C58.0862 13.6137 58.321 14.0758 58.2381 14.5234V14.5198Z" fill="#CE9CCF"/>
<path d="M58.6043 13.1985C58.442 12.8375 58.1209 12.5992 57.7964 12.426C56.778 11.888 55.6007 11.8447 54.4891 12.0325C52.6386 12.3465 50.8779 13.2852 49.4797 14.7003C49.0793 15.1047 48.6823 15.6317 48.7237 16.2382C48.7755 17 49.4832 17.4657 50.1288 17.6714C51.8101 18.2093 53.6156 17.888 55.29 17.3177C55.9839 17.083 56.671 16.8014 57.2751 16.3465C57.8793 15.8917 58.3971 15.2527 58.625 14.4693C58.7458 14.0541 58.7803 13.5812 58.6043 13.1949V13.1985ZM58.1347 14.0758C58.0933 14.3068 57.9725 14.5126 57.8378 14.6931C57.2579 15.4693 56.4051 15.8989 55.5697 16.2599C53.9609 16.9566 52.2382 17.5054 50.5362 17.2238C50.1184 17.1552 49.6662 17.0036 49.4452 16.5956C49.2519 16.2382 49.2899 15.7617 49.4625 15.3899C49.6351 15.018 49.9216 14.7328 50.2151 14.4765C51.9861 12.9314 54.2958 12.2057 56.5156 12.5054C56.9126 12.5595 57.3235 12.6498 57.6514 12.9097C57.9828 13.1696 58.2176 13.6317 58.1347 14.0794V14.0758Z" fill="#EEE3CD"/>
<path d="M47.3799 12.3032C47.3799 11.9747 47.2315 11.6714 47.0554 11.4151C46.503 10.6029 45.7228 9.89527 44.8666 9.56314C43.4477 9.01079 41.9011 8.91693 40.4442 9.3357C40.0265 9.45845 39.5155 9.87 39.3498 10.3213C39.1427 10.8844 39.4913 11.5162 39.8849 11.9314C40.9103 13.0216 42.3015 13.5523 43.679 13.8483C44.2487 13.9711 44.8321 14.0613 45.4086 13.9891C45.9852 13.9169 46.5617 13.6787 46.9795 13.2202C47.2004 12.9747 47.3765 12.6534 47.3799 12.3032ZM46.762 12.7292C46.6549 12.8772 46.503 12.9711 46.3511 13.0433C45.6883 13.3538 44.9391 13.3032 44.2245 13.2094C42.8505 13.0325 41.4454 12.6967 40.3234 11.7797C40.0472 11.5559 39.7744 11.2563 39.7503 10.8736C39.7261 10.5379 39.9091 10.213 40.1542 10.0216C40.3993 9.83029 40.6928 9.74365 40.9862 9.68588C42.7504 9.32848 44.6319 9.77975 46.1164 10.9242C46.3822 11.1299 46.6446 11.3682 46.7965 11.6895C46.9484 12.0144 46.9657 12.4404 46.762 12.7256V12.7292Z" fill="#CE9CCF"/>
<path d="M47.4522 11.9422C47.4522 11.6137 47.3037 11.3141 47.1277 11.0541C46.5753 10.2419 45.7502 9.7184 44.8975 9.38266C43.4786 8.83031 41.9147 8.75811 40.4612 9.18049C40.0435 9.30323 39.5912 9.50901 39.4221 9.96027C39.2149 10.5234 39.5636 11.1552 39.9572 11.5704C40.9825 12.6606 42.3738 13.1913 43.7513 13.4873C44.3209 13.6101 44.9044 13.7003 45.4809 13.6281C46.0575 13.5596 46.634 13.3177 47.0517 12.8592C47.2727 12.6137 47.4487 12.2924 47.4522 11.9422ZM46.8342 12.3682C46.7272 12.5162 46.5753 12.6101 46.4234 12.6823C45.7606 12.9928 45.0114 12.9422 44.2968 12.8484C42.9227 12.6715 41.5176 12.3357 40.3956 11.4188C40.1194 11.1949 39.8467 10.8953 39.8225 10.5126C39.7984 10.1769 39.9813 9.85197 40.2265 9.66063C40.4716 9.4693 40.765 9.38266 41.0585 9.32489C42.8226 8.96749 44.7041 9.41876 46.1886 10.5632C46.4545 10.7689 46.7169 11.0072 46.8688 11.3285C47.0207 11.6534 47.0379 12.0794 46.8342 12.3646V12.3682Z" fill="#EEE3CD"/>
<path d="M39.7264 11.2093C39.2189 10.8158 38.6079 10.6245 38.0037 10.5018C37.1682 10.3357 36.3224 10.2852 35.4732 10.2599C34.2821 10.2238 33.0807 10.2382 31.9103 10.5054C31.3649 10.6281 30.8056 10.8195 30.3913 11.2454C29.977 11.6678 29.7388 12.3754 29.9632 12.9602C30.1013 13.3213 30.3844 13.5812 30.6779 13.7942C31.2648 14.2202 31.9276 14.5162 32.6146 14.657C33.1912 14.7761 33.7781 14.787 34.3615 14.787C35.1901 14.787 36.0186 14.7761 36.8472 14.7653C37.3409 14.7581 37.8345 14.7509 38.3248 14.6714C38.9117 14.574 39.4848 14.3754 40.0199 14.0794C40.1959 13.9819 40.372 13.87 40.4928 13.6931C40.6378 13.4801 40.6793 13.1985 40.6655 12.9314C40.6309 12.231 40.2339 11.6028 39.723 11.2093H39.7264ZM39.9715 13.3862C39.8265 13.5162 39.6401 13.5667 39.4606 13.6101C37.7241 14.0108 35.9358 13.9963 34.1682 13.8808C33.3741 13.8303 32.5801 13.7545 31.7999 13.5884C31.4374 13.509 31.0714 13.4079 30.7711 13.1696C30.4707 12.9314 30.2429 12.5306 30.2739 12.1155C30.3154 11.5956 30.7331 11.2166 31.1543 11.0036C32.045 10.5451 33.0531 10.527 34.0301 10.5306C35.4732 10.5306 36.93 10.5667 38.3351 10.935C39.067 11.1263 39.868 11.4909 40.1476 12.2888C40.2788 12.6642 40.2477 13.148 39.9715 13.3971V13.3862Z" fill="#CE9CCF"/>
<path d="M39.7264 11.0108C39.2189 10.6173 38.6079 10.426 38.0037 10.3032C37.1682 10.1372 36.3224 10.0866 35.4732 10.0613C34.2821 10.0252 33.0807 10.0397 31.9103 10.3068C31.3649 10.4296 30.8056 10.6209 30.3913 11.0469C29.977 11.4693 29.7388 12.1769 29.9632 12.7617C30.1013 13.1227 30.4776 13.2888 30.7711 13.4982C31.358 13.9242 31.9311 13.935 32.6181 14.0758C33.1946 14.1949 33.7815 14.2057 34.365 14.2057C35.1935 14.2057 36.0221 14.1949 36.8506 14.1841C37.3443 14.1769 37.838 14.1696 38.3282 14.0902C38.9151 13.9927 39.3777 13.8917 39.9094 13.5956C40.0855 13.4982 40.3271 13.4946 40.448 13.3177C40.593 13.1047 40.6827 12.9964 40.6689 12.7292C40.6344 12.0288 40.2374 11.4007 39.7264 11.0072V11.0108ZM39.9715 13.1877C39.8265 13.3177 39.6401 13.3682 39.4606 13.4115C37.7241 13.8122 35.9358 13.7978 34.1682 13.6823C33.3741 13.6317 32.5801 13.5559 31.7999 13.3899C31.4374 13.3104 31.0714 13.2094 30.7711 12.9711C30.4707 12.7328 30.2429 12.3321 30.2739 11.9169C30.3154 11.3971 30.7331 11.018 31.1543 10.805C32.045 10.3465 33.0531 10.3285 34.0301 10.3321C35.4732 10.3321 36.93 10.3682 38.3351 10.7364C39.067 10.9278 39.868 11.2924 40.1476 12.0902C40.2788 12.4657 40.2477 12.9494 39.9715 13.1985V13.1877Z" fill="#EEE3CD"/>
<path d="M9.89415 4.77257C9.40392 4.9278 8.90333 5.1047 8.50977 5.46571C8.7894 5.50181 9.0725 5.53791 9.35559 5.57401C9.45225 5.58484 9.55928 5.6065 9.61451 5.69315C9.69046 5.81589 9.62487 5.98917 9.52475 6.08665C9.42463 6.18412 9.30035 6.24549 9.21059 6.3574C9.12428 6.46932 9.09666 6.67148 9.21059 6.75091C11.1128 5.88809 13.1221 5.19856 15.2384 4.69675C15.1244 4.64982 15.0036 4.59928 14.9138 4.50542C14.8241 4.41156 14.7619 4.26354 14.7999 4.12997C14.8241 4.03972 14.8897 3.9639 14.8793 3.87004C14.8655 3.70759 14.6687 3.68231 14.5272 3.70398C12.9633 3.93502 11.4166 4.29242 9.8976 4.77257H9.89415Z" fill="#EEE3CD"/>
<path d="M75.2054 5.08302C75.599 5.47652 76.1099 5.67869 76.6071 5.87363C77.9949 6.41515 79.3862 6.95667 80.774 7.49818C80.8638 7.01804 80.6739 6.51262 80.3736 6.15522C80.0732 5.79782 79.6796 5.57039 79.2861 5.37544C77.2596 4.36461 75.0294 3.98916 72.8164 3.9314C73.2756 4.37544 74.0109 4.10829 74.546 4.42959C74.8049 4.58483 74.9879 4.8628 75.2089 5.08663L75.2054 5.08302Z" fill="#EEE3CD"/>
</g>
<defs>
<clipPath id="clip0_621_3385">
<rect width="88" height="40" fill="white"/>
</clipPath>
</defs>
</svg>
