<svg width="96" height="44" viewBox="0 0 96 44" fill="none" xmlns="http://www.w3.org/2000/svg">
<g clip-path="url(#clip0_617_2382)">
<path d="M48.4386 43.9589C72.6847 43.9589 92.34 40.028 92.34 35.179C92.34 30.33 72.6847 26.3992 48.4386 26.3992C24.1925 26.3992 4.53711 30.33 4.53711 35.179C4.53711 40.028 24.1925 43.9589 48.4386 43.9589Z" fill="#19180F"/>
<path d="M96 32.1737C96 37.0231 74.5098 40.9536 48 40.9536C21.4903 40.9536 0 37.0231 0 32.1737C0 31.9653 0.0382843 31.7611 0.11698 31.5569C0.378589 30.8636 1.08472 30.1915 2.17795 29.5513C8.27792 25.9844 26.4842 23.396 47.9979 23.396C65.7129 23.396 81.1882 25.1507 89.5044 27.7625C93.0372 28.8728 95.279 30.1362 95.8511 31.4846C95.949 31.7122 95.9979 31.9419 95.9979 32.1737H96Z" fill="#322926"/>
<path d="M21.035 25.7866C21.035 25.7866 6.21689 27.2946 2.88829 30.855C-0.440322 34.4155 11.2066 36.5934 11.2066 36.5934C11.2066 36.5934 3.6008 33.8986 5.97655 30.8976C8.35443 27.8965 21.0329 25.7866 21.0329 25.7866H21.035Z" fill="#493B38"/>
<path d="M75.4473 25.7866C75.4473 25.7866 90.2654 27.2946 93.594 30.855C96.9226 34.4155 85.2757 36.5934 85.2757 36.5934C85.2757 36.5934 92.8815 33.8986 90.5058 30.8976C88.1279 27.8965 75.4494 25.7866 75.4494 25.7866H75.4473Z" fill="#493B38"/>
<path d="M47.5509 38.5034C68.4046 38.5034 85.3099 35.4791 85.3099 31.7483C85.3099 28.0176 68.4046 24.9933 47.5509 24.9933C26.6973 24.9933 9.79199 28.0176 9.79199 31.7483C9.79199 35.4791 26.6973 38.5034 47.5509 38.5034Z" fill="#19180F"/>
<path d="M67.9231 23.3598C67.9231 23.3598 67.9614 23.3364 68.0231 23.296C68.0614 23.2726 68.1103 23.2428 68.1677 23.2088C69.1503 22.6175 72.9001 20.5161 75.8437 20.9628C79.2616 21.4817 80.1635 17.9128 75.848 18.0957C75.848 18.0957 81.9203 15.6136 79.8721 13.6186C77.8515 11.6512 72.7023 17.4087 72.5683 17.5576C72.6682 17.4236 75.8437 13.1868 73.7806 12.3999C71.4091 11.4959 67.8189 21.9901 67.9231 23.1301C67.9274 23.179 67.9401 23.213 67.9593 23.2237C67.9614 23.2258 67.9657 23.2279 67.9678 23.2279L67.9231 23.3598Z" fill="#6F9700"/>
<path d="M67.923 23.3598C67.923 23.3598 67.9613 23.3364 68.023 23.296C68.0889 23.2237 68.1549 23.1514 68.2229 23.0769C68.3697 22.9174 68.5164 22.76 68.6674 22.6005C68.9014 22.3538 69.1354 22.1113 69.3736 21.8689C69.5607 21.6796 69.75 21.4924 69.9393 21.3074C70.8326 20.4353 71.7642 19.5995 72.7256 18.804C74.1463 17.6299 75.6394 16.541 77.1921 15.5477C77.2942 15.4839 77.1793 15.335 77.0772 15.4009C76.1924 15.9667 75.3289 16.5644 74.4845 17.1897C72.9957 18.2935 71.577 19.4889 70.2328 20.7671C69.6182 21.352 69.0184 21.9539 68.4377 22.5729C68.3101 22.7069 68.1846 22.843 68.0591 22.9791C68.0124 23.0302 67.9656 23.0812 67.9209 23.1322C67.9252 23.1812 67.9379 23.2152 67.9571 23.2258C67.9592 23.228 67.9634 23.2301 67.9656 23.2301L67.9209 23.362L67.923 23.3598Z" fill="#2C5100"/>
<path d="M67.9229 23.3598C67.9229 23.3598 67.9611 23.3364 68.0228 23.296C68.0611 23.2726 68.11 23.2428 68.1674 23.2088C68.1845 23.1663 68.2036 23.1216 68.2227 23.0791C68.2951 22.9089 68.3674 22.7409 68.4418 22.5707C68.4503 22.5516 68.4588 22.5325 68.4673 22.5133C69.7243 19.6611 71.2961 16.9493 73.1444 14.4396C73.2146 14.3417 73.0678 14.229 72.9955 14.3247C72.4723 15.0351 71.9704 15.7604 71.4918 16.5027C70.1667 18.5573 69.0182 20.7267 68.0632 22.977C68.0292 23.0599 67.993 23.1408 67.959 23.2237C67.9611 23.2258 67.9654 23.228 67.9675 23.228L67.9229 23.3598Z" fill="#2C5100"/>
<path d="M76.2668 19.2549C74.3717 19.5527 72.5277 20.1546 70.824 21.0351C70.3348 21.2882 69.8563 21.5647 69.3926 21.8625C69.2927 21.9263 69.1778 21.7795 69.2778 21.7157C70.9155 20.665 72.7127 19.8823 74.5993 19.4059C75.1416 19.2677 75.6904 19.1571 76.2434 19.0699C76.3625 19.0507 76.3859 19.2358 76.2668 19.2549Z" fill="#2C5100"/>
<path d="M35.0212 10.7813C35.0212 10.7813 34.9808 10.7579 34.9192 10.7218C34.8809 10.7005 34.8298 10.6728 34.7724 10.6388C33.7664 10.0879 29.9358 8.14183 27.0113 8.70759C23.6189 9.3648 22.5703 5.83414 26.8901 5.84264C26.8901 5.84264 20.7221 3.60727 22.6873 1.53353C24.6271 -0.514677 30.006 5.03017 30.1442 5.17267C30.0379 5.04293 26.6944 0.937999 28.7235 0.0680948C31.0567 -0.931551 35.0702 9.40734 35.0127 10.5516C35.0106 10.6027 35 10.6346 34.9808 10.6473C34.9787 10.6495 34.9745 10.6516 34.9723 10.6516L35.0234 10.7813H35.0212Z" fill="#6F9700"/>
<path d="M35.0213 10.7813C35.0213 10.7813 34.9809 10.7579 34.9192 10.7217C34.8511 10.6515 34.781 10.5814 34.7108 10.5112C34.5576 10.358 34.4045 10.2049 34.2492 10.0539C34.0068 9.8178 33.7622 9.58384 33.5133 9.35201C33.3198 9.17122 33.122 8.99044 32.9242 8.8139C31.9947 7.97803 31.0334 7.18044 30.038 6.42539C28.5704 5.30876 27.0348 4.28359 25.4417 3.35201C25.3375 3.29246 25.446 3.13932 25.5502 3.19887C26.4563 3.72847 27.3453 4.28997 28.2131 4.88125C29.7444 5.92344 31.212 7.06133 32.6051 8.28218C33.2432 8.84155 33.8664 9.41794 34.4726 10.0135C34.6044 10.1432 34.7363 10.273 34.866 10.4048C34.915 10.4537 34.9639 10.5027 35.0107 10.5516C35.0085 10.6026 34.9979 10.6345 34.9788 10.6473C34.9766 10.6494 34.9724 10.6515 34.9703 10.6515L35.0213 10.7813Z" fill="#2C5100"/>
<path d="M35.0213 10.7813C35.0213 10.7813 34.9809 10.7579 34.9192 10.7218C34.8809 10.7005 34.8299 10.6729 34.7725 10.6388C34.7533 10.5963 34.7321 10.5538 34.7129 10.5112C34.6342 10.3453 34.5555 10.1794 34.4747 10.0135C34.4662 9.99438 34.4556 9.97523 34.4471 9.95822C33.0752 7.15921 31.3949 4.51334 29.4467 2.08016C29.3723 1.98658 29.5148 1.86747 29.5892 1.96105C30.1401 2.65017 30.6718 3.35418 31.1801 4.07733C32.5881 6.07662 33.8217 8.19714 34.8682 10.407C34.9065 10.4878 34.9447 10.5686 34.9809 10.6495C34.9788 10.6516 34.9745 10.6537 34.9724 10.6537L35.0234 10.7835L35.0213 10.7813Z" fill="#2C5100"/>
<path d="M26.518 7.01667C28.4237 7.23574 30.289 7.76321 32.0288 8.57569C32.5286 8.80965 33.0178 9.067 33.4921 9.34563C33.5942 9.40518 33.7048 9.25417 33.6006 9.19249C31.9224 8.20986 30.0933 7.5016 28.1897 7.09961C27.641 6.98476 27.0901 6.89543 26.5329 6.83162C26.4138 6.81886 26.3967 7.0039 26.5158 7.01667H26.518Z" fill="#2C5100"/>
<path d="M67.3293 26.0759L66.5849 26.2673L50.7501 30.3254L34.7558 34.424C34.7558 34.424 32.8735 35.3237 28.7005 35.0791C24.5275 34.8345 15.1968 33.1968 13.9695 32.2141C12.7423 31.2315 10.2879 20.8373 11.5959 16.0092C12.9061 11.1812 19.1251 10.1985 19.1251 10.1985L29.0089 8.70544L31.4782 8.33323L41.8915 6.75932L44.0652 6.43177L57.5902 4.38782C74.2864 7.00604 67.3293 26.0759 67.3293 26.0759Z" fill="#FFA73D"/>
<g style="mix-blend-mode:multiply" opacity="0.3">
<path d="M21.293 11.1088C21.293 11.1088 29.1604 12.1808 31.8701 19.7526C34.5797 27.3265 32.8782 33.3031 33.863 33.4945C34.8477 33.6859 55.6361 28.2219 55.6361 28.2219C55.6361 28.2219 43.0023 30.4339 39.2398 29.0153C35.4773 27.5966 34.0246 16.8387 29.724 13.4782C25.4234 10.1177 21.293 11.1088 21.293 11.1088Z" fill="#F48134"/>
</g>
<g style="mix-blend-mode:multiply" opacity="0.3">
<path d="M67.3186 25.7717C66.9102 25.8951 66.4998 26.0163 66.0893 26.1354C62.7479 27.0968 59.2704 27.7689 55.8014 27.1138C52.8344 26.5523 50.0099 25.206 47.7022 23.262C46.5558 22.2985 45.5519 21.1798 44.7096 19.9419C43.795 18.5956 43.057 17.1429 42.2233 15.7476C41.4193 14.4034 40.509 13.1273 39.3307 12.083C38.2715 11.1429 37.0464 10.3921 35.7468 9.83271C33.6369 8.92878 31.2995 8.52892 29.0088 8.70332L31.4781 8.33112C33.2286 8.50127 34.9514 8.9862 36.5317 9.74976C37.8035 10.3644 38.9861 11.1705 40.0006 12.1532C41.1279 13.2421 41.9978 14.5566 42.7848 15.905C43.6121 17.3194 44.365 18.7827 45.3222 20.1163C46.1857 21.3201 47.23 22.39 48.3934 23.3067C50.8223 25.2251 53.8425 26.5225 56.9244 26.8777C60.4359 27.2818 63.8773 26.3864 67.2123 25.3825C67.4611 25.3081 67.5675 25.6973 67.3186 25.7717Z" fill="#F48134"/>
</g>
<g style="mix-blend-mode:multiply" opacity="0.3">
<path d="M30.1897 33.6562C28.0394 33.9561 19.4701 32.1716 16.4138 31.6846C16.4138 31.6846 14.7803 31.625 14.2422 29.9235C13.7041 28.222 11.5538 19.7101 13.5254 16.0348C15.4971 12.3616 21.6779 12.8997 25.9806 16.0348C26.1486 16.1581 26.3124 16.2815 26.4719 16.407C29.6155 18.8912 31.0341 21.9837 31.4701 24.9784C31.5765 25.7101 31.6233 26.4353 31.6233 27.1457C31.6233 30.9082 32.34 33.3563 30.1897 33.6562Z" fill="#F48134"/>
</g>
<path d="M25.0572 19.7313C23.9023 19.8547 23.345 22.475 21.5074 21.5796C19.6697 20.6841 18.2809 23.2811 16.658 23.1854C15.3032 23.1046 13.7186 20.4502 14.3227 18.9762C14.4439 18.6806 14.6524 18.4339 14.965 18.2637C15.0947 18.1935 15.2139 18.1297 15.3202 18.0702C15.3649 18.0468 15.4053 18.0234 15.4457 18.0021C16.7282 17.3045 16.1816 17.5299 16.222 16.4771C16.2539 15.6476 18.6233 14.9287 19.9888 14.5842C20.5418 14.4438 20.931 14.3651 20.931 14.3651C20.931 14.3651 23.1664 14.7224 24.2447 15.7263C25.323 16.7281 26.2121 19.6058 25.0593 19.7292L25.0572 19.7313Z" fill="#B44541"/>
<path d="M21.6989 16.2368C21.1183 16.6664 20.3696 16.4771 19.7188 16.3729C19.3083 16.307 18.8616 16.2708 18.4766 16.458C18.1342 16.626 17.9002 16.945 17.7067 17.2641C17.3728 17.8107 17.0516 18.4934 16.371 18.6614C15.9265 18.772 15.4054 18.5232 15.3203 18.0702C15.365 18.0468 15.4054 18.0234 15.4458 18.0021C15.4926 18.4105 15.9478 18.6253 16.3348 18.5338C16.7496 18.4339 17.0431 18.0893 17.2622 17.7469C17.6004 17.2173 17.8726 16.5622 18.4937 16.3048C19.2125 16.0071 19.974 16.3537 20.7078 16.3729C21.0821 16.3814 21.5054 16.2942 21.7648 15.9985C22.0116 15.7199 22.035 15.2329 21.7138 14.9989C21.6436 14.9479 21.7117 14.833 21.7819 14.8819C22.2519 15.2244 22.1349 15.9156 21.7032 16.2346L21.6989 16.2368Z" fill="#A51800"/>
<path d="M25.0572 19.7313C23.9023 19.8547 23.345 22.475 21.5074 21.5796C19.6697 20.6841 18.2809 23.2811 16.658 23.1854C15.3032 23.1046 13.7186 20.4502 14.3227 18.9762C14.3269 19.0081 14.5396 20.3736 15.837 20.5204C17.1515 20.6693 17.1217 19.1464 18.2256 18.0085C19.3315 16.8706 20.0483 18.2786 21.601 18.4977C23.1536 18.7146 23.094 17.7724 22.5262 16.3687C21.9583 14.9649 19.7186 14.7735 19.7186 14.7735C19.808 14.7054 19.8973 14.6437 19.9866 14.5842C20.5396 14.4438 20.9289 14.3651 20.9289 14.3651C20.9289 14.3651 23.1642 14.7224 24.2426 15.7263C25.3209 16.7281 26.21 19.6058 25.0572 19.7292V19.7313Z" fill="#A51800"/>
<path d="M20.223 13.6101C20.223 13.6101 20.0422 11.33 18.4406 10.3453C16.8391 9.36051 18.1386 11.4662 17.0177 11.5555C15.8969 11.6448 14.5548 9.6285 12.8958 10.1219C11.2389 10.6154 13.6572 13.257 12.2237 13.9291C10.7902 14.6012 7.61043 14.0631 8.23574 15.8114C8.86318 17.5576 11.7749 18.5445 11.2815 20.6055C10.788 22.6664 13.5658 19.2166 13.5658 19.2166C13.5658 19.2166 16.8816 14.4098 20.2187 13.6101H20.223Z" fill="#2C5100"/>
<path d="M18.8109 14.1588C18.5259 14.3715 18.2558 14.6076 17.9984 14.8607C16.5564 16.2751 15.4972 18.268 14.7421 20.1631C13.5808 23.0769 13.1427 25.7611 13.1427 25.7611C13.1427 25.7611 9.49293 24.2404 9.08881 22.8515C8.6847 21.4626 11.2497 21.3286 11.9559 20.0291C12.662 18.7296 9.98424 17.8341 11.5943 16.6856C13.2044 15.5392 14.3742 16.1751 14.1955 15.4137C14.0169 14.6523 13.1193 13.0847 14.4401 12.804C15.7588 12.5254 18.8109 14.1567 18.8109 14.1567V14.1588Z" fill="#6F9700"/>
<path d="M17.9964 14.8607C16.5544 16.2751 15.4952 18.268 14.7401 20.1631C14.5508 19.9866 13.0662 18.5658 12.9407 17.5385C12.8067 16.441 14.889 16.9557 15.8078 15.971C16.7266 14.9862 14.6657 13.7313 15.8078 13.776C16.5586 13.8058 17.4625 14.4332 17.9964 14.8628V14.8607Z" fill="#2C5100"/>
<path d="M17.3023 30.7317C17.3023 30.7317 14.3884 31.0805 13.3505 30.9103C12.3126 30.7402 12.1594 30.5913 12.706 29.3322C13.2527 28.0731 12.4466 27.6243 10.9237 27.4456C9.40084 27.267 9.40084 25.893 10.5664 25.3251C11.7319 24.7572 12.6018 24.9784 12.9762 23.9851C13.3505 22.994 13.6717 21.9199 14.4501 22.307C15.2286 22.6941 13.0442 27.2989 17.3044 30.7296L17.3023 30.7317Z" fill="#2C5100"/>
<path d="M12.3148 26.7288C12.3148 26.7288 9.76886 28.3432 10.2347 29.2003C10.7026 30.0596 11.279 28.743 11.4385 29.6023C11.598 30.4616 12.3701 31.7313 13.3421 31.1656C14.3141 30.5998 13.0081 26.5651 12.3148 26.7267V26.7288Z" fill="#2C5100"/>
<path d="M20.1254 19.1613C22.9648 21.1499 23.6582 25.0783 21.6696 27.9178C20.9124 28.9982 19.8744 29.7682 18.7238 30.1978C16.85 30.8975 14.672 30.6934 12.9152 29.4619C11.2924 28.3261 10.3714 26.5565 10.2502 24.7189C10.1587 23.3407 10.5182 21.922 11.3711 20.7054C13.3597 17.866 17.2881 17.1726 20.1275 19.1613H20.1254Z" fill="#A51800"/>
<path d="M11.9854 21.1372C13.7379 18.6338 17.1899 18.0255 19.6933 19.7781C22.1966 21.5307 22.8049 24.9826 21.0524 27.486C19.2998 29.9894 15.8478 30.5977 13.3445 28.8451C10.8411 27.0925 10.2328 23.6405 11.9854 21.1372Z" fill="#FF7C70"/>
<path d="M19.4342 20.1482C21.7291 21.7561 22.2906 24.9316 20.6827 27.2265C19.0747 29.5215 15.8993 30.0808 13.6043 28.475C11.3094 26.8671 10.7479 23.6916 12.3558 21.3967C13.9638 19.1017 17.1392 18.5424 19.4342 20.1482Z" fill="#EA3800"/>
<path d="M13.3489 22.09C13.8359 21.3924 14.708 21.1266 15.4758 21.3733L16.1968 23.3747L16.6711 21.0755C17.2922 20.6948 18.1068 20.6948 18.7427 21.1393C19.1702 21.4392 19.4361 21.8837 19.5211 22.3602C19.5658 22.609 19.5594 22.8706 19.4999 23.1237L17.5538 24.3233L19.6615 24.3169C20.138 24.9529 20.1741 25.8462 19.6934 26.5331C19.3935 26.9607 18.949 27.2265 18.4726 27.3116C18.2152 27.3563 17.9494 27.3478 17.692 27.2839L16.9412 25.1975L16.469 27.486C15.8373 27.9263 14.9696 27.9518 14.3017 27.4839C13.8742 27.184 13.6084 26.7395 13.5233 26.263C13.4786 26.0099 13.485 25.7462 13.5467 25.491L13.5509 25.5037L15.5842 24.2489L13.3446 24.2574C12.9043 23.6257 12.881 22.76 13.3467 22.0922L13.3489 22.09Z" fill="#A51800"/>
<path d="M15.2864 23.1173C15.2864 23.1173 15.3417 21.9199 14.9546 22.039C14.4952 22.1793 14.9483 22.7345 15.2864 23.1173Z" fill="#FFA73D"/>
<path d="M15.0395 23.4704C15.0395 23.4704 13.991 22.8876 13.925 23.2874C13.8464 23.7617 14.5461 23.6043 15.0395 23.4704Z" fill="#FFA73D"/>
<path d="M18.1631 25.1315C18.1631 25.1315 19.2712 24.67 19.2903 25.0741C19.3137 25.5527 18.6395 25.3187 18.1631 25.1315Z" fill="#FFA73D"/>
<path d="M17.916 25.4846C17.916 25.4846 18.8221 26.2716 18.469 26.4694C18.05 26.7055 17.9586 25.9951 17.916 25.4846Z" fill="#FFA73D"/>
<path d="M15.2106 25.6313C15.2106 25.6313 14.0131 25.576 14.1301 25.9631C14.2705 26.4225 14.8256 25.9695 15.2106 25.6313Z" fill="#FFA73D"/>
<path d="M15.5633 25.8781C15.5633 25.8781 14.9805 26.9266 15.3804 26.9926C15.8547 27.0712 15.6973 26.3715 15.5633 25.8781Z" fill="#FFA73D"/>
<path d="M17.2242 22.7558C17.2242 22.7558 16.7627 21.6477 17.1668 21.6285C17.6454 21.6051 17.4114 22.2794 17.2242 22.7558Z" fill="#FFA73D"/>
<path d="M17.5771 23.0025C17.5771 23.0025 18.3641 22.0965 18.5619 22.4495C18.798 22.8685 18.0876 22.96 17.5771 23.0025Z" fill="#FFA73D"/>
<g style="mix-blend-mode:multiply" opacity="0.3">
<path d="M20.1254 19.1613C22.9648 21.1499 23.6582 25.0783 21.6696 27.9178C20.9124 28.9982 19.8744 29.7682 18.7238 30.1978C20.5699 29.1109 21.0166 22.6303 16.3842 21.7816C11.3838 20.8649 10.2651 24.6615 10.2502 24.7189C10.1587 23.3407 10.5182 21.9241 11.3711 20.7054C13.3597 17.866 17.2881 17.1726 20.1275 19.1613H20.1254Z" fill="#A51800"/>
</g>
<path d="M28.2984 22.9834C27.1435 23.1067 26.5862 25.7271 24.7486 24.8317C22.9109 23.9362 21.5221 26.5332 19.8992 26.4375C18.5444 26.3566 16.9599 23.7023 17.5639 22.2283C17.6851 21.9327 17.8936 21.686 18.2062 21.5158C18.336 21.4456 18.4551 21.3818 18.5614 21.3223C18.6061 21.2989 18.6465 21.2755 18.6869 21.2542C19.9694 20.5566 19.4228 20.782 19.4632 19.7292C19.4951 18.8997 21.8645 18.1808 23.23 17.8363C23.783 17.6959 24.1722 17.6172 24.1722 17.6172C24.1722 17.6172 26.4076 17.9766 27.4859 18.9784C28.5642 19.9802 29.4533 22.8579 28.3005 22.9812L28.2984 22.9834Z" fill="#EA5643"/>
<path d="M24.9421 19.4888C24.3614 19.9185 23.6128 19.7292 22.9619 19.625C22.5514 19.559 22.1048 19.5229 21.7198 19.71C21.3774 19.8781 21.1434 20.1971 20.9499 20.5161C20.6159 21.0627 20.2948 21.7455 19.6142 21.9135C19.1696 22.0241 18.6486 21.7753 18.5635 21.3222C18.6081 21.2988 18.6486 21.2754 18.689 21.2542C18.7358 21.6625 19.1909 21.8774 19.578 21.7859C19.9928 21.6859 20.2863 21.3414 20.5053 20.9989C20.8435 20.4693 21.1158 19.8143 21.7368 19.5569C22.4557 19.2591 23.2171 19.6058 23.9509 19.625C24.3274 19.6335 24.7485 19.5463 25.008 19.2506C25.2547 18.972 25.2781 18.4849 24.957 18.251C24.8868 18.1999 24.9548 18.0851 25.025 18.134C25.4951 18.4764 25.3781 19.1677 24.9463 19.4867L24.9421 19.4888Z" fill="#A51800"/>
<path d="M28.2984 22.9834C27.1435 23.1067 26.5862 25.7271 24.7486 24.8317C22.9109 23.9362 21.5221 26.5332 19.8992 26.4375C18.5444 26.3566 16.9599 23.7023 17.5639 22.2283C17.5681 22.2602 17.7808 23.6257 19.0782 23.7725C20.3927 23.9213 20.3629 22.3985 21.4668 21.2606C22.5728 20.1227 23.2895 21.5307 24.8422 21.7498C26.3948 21.9667 26.3353 21.0245 25.7674 19.6207C25.1995 18.217 22.9599 18.0256 22.9599 18.0256C23.0492 17.9575 23.1385 17.8958 23.2278 17.8363C23.7808 17.6959 24.1701 17.6172 24.1701 17.6172C24.1701 17.6172 26.4054 17.9766 27.4838 18.9784C28.5621 19.9802 29.4512 22.8579 28.2984 22.9812V22.9834Z" fill="#A51800"/>
<path d="M22.624 22.6856C22.7878 22.6175 22.9919 22.5558 23.2493 22.4942C24.9444 22.0922 27.6414 23.9107 28.3113 27.386C28.3113 27.386 29.1749 29.5278 27.1096 29.3726C27.0416 29.3683 26.9756 29.3619 26.9097 29.3577C26.4056 29.3173 25.9739 29.2705 25.608 29.2492C24.5701 29.1918 24.0554 29.3428 23.9384 30.4211C23.8619 31.1358 23.6385 31.8185 23.3046 32.3162C22.9345 32.8692 22.4283 33.1967 21.8349 33.0947C21.8136 33.0904 21.7902 33.0861 21.769 33.084C21.2224 32.9862 20.697 32.8352 20.227 32.7437C19.608 32.6246 19.087 32.6118 18.753 32.967C18.6446 33.0819 18.5552 33.235 18.4893 33.4328C18.0937 34.6281 16.9111 35.3428 16.0476 34.341C15.9689 34.2496 15.8923 34.1453 15.82 34.0241C15.6392 33.7242 15.3755 33.503 15.0714 33.3222C13.9079 32.6374 12.1362 32.5651 11.9682 31.0869C11.9533 30.9507 11.9533 30.8252 11.9682 30.7104C12.0682 29.966 12.7658 29.6214 13.5549 29.3449C14.2759 29.0918 15.0735 28.8961 15.5563 28.5048C15.6775 28.407 15.7796 28.2964 15.8562 28.1687C16.0306 27.8774 16.1603 27.5796 16.2816 27.2903C16.6282 26.4672 16.9047 25.7228 17.9193 25.4697C18.0979 25.425 18.3 25.3953 18.5297 25.3846C19.7995 25.3187 20.3673 25.71 20.8587 25.4463C21.082 25.3272 21.2904 25.0698 21.5414 24.5743C21.6882 24.2829 21.7626 24.0319 21.8179 23.815C21.9498 23.2939 21.9753 22.9578 22.6261 22.6898L22.624 22.6856Z" fill="#6F9700"/>
<path d="M21.031 28.6728L22.7538 27.8646C22.0477 28.5452 20.9864 30.8997 20.2249 32.7437C19.606 32.6246 19.0849 32.6118 18.751 32.967C19.6932 30.9273 21.031 28.6749 21.031 28.6749V28.6728Z" fill="#2C5100"/>
<path d="M19.4252 29.3513C18.2044 30.2021 16.4348 33.5775 16.0456 34.3432C15.9669 34.2517 15.8903 34.1475 15.818 34.0263C15.6372 33.7264 15.3735 33.5052 15.0693 33.3244C16.1796 31.7483 17.711 30.3084 17.711 30.3084L19.4274 29.3513H19.4252Z" fill="#2C5100"/>
<path d="M13.5546 29.3449C15.2944 29.4959 18.2806 29.6682 19.3462 29.2024L17.634 30.1659C17.634 30.1659 14.1608 30.7635 11.9658 30.7125C12.0658 29.9681 12.7634 29.6235 13.5525 29.347L13.5546 29.3449Z" fill="#2C5100"/>
<path d="M24.6571 26.8288C23.9084 28.0475 23.4277 31.357 23.3022 32.3162C22.9321 32.8692 22.4259 33.1968 21.8325 33.0947C21.8113 33.0904 21.7879 33.0862 21.7666 33.084C21.9814 30.9231 23.3214 27.5732 23.3214 27.5732L24.6571 26.8288Z" fill="#2C5100"/>
<path d="M27.4452 25.391C27.0794 26.2885 26.9518 28.0369 26.9071 29.3577C26.4031 29.3173 25.9713 29.2705 25.6055 29.2492C25.7863 27.654 26.1138 26.2184 26.1138 26.2184L27.4452 25.391Z" fill="#2C5100"/>
<path d="M16.2798 27.2903C17.3964 27.4541 20.959 27.9305 22.3245 27.5817L20.7314 28.6218C20.7314 28.6218 17.6665 28.9153 15.5566 28.5048C15.6779 28.407 15.78 28.2964 15.8565 28.1688C16.0309 27.8774 16.1607 27.5796 16.2819 27.2903H16.2798Z" fill="#2C5100"/>
<path d="M17.9174 25.4697C18.0961 25.425 18.2981 25.3953 18.5279 25.3846C19.7976 25.3187 20.3655 25.71 20.8568 25.4463C22.1202 25.9504 23.7473 26.5183 24.681 26.5204L23.3453 27.2648C23.3453 27.2648 19.8316 26.6714 17.9068 25.6866C17.9068 25.6866 17.894 25.5973 17.9174 25.4718V25.4697Z" fill="#2C5100"/>
<path d="M22.6237 22.6855C23.5489 23.3428 26.0203 25.0358 27.339 25.3187L25.8799 25.8972C25.8799 25.8972 23.5531 24.9294 21.8154 23.8107C21.9473 23.2896 21.9728 22.9535 22.6237 22.6855Z" fill="#2C5100"/>
<g style="mix-blend-mode:multiply" opacity="0.3">
<path d="M27.1182 25.3761C27.1182 25.3761 27.7052 26.7735 27.0395 27.3584C26.3738 27.9433 25.0657 27.2924 24.2256 27.8199C23.3855 28.3474 23.4961 30.1233 22.3412 30.6997C21.1884 31.2761 20.193 29.7767 19.2784 30.1276C18.3617 30.4785 17.713 32.1482 17.4174 31.676C17.1217 31.2059 18.0427 30.3637 17.6279 30.0085C17.2111 29.6512 16.2114 29.5895 16.2178 29.0982C16.2242 28.6069 17.8406 28.6813 18.1256 27.6178C18.4106 26.5544 20.9863 27.839 21.8945 26.7182C22.8027 25.5952 22.624 24.8422 23.5726 24.3956C24.5212 23.9489 27.1203 25.3761 27.1203 25.3761H27.1182Z" fill="#2C5100"/>
</g>
<path d="M28.4152 24.6551C28.4152 24.6551 26.8349 26.0695 24.2422 27.2223C21.6495 28.3751 16.7959 30.7317 16.7959 30.7317C16.7959 30.7317 17.0596 30.1872 19.68 28.7877C21.5602 27.7838 26.116 26.095 28.2238 24.1723C28.2238 24.1723 28.4322 24.3786 28.4173 24.6551H28.4152Z" fill="#809E2D"/>
<path d="M21.8797 17.5385C21.8797 17.5385 11.7557 16.5963 10.4689 16.2304C9.38203 15.9199 9.33737 13.978 9.35013 13.3846C9.35013 13.3825 9.35013 13.3804 9.35013 13.3782C9.35013 13.3719 9.35013 13.3655 9.35013 13.3612C9.35013 13.3612 9.35013 13.3591 9.35013 13.357C9.35013 13.3527 9.35013 13.3506 9.35013 13.3463V13.3421C9.35226 13.2613 9.35438 13.2145 9.35438 13.2145C9.35438 13.2145 12.4639 13.7058 16.0563 14.0057C16.8602 14.0737 17.6557 14.1439 18.4086 14.2162C20.8375 14.446 22.7986 14.6693 23.0538 14.6969C23.0729 14.6991 23.0814 14.7012 23.0814 14.7012C23.0814 14.7161 23.0814 14.7331 23.0814 14.748C23.0708 16.8345 21.8776 17.5406 21.8776 17.5406L21.8797 17.5385Z" fill="#EA3800"/>
<path d="M21.8797 17.5385C21.8797 17.5385 11.7557 16.5963 10.4689 16.2304C9.38203 15.9199 9.33737 13.9781 9.35013 13.3846C9.35651 13.659 9.58834 15.1415 13.7358 15.5115C18.3129 15.9199 18.7021 15.3648 18.6936 14.7331C18.6915 14.5417 18.5724 14.3651 18.4086 14.212C20.8375 14.4417 22.7986 14.665 23.0538 14.6927C23.0623 14.7097 23.0729 14.7267 23.0814 14.7416C23.0708 16.8281 21.8776 17.5342 21.8776 17.5342L21.8797 17.5385Z" fill="#A51800"/>
<path d="M29.5582 30.083C29.5582 30.083 20.5721 34.8408 19.2959 35.2407C18.2155 35.5768 17.1159 33.9752 16.8011 33.4732C16.8011 33.4732 16.7989 33.469 16.7968 33.4669C16.7926 33.4626 16.7904 33.4562 16.7883 33.452C16.7883 33.452 16.7883 33.4498 16.7862 33.4477C16.7862 33.4435 16.7819 33.4413 16.7819 33.4392C16.7819 33.4392 16.7819 33.4371 16.7798 33.435C16.7373 33.3669 16.7139 33.3265 16.7139 33.3265C16.7139 33.3265 19.5831 32.0355 22.7543 30.3169C23.4647 29.9319 24.1687 29.5555 24.8365 29.2045C26.9953 28.0666 28.7585 27.1776 28.9861 27.0627C29.0031 27.0542 29.0116 27.05 29.0116 27.05C29.0201 27.0627 29.0287 27.0755 29.0372 27.0883C30.1708 28.8408 29.5582 30.0851 29.5582 30.0851V30.083Z" fill="#FFA73D"/>
<g style="mix-blend-mode:multiply" opacity="0.3">
<path d="M29.558 30.083C29.558 30.083 20.5718 34.8408 19.2956 35.2407C18.2152 35.5767 17.1156 33.9752 16.8008 33.4732C16.9582 33.6987 17.9621 34.8132 21.6352 32.8501C25.6891 30.6849 25.7104 30.0064 25.3573 29.4832C25.251 29.3236 25.0553 29.2407 24.8341 29.2045C26.9929 28.0666 28.7561 27.1776 28.9837 27.0627C29.0007 27.0713 29.0177 27.0798 29.0347 27.0883C30.1684 28.8408 29.5558 30.0851 29.5558 30.0851L29.558 30.083Z" fill="#F48134"/>
</g>
<path d="M27.3776 17.0344C26.7651 17.0748 26.0781 17.1238 25.3486 17.1791C24.5956 17.2365 23.798 17.2982 22.9941 17.3683C19.4017 17.6789 16.2539 17.7172 16.2539 17.7172C16.2539 17.7172 16.2582 17.764 16.2709 17.8426V17.8469C16.2709 17.849 16.2709 17.8533 16.2709 17.8575C16.2709 17.8575 16.2709 17.8597 16.2709 17.8618C16.2709 17.8682 16.2709 17.8724 16.273 17.8788C16.273 17.8809 16.273 17.8831 16.273 17.8852C16.3603 18.4701 16.7303 20.3779 17.8555 20.5013C18.8147 20.6055 24.3617 20.2312 27.3734 20.0142V17.0344H27.3776Z" fill="#FFA73D"/>
<g style="mix-blend-mode:multiply" opacity="0.3">
<path d="M27.3777 17.0344C26.7651 17.0748 26.0781 17.1238 25.3486 17.1791C25.5358 17.3024 25.6825 17.4556 25.7166 17.6448C25.8314 18.2638 25.54 18.8785 20.9587 19.2464C16.8069 19.5803 16.3305 18.1574 16.2773 17.8873C16.3645 18.4722 16.7346 20.38 17.8598 20.5034C18.819 20.6076 24.366 20.2333 27.3777 20.0163V17.0366V17.0344Z" fill="#F48134"/>
</g>
<path d="M31.7385 31.0613C31.7342 31.8759 31.6513 32.5204 31.3705 32.967C31.2046 33.2329 30.9685 33.4286 30.6389 33.5477C30.5049 33.5966 30.356 33.6328 30.1901 33.6562C29.569 33.7434 28.4099 33.6562 27.004 33.4754C26.8508 33.386 26.6998 33.2903 26.551 33.1861C24.9281 32.0503 24.0072 30.2808 23.8859 28.4431C23.7945 27.0628 24.1539 25.6462 25.0068 24.4296C26.3149 22.5601 28.4652 21.62 30.5921 21.7646C30.7005 22.0241 30.7984 22.2857 30.8877 22.5473C30.943 22.709 30.9941 22.8685 31.043 23.0301C31.1919 23.5278 31.3088 24.0255 31.396 24.5232C31.4918 25.0528 31.5534 25.5803 31.5896 26.1035C31.596 26.1822 31.6002 26.2609 31.6045 26.3396C31.6109 26.4523 31.6151 26.5651 31.6194 26.6778C31.6236 26.833 31.6257 26.9883 31.6257 27.1414C31.6257 27.3541 31.6279 27.5647 31.6321 27.7689C31.6321 27.8603 31.6364 27.9518 31.6385 28.0411C31.6513 28.492 31.6704 28.9217 31.6874 29.3258C31.6981 29.5725 31.7087 29.8107 31.7193 30.0404C31.7342 30.4041 31.7427 30.7444 31.7406 31.0571L31.7385 31.0613Z" fill="#A51800"/>
<path d="M31.7382 31.0614C31.7339 31.876 31.651 32.5204 31.3702 32.9671C31.2043 33.2329 30.9682 33.4286 30.6385 33.5477C29.3879 33.6583 28.0905 33.3457 26.9824 32.5672C25.1384 31.2762 24.3216 29.0621 24.7215 26.9862C24.864 26.2439 25.1618 25.5186 25.6233 24.8614C26.8484 23.111 28.9051 22.2857 30.8874 22.5495C30.9427 22.7111 30.9937 22.8706 31.0427 23.0323C31.1915 23.53 31.3085 24.0277 31.3957 24.5254C31.4914 25.055 31.5531 25.5824 31.5893 26.1057C31.5957 26.1844 31.5999 26.2631 31.6042 26.3418C31.6105 26.4545 31.6148 26.5672 31.619 26.6799C31.6233 26.8352 31.6254 26.9905 31.6254 27.1436C31.6254 27.3563 31.6276 27.5669 31.6318 27.771C31.6318 27.8625 31.6361 27.954 31.6382 28.0433C31.651 28.4942 31.6701 28.9238 31.6871 29.3279C31.6977 29.5747 31.7084 29.8129 31.719 30.0426C31.7339 30.4063 31.7424 30.7466 31.7403 31.0592L31.7382 31.0614Z" fill="#FF7C70"/>
<path d="M31.7383 31.0614C31.734 31.876 31.6511 32.5204 31.3703 32.9671C29.9963 33.3052 28.4884 33.0713 27.2399 32.1971C25.3427 30.8678 24.6302 28.4687 25.349 26.3779C25.5001 25.9398 25.7127 25.5165 25.9914 25.1188C27.159 23.4513 29.1562 22.6984 31.0406 23.0302C31.1895 23.5279 31.3065 24.0256 31.3937 24.5233C31.4894 25.0529 31.5511 25.5803 31.5873 26.1035C31.5936 26.1822 31.5979 26.2609 31.6021 26.3396C31.6085 26.4524 31.6128 26.5651 31.617 26.6778C31.6213 26.8331 31.6234 26.9883 31.6234 27.1415C31.6234 27.3542 31.6255 27.5647 31.6298 27.7689C31.6298 27.8604 31.6341 27.9518 31.6362 28.0412C31.6489 28.4921 31.6681 28.9217 31.6851 29.3258C31.6957 29.5725 31.7064 29.8107 31.717 30.0405C31.7319 30.4042 31.7404 30.7445 31.7383 31.0571V31.0614Z" fill="#EA3800"/>
<path d="M31.7382 31.0613C31.6 31.0592 31.4617 31.0401 31.3256 31.006L30.5748 28.9195L30.1027 31.2081C29.471 31.6484 28.6032 31.6739 27.9353 31.206C27.5078 30.9061 27.242 30.4616 27.159 29.9851C27.1144 29.732 27.1207 29.4683 27.1824 29.2131L27.1867 29.2258L29.22 27.9709L26.9804 27.9795C26.5401 27.3478 26.5167 26.4821 26.9825 25.8143C27.0676 25.693 27.1633 25.5846 27.2696 25.491C27.7694 25.0401 28.4756 24.8933 29.1094 25.0975L29.2157 25.3931L29.8304 27.0989L30.1537 25.5314L30.3047 24.7997C30.6323 24.5977 31.0151 24.5041 31.3958 24.5254C31.4915 25.055 31.5532 25.5824 31.5894 26.1056C31.5957 26.1843 31.6 26.263 31.6042 26.3417C31.6106 26.4545 31.6149 26.5672 31.6191 26.6799C31.6234 26.8352 31.6255 26.9904 31.6255 27.1436C31.6255 27.3563 31.6276 27.5668 31.6319 27.771L31.1874 28.0454H31.6383C31.651 28.4942 31.6702 28.9238 31.6872 29.3279C31.6978 29.5746 31.7085 29.8128 31.7191 30.0426C31.734 30.4063 31.7425 30.7466 31.7404 31.0592L31.7382 31.0613Z" fill="#A51800"/>
<path d="M28.9241 26.8416C28.9241 26.8416 28.9794 25.6441 28.5923 25.7632C28.1329 25.9036 28.586 26.4587 28.9241 26.8416Z" fill="#FFA73D"/>
<path d="M28.6753 27.1946C28.6753 27.1946 27.6267 26.6118 27.5608 27.0117C27.4821 27.486 28.1818 27.3286 28.6753 27.1946Z" fill="#FFA73D"/>
<path d="M31.7175 30.0447C31.6154 29.8341 31.5771 29.4896 31.5537 29.2088C31.5537 29.2088 31.609 29.2577 31.6877 29.3322C31.6983 29.5789 31.709 29.8171 31.7196 30.0468L31.7175 30.0447Z" fill="#FFA73D"/>
<path d="M28.8455 29.3556C28.8455 29.3556 27.648 29.3003 27.7671 29.6874C27.9075 30.1468 28.4626 29.6938 28.8455 29.3556Z" fill="#FFA73D"/>
<path d="M29.1981 29.6044C29.1981 29.6044 28.6153 30.653 29.0152 30.7189C29.4895 30.7976 29.3321 30.0979 29.1981 29.6044Z" fill="#FFA73D"/>
<path d="M30.86 26.48C30.86 26.48 30.3984 25.3718 30.8026 25.3527C31.2811 25.3293 31.0471 26.0035 30.86 26.48Z" fill="#FFA73D"/>
<path d="M31.617 26.682C31.4809 26.7033 31.3405 26.7182 31.2129 26.7288C31.2129 26.7288 31.3937 26.5204 31.6021 26.3439C31.6085 26.4566 31.6127 26.5693 31.617 26.682Z" fill="#FFA73D"/>
<g style="mix-blend-mode:multiply" opacity="0.3">
<path d="M31.396 24.5254C31.4918 25.055 31.5534 25.5824 31.5896 26.1056C31.4279 26.0014 31.2535 25.9078 31.0685 25.827C30.9324 25.7653 30.7899 25.71 30.6389 25.6611C30.4836 25.6101 30.3241 25.5675 30.1539 25.5314C30.1093 25.5229 30.0646 25.5144 30.0199 25.5059C29.7413 25.4548 29.4733 25.4187 29.2181 25.3953C28.4758 25.3272 27.8292 25.3719 27.272 25.4931C26.4616 25.6675 25.8342 25.9993 25.3514 26.3821C25.1047 26.5757 24.8962 26.7841 24.7218 26.9883C24.1008 27.7157 23.8923 28.4197 23.8859 28.4431C23.7945 27.0649 24.1539 25.6462 25.0068 24.4296C26.3149 22.5601 28.4652 21.62 30.5921 21.7646C30.7005 22.0241 30.7984 22.2857 30.8877 22.5473C30.943 22.709 30.9941 22.8685 31.043 23.0301C31.1919 23.5278 31.3088 24.0255 31.396 24.5232V24.5254Z" fill="#A51800"/>
</g>
<path d="M25.6064 16.9686C24.9896 16.9729 24.6854 17.6769 24.1282 18.2724C23.8368 18.5829 23.4752 18.8616 22.9626 18.9956C21.4695 19.3848 20.3635 19.2635 20.5146 18.4574C20.6634 17.6513 18.5004 18.3447 18.2345 17.6194C17.9687 16.8942 20.4848 16.3369 20.5146 15.4415C20.5443 14.5461 18.9619 14.6652 18.813 14.1611C18.7428 13.925 19.047 13.791 19.3894 13.7123C19.7808 13.623 20.2253 13.6102 20.2253 13.6102C24.0559 14.3483 26.472 16.4092 26.472 16.4092C26.472 16.4092 26.5486 16.9644 25.6085 16.9686H25.6064Z" fill="#6F9700"/>
<path opacity="0.5" d="M25.6065 16.9685C24.9897 16.9727 24.6855 17.6767 24.1283 18.2723C23.6604 18.0426 23.6668 17.53 23.2626 17.2024C22.6373 16.6941 21.7972 17.9788 21.1102 17.53C20.4232 17.0812 22.2162 16.2156 22.0546 15.4392C21.8929 14.6629 20.5445 14.4843 19.6767 14.095C19.3853 13.9653 19.33 13.8313 19.3874 13.7101C19.7788 13.6207 20.2233 13.608 20.2233 13.608C24.0539 14.346 26.47 16.407 26.47 16.407C26.47 16.407 26.5466 16.9621 25.6065 16.9664V16.9685Z" fill="#2C5100"/>
<path d="M31.4675 24.9805C31.2187 25.0932 30.9273 25.1357 30.6359 25.1336C29.7809 25.123 29.7851 24.0574 28.9259 22.9578C28.0666 21.8582 26.9649 23.9255 25.9142 22.6877C24.8635 21.4519 26.7862 20.967 26.9202 19.7547C27.0542 18.5423 25.6653 18.772 25.023 18.1361C24.3807 17.5023 26.4714 16.4091 26.4714 16.4091C29.615 18.8933 31.0336 21.9858 31.4696 24.9805H31.4675Z" fill="#6F9700"/>
<path d="M28.3964 34.6303C27.2351 34.3049 25.2039 34.6494 23.9213 34.6749C23.2726 34.6877 22.8132 34.6196 22.7537 34.3432C22.575 33.5179 25.6207 34.0028 24.8997 33.1712C24.1787 32.3396 25.9355 32.0312 27.7306 31.8483C29.5257 31.6633 27.3691 30.5785 28.3985 29.6044C29.4279 28.6303 31.7186 28.7239 31.7186 28.7239C31.7569 28.9727 31.7888 29.2131 31.8122 29.4449C32.2631 33.8284 30.0596 35.0961 28.3985 34.6303H28.3964Z" fill="#6F9700"/>
<path d="M28.3971 34.6303C27.2358 34.3049 25.2046 34.6494 23.9221 34.6749C23.8157 34.5729 23.8604 34.4559 24.2773 34.3431C25.3833 34.0475 26.9168 34.3772 27.3592 33.8093C27.8037 33.2414 26.2553 33.0223 27.1146 32.6884C28.3333 32.2162 31.2854 33.6477 31.7385 29.8447C31.7555 29.6937 31.781 29.5597 31.8108 29.4449C32.2617 33.8284 30.0582 35.0961 28.3971 34.6303Z" fill="#2C5100"/>
<g style="mix-blend-mode:screen" opacity="0.4">
<path d="M21.5986 10.509C21.5986 10.509 54.4061 5.6044 57.0265 5.40235C59.6468 5.20029 65.2917 7.55265 66.5678 11.7852C67.8439 16.0177 66.5678 22.3665 66.5678 22.3665C66.5678 22.3665 65.6086 11.5044 59.2023 9.50302C49.9886 6.62532 21.5986 10.509 21.5986 10.509Z" fill="#FFA73D"/>
</g>
<g style="mix-blend-mode:multiply" opacity="0.3">
<path d="M50.4402 11.6873C50.4402 11.6873 50.2084 11.2151 49.9532 11.381C49.698 11.5469 49.9404 11.9213 50.1255 12.0361C50.3105 12.151 50.5636 11.9489 50.4402 11.6873Z" fill="#F48134"/>
</g>
<g style="mix-blend-mode:multiply" opacity="0.3">
<path d="M51.7075 7.66535C51.7075 7.66535 51.4714 7.19531 51.2183 7.36121C50.9652 7.5271 51.2077 7.90144 51.3948 8.01417C51.582 8.12689 51.833 7.92271 51.7054 7.66323L51.7075 7.66535Z" fill="#F48134"/>
</g>
<g style="mix-blend-mode:multiply" opacity="0.3">
<path d="M59.0452 16.3857C59.0452 16.3857 58.8112 15.9156 58.5581 16.0815C58.305 16.2474 58.5475 16.6218 58.7347 16.7366C58.9218 16.8515 59.1728 16.6473 59.0473 16.3857H59.0452Z" fill="#F48134"/>
</g>
<g style="mix-blend-mode:multiply" opacity="0.3">
<path d="M51.3479 15.5732C51.3479 15.5732 51.114 15.1031 50.8609 15.269C50.6078 15.4349 50.8502 15.8093 51.0374 15.9241C51.2246 16.039 51.4756 15.8348 51.3501 15.5732H51.3479Z" fill="#F48134"/>
</g>
<g style="mix-blend-mode:multiply" opacity="0.3">
<path d="M54.5833 18.755C54.5833 18.755 54.3493 18.285 54.0962 18.4509C53.8431 18.6168 54.0856 18.9911 54.2728 19.106C54.4599 19.2208 54.7109 19.0166 54.5854 18.755H54.5833Z" fill="#F48134"/>
</g>
<g style="mix-blend-mode:multiply" opacity="0.3">
<path d="M51.3479 20.497C51.3479 20.497 51.114 20.0269 50.8609 20.1928C50.6078 20.3587 50.8502 20.733 51.0374 20.8479C51.2246 20.9627 51.4756 20.7586 51.3501 20.497H51.3479Z" fill="#F48134"/>
</g>
<g style="mix-blend-mode:multiply" opacity="0.3">
<path d="M44.6507 26.3204C44.6507 26.3204 44.4167 25.8504 44.1636 26.0163C43.9105 26.1822 44.153 26.5565 44.3401 26.6714C44.5273 26.7862 44.7783 26.5821 44.6528 26.3204H44.6507Z" fill="#F48134"/>
</g>
<g style="mix-blend-mode:multiply" opacity="0.3">
<path d="M59.046 9.33712C59.046 9.33712 58.8142 8.86495 58.5611 9.02872C58.3059 9.19249 58.5462 9.56895 58.7313 9.68381C58.9163 9.79866 59.1694 9.5966 59.046 9.33712Z" fill="#F48134"/>
</g>
<g style="mix-blend-mode:multiply" opacity="0.3">
<path d="M37.8339 20.7629C37.8339 20.7629 37.5766 20.3035 37.332 20.4821C37.0874 20.6608 37.3469 21.0223 37.5383 21.1266C37.7297 21.2308 37.9722 21.016 37.8339 20.7629Z" fill="#F48134"/>
</g>
<g style="mix-blend-mode:multiply" opacity="0.3">
<path d="M48.1943 25.9631C48.1943 25.9631 47.9369 25.5037 47.6923 25.6824C47.4478 25.861 47.7072 26.2226 47.8987 26.3268C48.0901 26.431 48.3325 26.2162 48.1943 25.9631Z" fill="#F48134"/>
</g>
<g style="mix-blend-mode:multiply" opacity="0.3">
<path d="M37.8341 16.0453C37.8341 16.0453 37.647 15.554 37.3768 15.6965C37.1089 15.839 37.3152 16.2325 37.4896 16.3644C37.664 16.4962 37.9341 16.3176 37.8341 16.0453Z" fill="#F48134"/>
</g>
<g style="mix-blend-mode:multiply" opacity="0.3">
<path d="M43.6684 11.3768C43.6684 11.3768 43.4982 11.0259 43.3068 11.1471C43.1175 11.2683 43.2962 11.5491 43.4323 11.6342C43.5705 11.7192 43.7577 11.5704 43.6662 11.3768H43.6684Z" fill="#F48134"/>
</g>
<g style="mix-blend-mode:multiply" opacity="0.3">
<path d="M37.9955 12.9656C37.9955 12.9656 37.8254 12.6147 37.634 12.7359C37.4447 12.8572 37.6233 13.1379 37.7594 13.223C37.8977 13.3081 38.0849 13.1592 37.9934 12.9656H37.9955Z" fill="#F48134"/>
</g>
<g style="mix-blend-mode:multiply" opacity="0.3">
<path d="M42.0244 22.2368C42.0244 22.2368 41.8777 21.8752 41.6799 21.9837C41.4821 22.0922 41.6416 22.3835 41.7735 22.4792C41.9053 22.575 42.1031 22.4388 42.0244 22.2368Z" fill="#F48134"/>
</g>
<g style="mix-blend-mode:multiply" opacity="0.3">
<path d="M40.4307 25.9993C40.4307 25.9993 40.2839 25.6377 40.0861 25.7462C39.8883 25.8547 40.0479 26.146 40.1797 26.2418C40.3116 26.3375 40.5094 26.2013 40.4307 25.9993Z" fill="#F48134"/>
</g>
<g style="mix-blend-mode:multiply" opacity="0.3">
<path d="M41.7969 18.4168C41.7969 18.4168 41.6501 18.0553 41.4523 18.1637C41.2545 18.2722 41.4141 18.5636 41.5459 18.6593C41.6778 18.755 41.8756 18.6189 41.7969 18.4168Z" fill="#F48134"/>
</g>
<g style="mix-blend-mode:multiply" opacity="0.3">
<path d="M54.3789 12.8954C54.3789 12.8954 54.0662 12.2403 53.7132 12.4658C53.3601 12.6913 53.6877 13.2102 53.9429 13.3719C54.1981 13.5335 54.549 13.257 54.381 12.8954H54.3789Z" fill="#F48134"/>
</g>
<g style="mix-blend-mode:multiply" opacity="0.3">
<path d="M46.7139 14.9841C46.7139 14.9841 46.4012 14.329 46.0481 14.5544C45.6951 14.7799 46.0226 15.2988 46.2778 15.4605C46.5331 15.6221 46.884 15.3456 46.716 14.9841H46.7139Z" fill="#F48134"/>
</g>
<g style="mix-blend-mode:multiply" opacity="0.3">
<path d="M34.0801 12.9549C34.0801 12.9549 33.7674 12.2999 33.4143 12.5253C33.0613 12.7508 33.3888 13.2697 33.6441 13.4314C33.8993 13.593 34.2502 13.3165 34.0822 12.9549H34.0801Z" fill="#F48134"/>
</g>
<g style="mix-blend-mode:multiply" opacity="0.3">
<path d="M61.7961 18.2276C61.7961 18.2276 61.6323 17.5214 61.2389 17.664C60.8454 17.8065 61.0517 18.385 61.2665 18.5977C61.4813 18.8104 61.8833 18.6168 61.7961 18.2276Z" fill="#F48134"/>
</g>
<g style="mix-blend-mode:multiply" opacity="0.3">
<path d="M61.7961 22.4303C61.7961 22.4303 61.6323 21.7242 61.2389 21.8667C60.8454 22.0092 61.0517 22.5877 61.2665 22.8004C61.4813 23.0131 61.8833 22.8196 61.7961 22.4303Z" fill="#F48134"/>
</g>
<g style="mix-blend-mode:multiply" opacity="0.3">
<path d="M60.7383 13.4463C60.7383 13.4463 60.415 12.7976 60.0662 13.0273C59.7174 13.257 60.0513 13.7717 60.3087 13.9291C60.566 14.0865 60.9127 13.8057 60.7383 13.4463Z" fill="#F48134"/>
</g>
<g style="mix-blend-mode:multiply" opacity="0.3">
<path d="M56.9618 21.9624C56.9618 21.9624 56.5811 21.3456 56.2535 21.6072C55.926 21.8688 56.3067 22.3495 56.5768 22.4835C56.8469 22.6175 57.166 22.3048 56.9618 21.9624Z" fill="#F48134"/>
</g>
<g style="mix-blend-mode:multiply" opacity="0.3">
<path d="M64.5818 19.7334C64.5818 19.7334 64.2756 19.0762 63.9204 19.2953C63.5652 19.5165 63.8863 20.0397 64.1373 20.2034C64.3883 20.3672 64.7435 20.0971 64.5797 19.7334H64.5818Z" fill="#F48134"/>
</g>
<g style="mix-blend-mode:multiply" opacity="0.3">
<path d="M66.585 26.2651L50.7502 30.3233C50.7502 30.3233 55.3783 27.6859 55.5251 23.6044C55.6718 19.5229 46.122 10.8281 43.4591 8.54802C42.5488 7.76958 42.0958 7.1868 41.8916 6.75717L44.0653 6.42963C49.6357 9.56681 63.4669 21.4966 66.585 26.2651Z" fill="#F48134"/>
</g>
<path d="M70.8319 30.5254C66.4037 32.2801 63.5366 31.3294 61.7479 29.8554C59.7869 28.239 59.1254 25.9951 59.1254 25.9951C59.0978 25.91 59.0999 25.8207 59.1254 25.7271C59.7018 23.6512 72.5951 19.6101 74.8411 20.7119C75.0049 20.7906 75.1112 20.899 75.1538 21.0351C75.1538 21.0351 78.3037 27.5669 70.8319 30.5275V30.5254Z" fill="#A51800"/>
<g style="mix-blend-mode:multiply" opacity="0.3">
<path d="M70.8321 30.5254C66.4038 32.2801 63.5368 31.3294 61.748 29.8554C65.2468 32.1461 70.4981 30.0362 72.4209 27.9518C74.6158 25.5718 73.4588 23.3173 73.4588 23.3173C73.8161 21.9922 74.4116 21.167 74.8413 20.7097C75.005 20.7884 75.1114 20.8969 75.1539 21.033C75.1539 21.033 78.3039 27.5647 70.8321 30.5254Z" fill="#A51800"/>
</g>
<path d="M75.1543 21.0331C75.1543 21.0331 74.6099 23.998 67.6251 25.742C61.389 27.2989 59.4684 26.0185 59.126 25.7271C59.7449 23.5003 74.529 19.0146 75.1543 21.0352V21.0331Z" fill="#EA3800"/>
<path d="M62.4052 25.8888C61.8267 25.8888 61.3524 25.8462 60.9695 25.7824C60.5697 25.7165 60.4697 25.1869 60.8185 24.9785C60.9738 24.8849 61.1503 24.787 61.3502 24.6807C62.3669 24.1404 63.7409 23.5662 65.3233 23.0153C68.5583 21.8902 71.9082 21.1351 73.6608 21.1351H73.6735C74.0415 21.1351 74.2414 21.5669 74.0075 21.8498C73.8692 22.0178 73.6948 22.2007 73.48 22.3964C72.6037 23.1897 70.8511 24.3106 67.48 25.1529C65.5168 25.642 63.8111 25.8909 62.4073 25.8909L62.4052 25.8888Z" fill="#A51800"/>
<path d="M68.8369 23.3194C68.8369 23.3194 71.134 21.9752 71.3871 22.524C71.587 22.9557 68.8369 23.3194 68.8369 23.3194Z" fill="#FFA73D"/>
<path d="M64.9342 24.3914C64.9342 24.3914 62.2011 24.4999 62.3181 25.0933C62.4117 25.5591 64.9342 24.3914 64.9342 24.3914Z" fill="#FFA73D"/>
<path d="M67.2399 23.8533C67.2399 23.8533 66.8252 24.9422 67.6908 24.7657C68.5565 24.5871 67.2399 23.8533 67.2399 23.8533Z" fill="#FFA73D"/>
<path d="M67.0714 23.228C67.0714 23.228 65.8633 23.1705 66.6566 22.9238C67.501 22.6622 67.0714 23.228 67.0714 23.228Z" fill="#FFA73D"/>
<path d="M82.3798 32.5034C77.9515 34.2581 75.0845 33.3073 73.2957 31.8334C71.3347 30.2169 70.6733 27.9731 70.6733 27.9731C70.6456 27.888 70.6477 27.7987 70.6733 27.7051C71.2497 25.6292 84.143 21.5881 86.389 22.6898C86.5527 22.7685 86.6591 22.877 86.7016 23.0131C86.7016 23.0131 89.8516 29.5448 82.3798 32.5055V32.5034Z" fill="#A51800"/>
<g style="mix-blend-mode:multiply" opacity="0.3">
<path d="M82.3799 32.5034C77.9517 34.258 75.0846 33.3073 73.2959 31.8334C76.7947 34.1241 82.046 32.0142 83.9687 29.9298C86.1637 27.5498 85.0066 25.2953 85.0066 25.2953C85.364 23.9702 85.9595 23.145 86.3891 22.6877C86.5529 22.7664 86.6593 22.8749 86.7018 23.011C86.7018 23.011 89.8517 29.5427 82.3799 32.5034Z" fill="#A51800"/>
</g>
<path d="M86.7022 23.011C86.7022 23.011 86.1577 25.9759 79.1729 27.72C72.9369 29.2769 71.0163 27.9965 70.6738 27.7051C71.2928 25.4782 86.0769 20.9926 86.7022 23.0131V23.011Z" fill="#EA3800"/>
<path d="M73.953 27.8667C73.3745 27.8667 72.9002 27.8242 72.5174 27.7604C72.1175 27.6945 72.0176 27.1649 72.3664 26.9564C72.5216 26.8628 72.6982 26.765 72.8981 26.6586C73.9148 26.1184 75.2887 25.5442 76.8712 24.9933C80.1062 23.8682 83.4561 23.1131 85.2086 23.1131H85.2214C85.5893 23.1131 85.7893 23.5449 85.5553 23.8277C85.4171 23.9958 85.2427 24.1787 85.0278 24.3744C84.1515 25.1677 82.399 26.2886 79.0278 27.1308C77.0647 27.62 75.3589 27.8689 73.9552 27.8689L73.953 27.8667Z" fill="#A51800"/>
<path d="M80.3828 25.2953C80.3828 25.2953 82.6799 23.9511 82.933 24.4998C83.1329 24.9316 80.3828 25.2953 80.3828 25.2953Z" fill="#FFA73D"/>
<path d="M76.482 26.3672C76.482 26.3672 73.749 26.4757 73.866 27.0691C73.9595 27.5349 76.482 26.3672 76.482 26.3672Z" fill="#FFA73D"/>
<path d="M78.7878 25.8292C78.7878 25.8292 78.373 26.9181 79.2387 26.7416C80.1043 26.5629 78.7878 25.8292 78.7878 25.8292Z" fill="#FFA73D"/>
<path d="M78.6173 25.2059C78.6173 25.2059 77.4092 25.1485 78.2025 24.9018C79.0469 24.6402 78.6173 25.2059 78.6173 25.2059Z" fill="#FFA73D"/>
<path d="M78.5556 33.4201C74.9292 34.6537 52.3521 37.4017 50.0742 32.5608C49.032 31.2336 49.517 29.2429 50.8803 28.0965C51.5226 27.5562 52.3585 27.2032 53.322 27.1946C54.73 27.184 58.7435 28.4006 60.9448 29.162C67.3234 31.3655 71.3029 31.4272 75.0143 31.6016C75.2823 31.6144 75.5503 31.6271 75.8162 31.642C80.8442 31.9185 79.9275 32.9543 78.5556 33.4201Z" fill="#6F9700"/>
<path d="M53.4795 28.5644C53.4795 28.5644 53.8262 27.871 55.617 28.0561C57.4079 28.239 64.6394 31.3336 67.6915 31.3421C67.6915 31.3421 65.739 32.2227 60.5727 30.5637C57.4653 29.5662 54.8599 28.5261 53.4795 28.5665V28.5644Z" fill="#8BB500"/>
<path opacity="0.7" d="M78.5556 33.4201C74.9292 34.6537 52.3521 37.4016 50.0742 32.5608C49.032 31.2336 49.517 29.2428 50.8803 28.0964C50.8803 28.0964 50.0466 31.1996 55.2128 32.6331C60.3791 34.0645 73.2575 33.6264 74.9803 32.7756C76.1118 32.2163 75.797 31.8036 75.0143 31.6037C75.2823 31.6165 75.5503 31.6292 75.8162 31.6441C80.8442 31.9206 79.9275 32.9564 78.5556 33.4222V33.4201Z" fill="#2C5100"/>
<path opacity="0.7" d="M50.5082 29.7809C50.4018 30.0766 50.1976 30.2765 50.053 30.2233C49.9084 30.1723 49.8765 29.8894 49.9828 29.5917C50.0892 29.296 50.2933 29.0961 50.438 29.1493C50.5826 29.2003 50.6145 29.4832 50.5082 29.7809Z" fill="#2C5100"/>
<path d="M50.1165 29.8001C50.0208 29.6895 46.3242 28.3985 42.1278 28.7111C41.8747 28.4474 41.9024 27.6285 42.3958 27.5179C42.3958 27.5179 48.4915 28.2262 50.3377 29.5385C50.4228 29.6151 50.3036 29.8299 50.1186 29.8001H50.1165Z" fill="#19180F"/>
<path d="M65.4024 36.0851C61.8037 37.3931 39.2883 40.609 36.9083 35.8171C35.8384 34.5112 36.283 32.5119 37.6208 31.3378C38.2525 30.7848 39.0798 30.4147 40.0433 30.3871C41.4513 30.3467 45.4882 31.4803 47.7066 32.195C54.1298 34.2644 58.1093 34.2453 61.8228 34.341C62.0908 34.3474 62.3588 34.3559 62.6247 34.3644C67.6591 34.5346 66.7615 35.5916 65.4003 36.0851H65.4024Z" fill="#6F9700"/>
<path d="M40.2305 31.7505C40.2305 31.7505 40.5623 31.0507 42.3552 31.1975C44.1504 31.3442 51.4435 34.2879 54.4956 34.2304C54.4956 34.2304 52.5601 35.1514 47.3641 33.5988C44.2354 32.665 41.6108 31.6803 40.2326 31.7505H40.2305Z" fill="#8BB500"/>
<path opacity="0.7" d="M65.4024 36.0851C61.8037 37.3931 39.2883 40.609 36.9083 35.8171C35.8384 34.5112 36.283 32.5119 37.6208 31.3378C37.6208 31.3378 36.8508 34.458 42.0469 35.7831C47.2429 37.1081 60.1085 36.402 61.8122 35.5151C62.9309 34.9323 62.6098 34.5261 61.8228 34.341C62.0908 34.3474 62.3588 34.3559 62.6247 34.3644C67.6591 34.5346 66.7615 35.5916 65.4003 36.0851H65.4024Z" fill="#2C5100"/>
<path opacity="0.7" d="M37.285 33.0287C37.1851 33.3265 36.9851 33.5307 36.8405 33.4817C36.6938 33.4328 36.6576 33.1521 36.7576 32.8522C36.8575 32.5544 37.0575 32.3502 37.2021 32.3991C37.3467 32.4481 37.385 32.7288 37.285 33.0287Z" fill="#2C5100"/>
<path d="M36.8936 33.0564C36.7958 32.9479 33.0737 31.7334 28.8837 32.1333C28.6263 31.8759 28.637 31.0549 29.1262 30.9337C29.1262 30.9337 35.2346 31.5144 37.1084 32.7884C37.1935 32.8628 37.0808 33.0819 36.8957 33.0542L36.8936 33.0564Z" fill="#19180F"/>
</g>
<defs>
<clipPath id="clip0_617_2382">
<rect width="96" height="43.9589" fill="white"/>
</clipPath>
</defs>
</svg>
