<svg width="15" height="15" viewBox="0 0 15 15" fill="none" xmlns="http://www.w3.org/2000/svg">
<path d="M7.49948 11.4125C7.80554 11.4125 8.05365 11.1644 8.05365 10.8584C8.05365 10.5523 7.80554 10.3042 7.49948 10.3042C7.19342 10.3042 6.94531 10.5523 6.94531 10.8584C6.94531 11.1644 7.19342 11.4125 7.49948 11.4125Z" fill="#FF3B3B"/>
<path d="M7.50065 9.42074C7.39014 9.42074 7.28416 9.37684 7.20602 9.2987C7.12788 9.22056 7.08398 9.11458 7.08398 9.00407V4.00407C7.08398 3.89356 7.12788 3.78758 7.20602 3.70944C7.28416 3.6313 7.39014 3.5874 7.50065 3.5874C7.61116 3.5874 7.71714 3.6313 7.79528 3.70944C7.87342 3.78758 7.91732 3.89356 7.91732 4.00407V9.00407C7.91732 9.11458 7.87342 9.22056 7.79528 9.2987C7.71714 9.37684 7.61116 9.42074 7.50065 9.42074Z" fill="#FF3B3B"/>
<path d="M7.50065 14.1666C6.18211 14.1666 4.89318 13.7756 3.79685 13.0431C2.70052 12.3105 1.84604 11.2693 1.34146 10.0511C0.836873 8.83297 0.704851 7.49253 0.962086 6.19932C1.21932 4.90611 1.85426 3.71823 2.78661 2.78588C3.71896 1.85353 4.90685 1.21859 6.20005 0.961353C7.49326 0.704118 8.8337 0.83614 10.0519 1.34072C11.2701 1.84531 12.3112 2.69979 13.0438 3.79612C13.7763 4.89245 14.1673 6.18138 14.1673 7.49992C14.1673 9.26803 13.4649 10.9637 12.2147 12.214C10.9645 13.4642 9.26876 14.1666 7.50065 14.1666ZM7.50065 1.66659C6.34693 1.66659 5.21911 2.00871 4.25983 2.64968C3.30054 3.29066 2.55287 4.2017 2.11136 5.2676C1.66985 6.3335 1.55433 7.50639 1.77941 8.63795C2.00449 9.7695 2.56006 10.8089 3.37586 11.6247C4.19167 12.4405 5.23107 12.9961 6.36263 13.2212C7.49418 13.4462 8.66707 13.3307 9.73297 12.8892C10.7989 12.4477 11.7099 11.7 12.3509 10.7407C12.9919 9.78146 13.334 8.65365 13.334 7.49992C13.334 5.95283 12.7194 4.46909 11.6254 3.37513C10.5315 2.28117 9.04775 1.66659 7.50065 1.66659Z" fill="#FF3B3B"/>
</svg>
